%TF.GenerationSoftware,KiCad,Pcbnew,9.0.2*%
%TF.CreationDate,2025-08-08T14:56:36-04:00*%
%TF.ProjectId,Massachusetts,4d617373-6163-4687-9573-657474732e6b,0*%
%TF.SameCoordinates,Original*%
%TF.FileFunction,Copper,L2,Bot*%
%TF.FilePolarity,Positive*%
%FSLAX46Y46*%
G04 Gerber Fmt 4.6, Leading zero omitted, Abs format (unit mm)*
G04 Created by KiCad (PCBNEW 9.0.2) date 2025-08-08 14:56:36*
%MOMM*%
%LPD*%
G01*
G04 APERTURE LIST*
G04 Aperture macros list*
%AMRoundRect*
0 Rectangle with rounded corners*
0 $1 Rounding radius*
0 $2 $3 $4 $5 $6 $7 $8 $9 X,Y pos of 4 corners*
0 Add a 4 corners polygon primitive as box body*
4,1,4,$2,$3,$4,$5,$6,$7,$8,$9,$2,$3,0*
0 Add four circle primitives for the rounded corners*
1,1,$1+$1,$2,$3*
1,1,$1+$1,$4,$5*
1,1,$1+$1,$6,$7*
1,1,$1+$1,$8,$9*
0 Add four rect primitives between the rounded corners*
20,1,$1+$1,$2,$3,$4,$5,0*
20,1,$1+$1,$4,$5,$6,$7,0*
20,1,$1+$1,$6,$7,$8,$9,0*
20,1,$1+$1,$8,$9,$2,$3,0*%
G04 Aperture macros list end*
%TA.AperFunction,SMDPad,CuDef*%
%ADD10RoundRect,0.237500X-0.237500X0.250000X-0.237500X-0.250000X0.237500X-0.250000X0.237500X0.250000X0*%
%TD*%
%TA.AperFunction,SMDPad,CuDef*%
%ADD11R,5.080000X1.270000*%
%TD*%
%TA.AperFunction,SMDPad,CuDef*%
%ADD12C,17.800000*%
%TD*%
%TA.AperFunction,SMDPad,CuDef*%
%ADD13RoundRect,0.237500X-0.250000X-0.237500X0.250000X-0.237500X0.250000X0.237500X-0.250000X0.237500X0*%
%TD*%
%TA.AperFunction,SMDPad,CuDef*%
%ADD14RoundRect,0.237500X0.250000X0.237500X-0.250000X0.237500X-0.250000X-0.237500X0.250000X-0.237500X0*%
%TD*%
%TA.AperFunction,ViaPad*%
%ADD15C,0.600000*%
%TD*%
%TA.AperFunction,Conductor*%
%ADD16C,0.200000*%
%TD*%
G04 APERTURE END LIST*
D10*
%TO.P,R5,2*%
%TO.N,Net-(D5-A)*%
X130587500Y-116412500D03*
%TO.P,R5,1*%
%TO.N,VCC*%
X130587500Y-114587500D03*
%TD*%
%TO.P,R4,1*%
%TO.N,VCC*%
X162112500Y-104187500D03*
%TO.P,R4,2*%
%TO.N,Net-(D4-A)*%
X162112500Y-106012500D03*
%TD*%
D11*
%TO.P,BT1,1,+*%
%TO.N,VCC*%
X190200000Y-127565000D03*
X190200000Y-105595000D03*
D12*
%TO.P,BT1,2,-*%
%TO.N,GND*%
X190200000Y-116580000D03*
%TD*%
D13*
%TO.P,R2,1*%
%TO.N,VCC*%
X135400000Y-99100000D03*
%TO.P,R2,2*%
%TO.N,Net-(D2-A)*%
X137225000Y-99100000D03*
%TD*%
%TO.P,R1,1*%
%TO.N,VCC*%
X131000000Y-109700000D03*
%TO.P,R1,2*%
%TO.N,Net-(D1-A)*%
X132825000Y-109700000D03*
%TD*%
D14*
%TO.P,R3,1*%
%TO.N,VCC*%
X166575000Y-110500000D03*
%TO.P,R3,2*%
%TO.N,Net-(D3-A)*%
X164750000Y-110500000D03*
%TD*%
D15*
%TO.N,Net-(D1-A)*%
X133274828Y-105125172D03*
%TO.N,Net-(D1-K)*%
X144500000Y-127000000D03*
X134500000Y-102800000D03*
X138200000Y-106200000D03*
X136600000Y-114500000D03*
X157900000Y-107100000D03*
X136600000Y-116700000D03*
X131500000Y-103100000D03*
X140200000Y-127300000D03*
X137000000Y-107200000D03*
%TO.N,Net-(D2-A)*%
X137400000Y-101600000D03*
%TO.N,Net-(D3-A)*%
X140000000Y-108300000D03*
%TO.N,Net-(D4-A)*%
X159700000Y-107200000D03*
%TO.N,Net-(D5-A)*%
X134800000Y-116700000D03*
%TO.N,GND*%
X140200000Y-133700000D03*
X144700000Y-133700000D03*
%TD*%
D16*
%TO.N,GND*%
X150300000Y-137600000D02*
X150900000Y-137600000D01*
X149450000Y-136150000D02*
X149450000Y-136750000D01*
X149450000Y-136750000D02*
X150300000Y-137600000D01*
X147000000Y-133700000D02*
X149450000Y-136150000D01*
X144700000Y-133700000D02*
X147000000Y-133700000D01*
X140200000Y-133700000D02*
X138700000Y-133700000D01*
X138700000Y-133700000D02*
X136500000Y-135900000D01*
X136500000Y-136500000D02*
X137600000Y-137600000D01*
X137600000Y-137600000D02*
X150900000Y-137600000D01*
X136500000Y-135900000D02*
X136500000Y-136500000D01*
%TO.N,Net-(D1-K)*%
X136600000Y-123700000D02*
X140200000Y-127300000D01*
X136600000Y-123600000D02*
X136600000Y-123700000D01*
X141100000Y-123600000D02*
X136600000Y-123600000D01*
X144500000Y-127000000D02*
X141100000Y-123600000D01*
%TO.N,Net-(D1-A)*%
X133274828Y-105125172D02*
X132825000Y-105575000D01*
X132825000Y-105575000D02*
X132825000Y-109700000D01*
%TO.N,Net-(D1-K)*%
X138200000Y-112900000D02*
X138200000Y-106200000D01*
X136600000Y-114500000D02*
X138200000Y-112900000D01*
X137000000Y-107200000D02*
X136500000Y-107200000D01*
X157000000Y-106200000D02*
X157900000Y-107100000D01*
X136600000Y-116700000D02*
X136600000Y-123600000D01*
X136500000Y-107200000D02*
X132400000Y-103100000D01*
X134500000Y-102800000D02*
X131800000Y-102800000D01*
X132400000Y-103100000D02*
X131500000Y-103100000D01*
X131800000Y-102800000D02*
X131500000Y-103100000D01*
X138200000Y-106200000D02*
X157000000Y-106200000D01*
%TO.N,Net-(D2-A)*%
X137225000Y-101425000D02*
X137225000Y-99100000D01*
X137400000Y-101600000D02*
X137225000Y-101425000D01*
%TO.N,Net-(D3-A)*%
X142400000Y-110500000D02*
X164750000Y-110500000D01*
X140200000Y-108300000D02*
X142400000Y-110500000D01*
X140000000Y-108300000D02*
X140200000Y-108300000D01*
%TO.N,Net-(D4-A)*%
X159700000Y-107200000D02*
X160887500Y-106012500D01*
X160887500Y-106012500D02*
X162112500Y-106012500D01*
%TO.N,Net-(D5-A)*%
X134512500Y-116412500D02*
X130587500Y-116412500D01*
X134800000Y-116700000D02*
X134512500Y-116412500D01*
%TO.N,VCC*%
X131000000Y-114175000D02*
X130587500Y-114587500D01*
X156249000Y-98324000D02*
X136176000Y-98324000D01*
X135200000Y-98900000D02*
X128700000Y-98900000D01*
X202065000Y-127565000D02*
X190200000Y-127565000D01*
X131000000Y-109700000D02*
X131000000Y-114175000D01*
X136176000Y-98324000D02*
X135400000Y-99100000D01*
X128700000Y-107400000D02*
X131000000Y-109700000D01*
X135400000Y-99100000D02*
X135200000Y-98900000D01*
X201995000Y-105595000D02*
X202000000Y-105600000D01*
X162112500Y-104187500D02*
X156249000Y-98324000D01*
X202000000Y-127500000D02*
X202065000Y-127565000D01*
X190200000Y-105595000D02*
X201995000Y-105595000D01*
X128700000Y-98900000D02*
X128700000Y-107400000D01*
X166575000Y-110500000D02*
X166575000Y-108650000D01*
X190200000Y-105595000D02*
X171480000Y-105595000D01*
X202000000Y-105600000D02*
X202000000Y-127500000D01*
X166575000Y-108650000D02*
X162112500Y-104187500D01*
X171480000Y-105595000D02*
X166575000Y-110500000D01*
%TO.N,GND*%
X155000000Y-122400000D02*
X155000000Y-137600000D01*
X155000000Y-137600000D02*
X150900000Y-137600000D01*
X160820000Y-116580000D02*
X190200000Y-116580000D01*
X160820000Y-116580000D02*
X155000000Y-122400000D01*
%TD*%
M02*
