%TF.GenerationSoftware,KiCad,Pcbnew,9.0.2*%
%TF.CreationDate,2025-08-08T14:56:36-04:00*%
%TF.ProjectId,Massachusetts,4d617373-6163-4687-9573-657474732e6b,0*%
%TF.SameCoordinates,Original*%
%TF.FileFunction,Soldermask,Top*%
%TF.FilePolarity,Negative*%
%FSLAX46Y46*%
G04 Gerber Fmt 4.6, Leading zero omitted, Abs format (unit mm)*
G04 Created by KiCad (PCBNEW 9.0.2) date 2025-08-08 14:56:36*
%MOMM*%
%LPD*%
G01*
G04 APERTURE LIST*
G04 Aperture macros list*
%AMRoundRect*
0 Rectangle with rounded corners*
0 $1 Rounding radius*
0 $2 $3 $4 $5 $6 $7 $8 $9 X,Y pos of 4 corners*
0 Add a 4 corners polygon primitive as box body*
4,1,4,$2,$3,$4,$5,$6,$7,$8,$9,$2,$3,0*
0 Add four circle primitives for the rounded corners*
1,1,$1+$1,$2,$3*
1,1,$1+$1,$4,$5*
1,1,$1+$1,$6,$7*
1,1,$1+$1,$8,$9*
0 Add four rect primitives between the rounded corners*
20,1,$1+$1,$2,$3,$4,$5,0*
20,1,$1+$1,$4,$5,$6,$7,0*
20,1,$1+$1,$6,$7,$8,$9,0*
20,1,$1+$1,$8,$9,$2,$3,0*%
G04 Aperture macros list end*
%ADD10C,0.010000*%
%ADD11RoundRect,0.237500X-0.287500X-0.237500X0.287500X-0.237500X0.287500X0.237500X-0.287500X0.237500X0*%
%ADD12RoundRect,0.237500X0.287500X0.237500X-0.287500X0.237500X-0.287500X-0.237500X0.287500X-0.237500X0*%
G04 APERTURE END LIST*
D10*
%TO.C,S1*%
X140155000Y-131850000D02*
X140655000Y-131850000D01*
X140655000Y-132750000D01*
X140155000Y-132750000D01*
X140155000Y-132950000D01*
X139755000Y-132950000D01*
X139755000Y-131650000D01*
X140155000Y-131650000D01*
X140155000Y-131850000D01*
G36*
X140155000Y-131850000D02*
G01*
X140655000Y-131850000D01*
X140655000Y-132750000D01*
X140155000Y-132750000D01*
X140155000Y-132950000D01*
X139755000Y-132950000D01*
X139755000Y-131650000D01*
X140155000Y-131650000D01*
X140155000Y-131850000D01*
G37*
X140155000Y-128350000D02*
X140655000Y-128350000D01*
X140655000Y-129250000D01*
X140155000Y-129250000D01*
X140155000Y-129450000D01*
X139755000Y-129450000D01*
X139755000Y-128150000D01*
X140155000Y-128150000D01*
X140155000Y-128350000D01*
G36*
X140155000Y-128350000D02*
G01*
X140655000Y-128350000D01*
X140655000Y-129250000D01*
X140155000Y-129250000D01*
X140155000Y-129450000D01*
X139755000Y-129450000D01*
X139755000Y-128150000D01*
X140155000Y-128150000D01*
X140155000Y-128350000D01*
G37*
X145105000Y-129450000D02*
X144705000Y-129450000D01*
X144705000Y-129250000D01*
X144205000Y-129250000D01*
X144205000Y-128350000D01*
X144705000Y-128350000D01*
X144705000Y-128150000D01*
X145105000Y-128150000D01*
X145105000Y-129450000D01*
G36*
X145105000Y-129450000D02*
G01*
X144705000Y-129450000D01*
X144705000Y-129250000D01*
X144205000Y-129250000D01*
X144205000Y-128350000D01*
X144705000Y-128350000D01*
X144705000Y-128150000D01*
X145105000Y-128150000D01*
X145105000Y-129450000D01*
G37*
X145105000Y-132950000D02*
X144705000Y-132950000D01*
X144705000Y-132750000D01*
X144205000Y-132750000D01*
X144205000Y-131850000D01*
X144705000Y-131850000D01*
X144705000Y-131650000D01*
X145105000Y-131650000D01*
X145105000Y-132950000D01*
G36*
X145105000Y-132950000D02*
G01*
X144705000Y-132950000D01*
X144705000Y-132750000D01*
X144205000Y-132750000D01*
X144205000Y-131850000D01*
X144705000Y-131850000D01*
X144705000Y-131650000D01*
X145105000Y-131650000D01*
X145105000Y-132950000D01*
G37*
%TD*%
D11*
%TO.C,D4*%
X158000000Y-108300000D03*
X159750000Y-108300000D03*
%TD*%
%TO.C,D1*%
X131501126Y-104200000D03*
X133251126Y-104200000D03*
%TD*%
D12*
%TO.C,D5*%
X136550000Y-115600000D03*
X134800000Y-115600000D03*
%TD*%
D11*
%TO.C,D2*%
X135600000Y-102800000D03*
X137350000Y-102800000D03*
%TD*%
%TO.C,D3*%
X138200000Y-107200000D03*
X139950000Y-107200000D03*
%TD*%
M02*
