%TF.GenerationSoftware,KiCad,Pcbnew,9.0.2*%
%TF.CreationDate,2025-08-08T14:56:36-04:00*%
%TF.ProjectId,Massachusetts,4d617373-6163-4687-9573-657474732e6b,0*%
%TF.SameCoordinates,Original*%
%TF.FileFunction,Legend,Top*%
%TF.FilePolarity,Positive*%
%FSLAX46Y46*%
G04 Gerber Fmt 4.6, Leading zero omitted, Abs format (unit mm)*
G04 Created by KiCad (PCBNEW 9.0.2) date 2025-08-08 14:56:36*
%MOMM*%
%LPD*%
G01*
G04 APERTURE LIST*
%ADD10C,0.100000*%
%ADD11C,0.400000*%
%ADD12C,0.300000*%
%ADD13C,0.127000*%
%ADD14C,0.200000*%
%ADD15C,0.120000*%
%ADD16C,0.000000*%
G04 APERTURE END LIST*
D10*
X138375312Y-116072419D02*
X138041979Y-115596228D01*
X137803884Y-116072419D02*
X137803884Y-115072419D01*
X137803884Y-115072419D02*
X138184836Y-115072419D01*
X138184836Y-115072419D02*
X138280074Y-115120038D01*
X138280074Y-115120038D02*
X138327693Y-115167657D01*
X138327693Y-115167657D02*
X138375312Y-115262895D01*
X138375312Y-115262895D02*
X138375312Y-115405752D01*
X138375312Y-115405752D02*
X138327693Y-115500990D01*
X138327693Y-115500990D02*
X138280074Y-115548609D01*
X138280074Y-115548609D02*
X138184836Y-115596228D01*
X138184836Y-115596228D02*
X137803884Y-115596228D01*
X138946741Y-116072419D02*
X138851503Y-116024800D01*
X138851503Y-116024800D02*
X138803884Y-115977180D01*
X138803884Y-115977180D02*
X138756265Y-115881942D01*
X138756265Y-115881942D02*
X138756265Y-115596228D01*
X138756265Y-115596228D02*
X138803884Y-115500990D01*
X138803884Y-115500990D02*
X138851503Y-115453371D01*
X138851503Y-115453371D02*
X138946741Y-115405752D01*
X138946741Y-115405752D02*
X139089598Y-115405752D01*
X139089598Y-115405752D02*
X139184836Y-115453371D01*
X139184836Y-115453371D02*
X139232455Y-115500990D01*
X139232455Y-115500990D02*
X139280074Y-115596228D01*
X139280074Y-115596228D02*
X139280074Y-115881942D01*
X139280074Y-115881942D02*
X139232455Y-115977180D01*
X139232455Y-115977180D02*
X139184836Y-116024800D01*
X139184836Y-116024800D02*
X139089598Y-116072419D01*
X139089598Y-116072419D02*
X138946741Y-116072419D01*
X140137217Y-115405752D02*
X140137217Y-116072419D01*
X139708646Y-115405752D02*
X139708646Y-115929561D01*
X139708646Y-115929561D02*
X139756265Y-116024800D01*
X139756265Y-116024800D02*
X139851503Y-116072419D01*
X139851503Y-116072419D02*
X139994360Y-116072419D01*
X139994360Y-116072419D02*
X140089598Y-116024800D01*
X140089598Y-116024800D02*
X140137217Y-115977180D01*
X140613408Y-115405752D02*
X140613408Y-116072419D01*
X140613408Y-115500990D02*
X140661027Y-115453371D01*
X140661027Y-115453371D02*
X140756265Y-115405752D01*
X140756265Y-115405752D02*
X140899122Y-115405752D01*
X140899122Y-115405752D02*
X140994360Y-115453371D01*
X140994360Y-115453371D02*
X141041979Y-115548609D01*
X141041979Y-115548609D02*
X141041979Y-116072419D01*
X141946741Y-116072419D02*
X141946741Y-115072419D01*
X141946741Y-116024800D02*
X141851503Y-116072419D01*
X141851503Y-116072419D02*
X141661027Y-116072419D01*
X141661027Y-116072419D02*
X141565789Y-116024800D01*
X141565789Y-116024800D02*
X141518170Y-115977180D01*
X141518170Y-115977180D02*
X141470551Y-115881942D01*
X141470551Y-115881942D02*
X141470551Y-115596228D01*
X141470551Y-115596228D02*
X141518170Y-115500990D01*
X141518170Y-115500990D02*
X141565789Y-115453371D01*
X141565789Y-115453371D02*
X141661027Y-115405752D01*
X141661027Y-115405752D02*
X141851503Y-115405752D01*
X141851503Y-115405752D02*
X141946741Y-115453371D01*
X143041980Y-115072419D02*
X143613408Y-115072419D01*
X143327694Y-116072419D02*
X143327694Y-115072419D01*
X144089599Y-116072419D02*
X143994361Y-116024800D01*
X143994361Y-116024800D02*
X143946742Y-115977180D01*
X143946742Y-115977180D02*
X143899123Y-115881942D01*
X143899123Y-115881942D02*
X143899123Y-115596228D01*
X143899123Y-115596228D02*
X143946742Y-115500990D01*
X143946742Y-115500990D02*
X143994361Y-115453371D01*
X143994361Y-115453371D02*
X144089599Y-115405752D01*
X144089599Y-115405752D02*
X144232456Y-115405752D01*
X144232456Y-115405752D02*
X144327694Y-115453371D01*
X144327694Y-115453371D02*
X144375313Y-115500990D01*
X144375313Y-115500990D02*
X144422932Y-115596228D01*
X144422932Y-115596228D02*
X144422932Y-115881942D01*
X144422932Y-115881942D02*
X144375313Y-115977180D01*
X144375313Y-115977180D02*
X144327694Y-116024800D01*
X144327694Y-116024800D02*
X144232456Y-116072419D01*
X144232456Y-116072419D02*
X144089599Y-116072419D01*
X144851504Y-115405752D02*
X144851504Y-116405752D01*
X144851504Y-115453371D02*
X144946742Y-115405752D01*
X144946742Y-115405752D02*
X145137218Y-115405752D01*
X145137218Y-115405752D02*
X145232456Y-115453371D01*
X145232456Y-115453371D02*
X145280075Y-115500990D01*
X145280075Y-115500990D02*
X145327694Y-115596228D01*
X145327694Y-115596228D02*
X145327694Y-115881942D01*
X145327694Y-115881942D02*
X145280075Y-115977180D01*
X145280075Y-115977180D02*
X145232456Y-116024800D01*
X145232456Y-116024800D02*
X145137218Y-116072419D01*
X145137218Y-116072419D02*
X144946742Y-116072419D01*
X144946742Y-116072419D02*
X144851504Y-116024800D01*
X146518171Y-116072419D02*
X146518171Y-115072419D01*
X146518171Y-115548609D02*
X147089599Y-115548609D01*
X147089599Y-116072419D02*
X147089599Y-115072419D01*
X147565790Y-116072419D02*
X147565790Y-115405752D01*
X147565790Y-115072419D02*
X147518171Y-115120038D01*
X147518171Y-115120038D02*
X147565790Y-115167657D01*
X147565790Y-115167657D02*
X147613409Y-115120038D01*
X147613409Y-115120038D02*
X147565790Y-115072419D01*
X147565790Y-115072419D02*
X147565790Y-115167657D01*
X148184837Y-116072419D02*
X148089599Y-116024800D01*
X148089599Y-116024800D02*
X148041980Y-115929561D01*
X148041980Y-115929561D02*
X148041980Y-115072419D01*
X148708647Y-116072419D02*
X148613409Y-116024800D01*
X148613409Y-116024800D02*
X148565790Y-115929561D01*
X148565790Y-115929561D02*
X148565790Y-115072419D01*
X160908646Y-107872419D02*
X161146741Y-108872419D01*
X161146741Y-108872419D02*
X161337217Y-108158133D01*
X161337217Y-108158133D02*
X161527693Y-108872419D01*
X161527693Y-108872419D02*
X161765789Y-107872419D01*
X162575312Y-108872419D02*
X162575312Y-108348609D01*
X162575312Y-108348609D02*
X162527693Y-108253371D01*
X162527693Y-108253371D02*
X162432455Y-108205752D01*
X162432455Y-108205752D02*
X162241979Y-108205752D01*
X162241979Y-108205752D02*
X162146741Y-108253371D01*
X162575312Y-108824800D02*
X162480074Y-108872419D01*
X162480074Y-108872419D02*
X162241979Y-108872419D01*
X162241979Y-108872419D02*
X162146741Y-108824800D01*
X162146741Y-108824800D02*
X162099122Y-108729561D01*
X162099122Y-108729561D02*
X162099122Y-108634323D01*
X162099122Y-108634323D02*
X162146741Y-108539085D01*
X162146741Y-108539085D02*
X162241979Y-108491466D01*
X162241979Y-108491466D02*
X162480074Y-108491466D01*
X162480074Y-108491466D02*
X162575312Y-108443847D01*
X163480074Y-108824800D02*
X163384836Y-108872419D01*
X163384836Y-108872419D02*
X163194360Y-108872419D01*
X163194360Y-108872419D02*
X163099122Y-108824800D01*
X163099122Y-108824800D02*
X163051503Y-108777180D01*
X163051503Y-108777180D02*
X163003884Y-108681942D01*
X163003884Y-108681942D02*
X163003884Y-108396228D01*
X163003884Y-108396228D02*
X163051503Y-108300990D01*
X163051503Y-108300990D02*
X163099122Y-108253371D01*
X163099122Y-108253371D02*
X163194360Y-108205752D01*
X163194360Y-108205752D02*
X163384836Y-108205752D01*
X163384836Y-108205752D02*
X163480074Y-108253371D01*
X163908646Y-108872419D02*
X163908646Y-107872419D01*
X164337217Y-108872419D02*
X164337217Y-108348609D01*
X164337217Y-108348609D02*
X164289598Y-108253371D01*
X164289598Y-108253371D02*
X164194360Y-108205752D01*
X164194360Y-108205752D02*
X164051503Y-108205752D01*
X164051503Y-108205752D02*
X163956265Y-108253371D01*
X163956265Y-108253371D02*
X163908646Y-108300990D01*
X165241979Y-108205752D02*
X165241979Y-108872419D01*
X164813408Y-108205752D02*
X164813408Y-108729561D01*
X164813408Y-108729561D02*
X164861027Y-108824800D01*
X164861027Y-108824800D02*
X164956265Y-108872419D01*
X164956265Y-108872419D02*
X165099122Y-108872419D01*
X165099122Y-108872419D02*
X165194360Y-108824800D01*
X165194360Y-108824800D02*
X165241979Y-108777180D01*
X165670551Y-108824800D02*
X165765789Y-108872419D01*
X165765789Y-108872419D02*
X165956265Y-108872419D01*
X165956265Y-108872419D02*
X166051503Y-108824800D01*
X166051503Y-108824800D02*
X166099122Y-108729561D01*
X166099122Y-108729561D02*
X166099122Y-108681942D01*
X166099122Y-108681942D02*
X166051503Y-108586704D01*
X166051503Y-108586704D02*
X165956265Y-108539085D01*
X165956265Y-108539085D02*
X165813408Y-108539085D01*
X165813408Y-108539085D02*
X165718170Y-108491466D01*
X165718170Y-108491466D02*
X165670551Y-108396228D01*
X165670551Y-108396228D02*
X165670551Y-108348609D01*
X165670551Y-108348609D02*
X165718170Y-108253371D01*
X165718170Y-108253371D02*
X165813408Y-108205752D01*
X165813408Y-108205752D02*
X165956265Y-108205752D01*
X165956265Y-108205752D02*
X166051503Y-108253371D01*
X166908646Y-108824800D02*
X166813408Y-108872419D01*
X166813408Y-108872419D02*
X166622932Y-108872419D01*
X166622932Y-108872419D02*
X166527694Y-108824800D01*
X166527694Y-108824800D02*
X166480075Y-108729561D01*
X166480075Y-108729561D02*
X166480075Y-108348609D01*
X166480075Y-108348609D02*
X166527694Y-108253371D01*
X166527694Y-108253371D02*
X166622932Y-108205752D01*
X166622932Y-108205752D02*
X166813408Y-108205752D01*
X166813408Y-108205752D02*
X166908646Y-108253371D01*
X166908646Y-108253371D02*
X166956265Y-108348609D01*
X166956265Y-108348609D02*
X166956265Y-108443847D01*
X166956265Y-108443847D02*
X166480075Y-108539085D01*
X167241980Y-108205752D02*
X167622932Y-108205752D01*
X167384837Y-107872419D02*
X167384837Y-108729561D01*
X167384837Y-108729561D02*
X167432456Y-108824800D01*
X167432456Y-108824800D02*
X167527694Y-108872419D01*
X167527694Y-108872419D02*
X167622932Y-108872419D01*
X167813409Y-108205752D02*
X168194361Y-108205752D01*
X167956266Y-107872419D02*
X167956266Y-108729561D01*
X167956266Y-108729561D02*
X168003885Y-108824800D01*
X168003885Y-108824800D02*
X168099123Y-108872419D01*
X168099123Y-108872419D02*
X168194361Y-108872419D01*
X169289600Y-108872419D02*
X169289600Y-107872419D01*
X169289600Y-107872419D02*
X169622933Y-108586704D01*
X169622933Y-108586704D02*
X169956266Y-107872419D01*
X169956266Y-107872419D02*
X169956266Y-108872419D01*
X170575314Y-108872419D02*
X170480076Y-108824800D01*
X170480076Y-108824800D02*
X170432457Y-108777180D01*
X170432457Y-108777180D02*
X170384838Y-108681942D01*
X170384838Y-108681942D02*
X170384838Y-108396228D01*
X170384838Y-108396228D02*
X170432457Y-108300990D01*
X170432457Y-108300990D02*
X170480076Y-108253371D01*
X170480076Y-108253371D02*
X170575314Y-108205752D01*
X170575314Y-108205752D02*
X170718171Y-108205752D01*
X170718171Y-108205752D02*
X170813409Y-108253371D01*
X170813409Y-108253371D02*
X170861028Y-108300990D01*
X170861028Y-108300990D02*
X170908647Y-108396228D01*
X170908647Y-108396228D02*
X170908647Y-108681942D01*
X170908647Y-108681942D02*
X170861028Y-108777180D01*
X170861028Y-108777180D02*
X170813409Y-108824800D01*
X170813409Y-108824800D02*
X170718171Y-108872419D01*
X170718171Y-108872419D02*
X170575314Y-108872419D01*
X171765790Y-108205752D02*
X171765790Y-108872419D01*
X171337219Y-108205752D02*
X171337219Y-108729561D01*
X171337219Y-108729561D02*
X171384838Y-108824800D01*
X171384838Y-108824800D02*
X171480076Y-108872419D01*
X171480076Y-108872419D02*
X171622933Y-108872419D01*
X171622933Y-108872419D02*
X171718171Y-108824800D01*
X171718171Y-108824800D02*
X171765790Y-108777180D01*
X172241981Y-108205752D02*
X172241981Y-108872419D01*
X172241981Y-108300990D02*
X172289600Y-108253371D01*
X172289600Y-108253371D02*
X172384838Y-108205752D01*
X172384838Y-108205752D02*
X172527695Y-108205752D01*
X172527695Y-108205752D02*
X172622933Y-108253371D01*
X172622933Y-108253371D02*
X172670552Y-108348609D01*
X172670552Y-108348609D02*
X172670552Y-108872419D01*
X173003886Y-108205752D02*
X173384838Y-108205752D01*
X173146743Y-107872419D02*
X173146743Y-108729561D01*
X173146743Y-108729561D02*
X173194362Y-108824800D01*
X173194362Y-108824800D02*
X173289600Y-108872419D01*
X173289600Y-108872419D02*
X173384838Y-108872419D01*
X174146743Y-108872419D02*
X174146743Y-108348609D01*
X174146743Y-108348609D02*
X174099124Y-108253371D01*
X174099124Y-108253371D02*
X174003886Y-108205752D01*
X174003886Y-108205752D02*
X173813410Y-108205752D01*
X173813410Y-108205752D02*
X173718172Y-108253371D01*
X174146743Y-108824800D02*
X174051505Y-108872419D01*
X174051505Y-108872419D02*
X173813410Y-108872419D01*
X173813410Y-108872419D02*
X173718172Y-108824800D01*
X173718172Y-108824800D02*
X173670553Y-108729561D01*
X173670553Y-108729561D02*
X173670553Y-108634323D01*
X173670553Y-108634323D02*
X173718172Y-108539085D01*
X173718172Y-108539085D02*
X173813410Y-108491466D01*
X173813410Y-108491466D02*
X174051505Y-108491466D01*
X174051505Y-108491466D02*
X174146743Y-108443847D01*
X174622934Y-108872419D02*
X174622934Y-108205752D01*
X174622934Y-107872419D02*
X174575315Y-107920038D01*
X174575315Y-107920038D02*
X174622934Y-107967657D01*
X174622934Y-107967657D02*
X174670553Y-107920038D01*
X174670553Y-107920038D02*
X174622934Y-107872419D01*
X174622934Y-107872419D02*
X174622934Y-107967657D01*
X175099124Y-108205752D02*
X175099124Y-108872419D01*
X175099124Y-108300990D02*
X175146743Y-108253371D01*
X175146743Y-108253371D02*
X175241981Y-108205752D01*
X175241981Y-108205752D02*
X175384838Y-108205752D01*
X175384838Y-108205752D02*
X175480076Y-108253371D01*
X175480076Y-108253371D02*
X175527695Y-108348609D01*
X175527695Y-108348609D02*
X175527695Y-108872419D01*
D11*
X132153633Y-94334438D02*
X133296490Y-94334438D01*
X132725061Y-96334438D02*
X132725061Y-94334438D01*
X134248871Y-96334438D02*
X134058395Y-96239200D01*
X134058395Y-96239200D02*
X133963157Y-96143961D01*
X133963157Y-96143961D02*
X133867919Y-95953485D01*
X133867919Y-95953485D02*
X133867919Y-95382057D01*
X133867919Y-95382057D02*
X133963157Y-95191580D01*
X133963157Y-95191580D02*
X134058395Y-95096342D01*
X134058395Y-95096342D02*
X134248871Y-95001104D01*
X134248871Y-95001104D02*
X134534586Y-95001104D01*
X134534586Y-95001104D02*
X134725062Y-95096342D01*
X134725062Y-95096342D02*
X134820300Y-95191580D01*
X134820300Y-95191580D02*
X134915538Y-95382057D01*
X134915538Y-95382057D02*
X134915538Y-95953485D01*
X134915538Y-95953485D02*
X134820300Y-96143961D01*
X134820300Y-96143961D02*
X134725062Y-96239200D01*
X134725062Y-96239200D02*
X134534586Y-96334438D01*
X134534586Y-96334438D02*
X134248871Y-96334438D01*
X135772681Y-95001104D02*
X135772681Y-97001104D01*
X135772681Y-95096342D02*
X135963157Y-95001104D01*
X135963157Y-95001104D02*
X136344110Y-95001104D01*
X136344110Y-95001104D02*
X136534586Y-95096342D01*
X136534586Y-95096342D02*
X136629824Y-95191580D01*
X136629824Y-95191580D02*
X136725062Y-95382057D01*
X136725062Y-95382057D02*
X136725062Y-95953485D01*
X136725062Y-95953485D02*
X136629824Y-96143961D01*
X136629824Y-96143961D02*
X136534586Y-96239200D01*
X136534586Y-96239200D02*
X136344110Y-96334438D01*
X136344110Y-96334438D02*
X135963157Y-96334438D01*
X135963157Y-96334438D02*
X135772681Y-96239200D01*
X140058396Y-94334438D02*
X139106015Y-94334438D01*
X139106015Y-94334438D02*
X139010777Y-95286819D01*
X139010777Y-95286819D02*
X139106015Y-95191580D01*
X139106015Y-95191580D02*
X139296491Y-95096342D01*
X139296491Y-95096342D02*
X139772682Y-95096342D01*
X139772682Y-95096342D02*
X139963158Y-95191580D01*
X139963158Y-95191580D02*
X140058396Y-95286819D01*
X140058396Y-95286819D02*
X140153634Y-95477295D01*
X140153634Y-95477295D02*
X140153634Y-95953485D01*
X140153634Y-95953485D02*
X140058396Y-96143961D01*
X140058396Y-96143961D02*
X139963158Y-96239200D01*
X139963158Y-96239200D02*
X139772682Y-96334438D01*
X139772682Y-96334438D02*
X139296491Y-96334438D01*
X139296491Y-96334438D02*
X139106015Y-96239200D01*
X139106015Y-96239200D02*
X139010777Y-96143961D01*
X142534587Y-96334438D02*
X142534587Y-94334438D01*
X142534587Y-94334438D02*
X143201254Y-95763009D01*
X143201254Y-95763009D02*
X143867920Y-94334438D01*
X143867920Y-94334438D02*
X143867920Y-96334438D01*
X145677444Y-96334438D02*
X145677444Y-95286819D01*
X145677444Y-95286819D02*
X145582206Y-95096342D01*
X145582206Y-95096342D02*
X145391730Y-95001104D01*
X145391730Y-95001104D02*
X145010777Y-95001104D01*
X145010777Y-95001104D02*
X144820301Y-95096342D01*
X145677444Y-96239200D02*
X145486968Y-96334438D01*
X145486968Y-96334438D02*
X145010777Y-96334438D01*
X145010777Y-96334438D02*
X144820301Y-96239200D01*
X144820301Y-96239200D02*
X144725063Y-96048723D01*
X144725063Y-96048723D02*
X144725063Y-95858247D01*
X144725063Y-95858247D02*
X144820301Y-95667771D01*
X144820301Y-95667771D02*
X145010777Y-95572533D01*
X145010777Y-95572533D02*
X145486968Y-95572533D01*
X145486968Y-95572533D02*
X145677444Y-95477295D01*
X146534587Y-96239200D02*
X146725063Y-96334438D01*
X146725063Y-96334438D02*
X147106015Y-96334438D01*
X147106015Y-96334438D02*
X147296492Y-96239200D01*
X147296492Y-96239200D02*
X147391730Y-96048723D01*
X147391730Y-96048723D02*
X147391730Y-95953485D01*
X147391730Y-95953485D02*
X147296492Y-95763009D01*
X147296492Y-95763009D02*
X147106015Y-95667771D01*
X147106015Y-95667771D02*
X146820301Y-95667771D01*
X146820301Y-95667771D02*
X146629825Y-95572533D01*
X146629825Y-95572533D02*
X146534587Y-95382057D01*
X146534587Y-95382057D02*
X146534587Y-95286819D01*
X146534587Y-95286819D02*
X146629825Y-95096342D01*
X146629825Y-95096342D02*
X146820301Y-95001104D01*
X146820301Y-95001104D02*
X147106015Y-95001104D01*
X147106015Y-95001104D02*
X147296492Y-95096342D01*
X148153635Y-96239200D02*
X148344111Y-96334438D01*
X148344111Y-96334438D02*
X148725063Y-96334438D01*
X148725063Y-96334438D02*
X148915540Y-96239200D01*
X148915540Y-96239200D02*
X149010778Y-96048723D01*
X149010778Y-96048723D02*
X149010778Y-95953485D01*
X149010778Y-95953485D02*
X148915540Y-95763009D01*
X148915540Y-95763009D02*
X148725063Y-95667771D01*
X148725063Y-95667771D02*
X148439349Y-95667771D01*
X148439349Y-95667771D02*
X148248873Y-95572533D01*
X148248873Y-95572533D02*
X148153635Y-95382057D01*
X148153635Y-95382057D02*
X148153635Y-95286819D01*
X148153635Y-95286819D02*
X148248873Y-95096342D01*
X148248873Y-95096342D02*
X148439349Y-95001104D01*
X148439349Y-95001104D02*
X148725063Y-95001104D01*
X148725063Y-95001104D02*
X148915540Y-95096342D01*
X150725064Y-96334438D02*
X150725064Y-95286819D01*
X150725064Y-95286819D02*
X150629826Y-95096342D01*
X150629826Y-95096342D02*
X150439350Y-95001104D01*
X150439350Y-95001104D02*
X150058397Y-95001104D01*
X150058397Y-95001104D02*
X149867921Y-95096342D01*
X150725064Y-96239200D02*
X150534588Y-96334438D01*
X150534588Y-96334438D02*
X150058397Y-96334438D01*
X150058397Y-96334438D02*
X149867921Y-96239200D01*
X149867921Y-96239200D02*
X149772683Y-96048723D01*
X149772683Y-96048723D02*
X149772683Y-95858247D01*
X149772683Y-95858247D02*
X149867921Y-95667771D01*
X149867921Y-95667771D02*
X150058397Y-95572533D01*
X150058397Y-95572533D02*
X150534588Y-95572533D01*
X150534588Y-95572533D02*
X150725064Y-95477295D01*
X152534588Y-96239200D02*
X152344112Y-96334438D01*
X152344112Y-96334438D02*
X151963159Y-96334438D01*
X151963159Y-96334438D02*
X151772683Y-96239200D01*
X151772683Y-96239200D02*
X151677445Y-96143961D01*
X151677445Y-96143961D02*
X151582207Y-95953485D01*
X151582207Y-95953485D02*
X151582207Y-95382057D01*
X151582207Y-95382057D02*
X151677445Y-95191580D01*
X151677445Y-95191580D02*
X151772683Y-95096342D01*
X151772683Y-95096342D02*
X151963159Y-95001104D01*
X151963159Y-95001104D02*
X152344112Y-95001104D01*
X152344112Y-95001104D02*
X152534588Y-95096342D01*
X153391731Y-96334438D02*
X153391731Y-94334438D01*
X154248874Y-96334438D02*
X154248874Y-95286819D01*
X154248874Y-95286819D02*
X154153636Y-95096342D01*
X154153636Y-95096342D02*
X153963160Y-95001104D01*
X153963160Y-95001104D02*
X153677445Y-95001104D01*
X153677445Y-95001104D02*
X153486969Y-95096342D01*
X153486969Y-95096342D02*
X153391731Y-95191580D01*
X156058398Y-95001104D02*
X156058398Y-96334438D01*
X155201255Y-95001104D02*
X155201255Y-96048723D01*
X155201255Y-96048723D02*
X155296493Y-96239200D01*
X155296493Y-96239200D02*
X155486969Y-96334438D01*
X155486969Y-96334438D02*
X155772684Y-96334438D01*
X155772684Y-96334438D02*
X155963160Y-96239200D01*
X155963160Y-96239200D02*
X156058398Y-96143961D01*
X156915541Y-96239200D02*
X157106017Y-96334438D01*
X157106017Y-96334438D02*
X157486969Y-96334438D01*
X157486969Y-96334438D02*
X157677446Y-96239200D01*
X157677446Y-96239200D02*
X157772684Y-96048723D01*
X157772684Y-96048723D02*
X157772684Y-95953485D01*
X157772684Y-95953485D02*
X157677446Y-95763009D01*
X157677446Y-95763009D02*
X157486969Y-95667771D01*
X157486969Y-95667771D02*
X157201255Y-95667771D01*
X157201255Y-95667771D02*
X157010779Y-95572533D01*
X157010779Y-95572533D02*
X156915541Y-95382057D01*
X156915541Y-95382057D02*
X156915541Y-95286819D01*
X156915541Y-95286819D02*
X157010779Y-95096342D01*
X157010779Y-95096342D02*
X157201255Y-95001104D01*
X157201255Y-95001104D02*
X157486969Y-95001104D01*
X157486969Y-95001104D02*
X157677446Y-95096342D01*
X159391732Y-96239200D02*
X159201256Y-96334438D01*
X159201256Y-96334438D02*
X158820303Y-96334438D01*
X158820303Y-96334438D02*
X158629827Y-96239200D01*
X158629827Y-96239200D02*
X158534589Y-96048723D01*
X158534589Y-96048723D02*
X158534589Y-95286819D01*
X158534589Y-95286819D02*
X158629827Y-95096342D01*
X158629827Y-95096342D02*
X158820303Y-95001104D01*
X158820303Y-95001104D02*
X159201256Y-95001104D01*
X159201256Y-95001104D02*
X159391732Y-95096342D01*
X159391732Y-95096342D02*
X159486970Y-95286819D01*
X159486970Y-95286819D02*
X159486970Y-95477295D01*
X159486970Y-95477295D02*
X158534589Y-95667771D01*
X160058399Y-95001104D02*
X160820303Y-95001104D01*
X160344113Y-94334438D02*
X160344113Y-96048723D01*
X160344113Y-96048723D02*
X160439351Y-96239200D01*
X160439351Y-96239200D02*
X160629827Y-96334438D01*
X160629827Y-96334438D02*
X160820303Y-96334438D01*
X161201256Y-95001104D02*
X161963160Y-95001104D01*
X161486970Y-94334438D02*
X161486970Y-96048723D01*
X161486970Y-96048723D02*
X161582208Y-96239200D01*
X161582208Y-96239200D02*
X161772684Y-96334438D01*
X161772684Y-96334438D02*
X161963160Y-96334438D01*
X162534589Y-96239200D02*
X162725065Y-96334438D01*
X162725065Y-96334438D02*
X163106017Y-96334438D01*
X163106017Y-96334438D02*
X163296494Y-96239200D01*
X163296494Y-96239200D02*
X163391732Y-96048723D01*
X163391732Y-96048723D02*
X163391732Y-95953485D01*
X163391732Y-95953485D02*
X163296494Y-95763009D01*
X163296494Y-95763009D02*
X163106017Y-95667771D01*
X163106017Y-95667771D02*
X162820303Y-95667771D01*
X162820303Y-95667771D02*
X162629827Y-95572533D01*
X162629827Y-95572533D02*
X162534589Y-95382057D01*
X162534589Y-95382057D02*
X162534589Y-95286819D01*
X162534589Y-95286819D02*
X162629827Y-95096342D01*
X162629827Y-95096342D02*
X162820303Y-95001104D01*
X162820303Y-95001104D02*
X163106017Y-95001104D01*
X163106017Y-95001104D02*
X163296494Y-95096342D01*
X166915542Y-96143961D02*
X166820304Y-96239200D01*
X166820304Y-96239200D02*
X166534590Y-96334438D01*
X166534590Y-96334438D02*
X166344114Y-96334438D01*
X166344114Y-96334438D02*
X166058399Y-96239200D01*
X166058399Y-96239200D02*
X165867923Y-96048723D01*
X165867923Y-96048723D02*
X165772685Y-95858247D01*
X165772685Y-95858247D02*
X165677447Y-95477295D01*
X165677447Y-95477295D02*
X165677447Y-95191580D01*
X165677447Y-95191580D02*
X165772685Y-94810628D01*
X165772685Y-94810628D02*
X165867923Y-94620152D01*
X165867923Y-94620152D02*
X166058399Y-94429676D01*
X166058399Y-94429676D02*
X166344114Y-94334438D01*
X166344114Y-94334438D02*
X166534590Y-94334438D01*
X166534590Y-94334438D02*
X166820304Y-94429676D01*
X166820304Y-94429676D02*
X166915542Y-94524914D01*
X168058399Y-96334438D02*
X167867923Y-96239200D01*
X167867923Y-96239200D02*
X167772685Y-96143961D01*
X167772685Y-96143961D02*
X167677447Y-95953485D01*
X167677447Y-95953485D02*
X167677447Y-95382057D01*
X167677447Y-95382057D02*
X167772685Y-95191580D01*
X167772685Y-95191580D02*
X167867923Y-95096342D01*
X167867923Y-95096342D02*
X168058399Y-95001104D01*
X168058399Y-95001104D02*
X168344114Y-95001104D01*
X168344114Y-95001104D02*
X168534590Y-95096342D01*
X168534590Y-95096342D02*
X168629828Y-95191580D01*
X168629828Y-95191580D02*
X168725066Y-95382057D01*
X168725066Y-95382057D02*
X168725066Y-95953485D01*
X168725066Y-95953485D02*
X168629828Y-96143961D01*
X168629828Y-96143961D02*
X168534590Y-96239200D01*
X168534590Y-96239200D02*
X168344114Y-96334438D01*
X168344114Y-96334438D02*
X168058399Y-96334438D01*
X170439352Y-95001104D02*
X170439352Y-96334438D01*
X169582209Y-95001104D02*
X169582209Y-96048723D01*
X169582209Y-96048723D02*
X169677447Y-96239200D01*
X169677447Y-96239200D02*
X169867923Y-96334438D01*
X169867923Y-96334438D02*
X170153638Y-96334438D01*
X170153638Y-96334438D02*
X170344114Y-96239200D01*
X170344114Y-96239200D02*
X170439352Y-96143961D01*
X171391733Y-95001104D02*
X171391733Y-96334438D01*
X171391733Y-95191580D02*
X171486971Y-95096342D01*
X171486971Y-95096342D02*
X171677447Y-95001104D01*
X171677447Y-95001104D02*
X171963162Y-95001104D01*
X171963162Y-95001104D02*
X172153638Y-95096342D01*
X172153638Y-95096342D02*
X172248876Y-95286819D01*
X172248876Y-95286819D02*
X172248876Y-96334438D01*
X172915543Y-95001104D02*
X173677447Y-95001104D01*
X173201257Y-94334438D02*
X173201257Y-96048723D01*
X173201257Y-96048723D02*
X173296495Y-96239200D01*
X173296495Y-96239200D02*
X173486971Y-96334438D01*
X173486971Y-96334438D02*
X173677447Y-96334438D01*
X174153638Y-95001104D02*
X174629828Y-96334438D01*
X175106019Y-95001104D02*
X174629828Y-96334438D01*
X174629828Y-96334438D02*
X174439352Y-96810628D01*
X174439352Y-96810628D02*
X174344114Y-96905866D01*
X174344114Y-96905866D02*
X174153638Y-97001104D01*
X177391734Y-96334438D02*
X177391734Y-94334438D01*
X177391734Y-95286819D02*
X178534591Y-95286819D01*
X178534591Y-96334438D02*
X178534591Y-94334438D01*
X179486972Y-96334438D02*
X179486972Y-95001104D01*
X179486972Y-94334438D02*
X179391734Y-94429676D01*
X179391734Y-94429676D02*
X179486972Y-94524914D01*
X179486972Y-94524914D02*
X179582210Y-94429676D01*
X179582210Y-94429676D02*
X179486972Y-94334438D01*
X179486972Y-94334438D02*
X179486972Y-94524914D01*
X181296496Y-95001104D02*
X181296496Y-96620152D01*
X181296496Y-96620152D02*
X181201258Y-96810628D01*
X181201258Y-96810628D02*
X181106020Y-96905866D01*
X181106020Y-96905866D02*
X180915543Y-97001104D01*
X180915543Y-97001104D02*
X180629829Y-97001104D01*
X180629829Y-97001104D02*
X180439353Y-96905866D01*
X181296496Y-96239200D02*
X181106020Y-96334438D01*
X181106020Y-96334438D02*
X180725067Y-96334438D01*
X180725067Y-96334438D02*
X180534591Y-96239200D01*
X180534591Y-96239200D02*
X180439353Y-96143961D01*
X180439353Y-96143961D02*
X180344115Y-95953485D01*
X180344115Y-95953485D02*
X180344115Y-95382057D01*
X180344115Y-95382057D02*
X180439353Y-95191580D01*
X180439353Y-95191580D02*
X180534591Y-95096342D01*
X180534591Y-95096342D02*
X180725067Y-95001104D01*
X180725067Y-95001104D02*
X181106020Y-95001104D01*
X181106020Y-95001104D02*
X181296496Y-95096342D01*
X182248877Y-96334438D02*
X182248877Y-94334438D01*
X183106020Y-96334438D02*
X183106020Y-95286819D01*
X183106020Y-95286819D02*
X183010782Y-95096342D01*
X183010782Y-95096342D02*
X182820306Y-95001104D01*
X182820306Y-95001104D02*
X182534591Y-95001104D01*
X182534591Y-95001104D02*
X182344115Y-95096342D01*
X182344115Y-95096342D02*
X182248877Y-95191580D01*
X185582211Y-96334438D02*
X185582211Y-94334438D01*
X185582211Y-94334438D02*
X186344116Y-94334438D01*
X186344116Y-94334438D02*
X186534592Y-94429676D01*
X186534592Y-94429676D02*
X186629830Y-94524914D01*
X186629830Y-94524914D02*
X186725068Y-94715390D01*
X186725068Y-94715390D02*
X186725068Y-95001104D01*
X186725068Y-95001104D02*
X186629830Y-95191580D01*
X186629830Y-95191580D02*
X186534592Y-95286819D01*
X186534592Y-95286819D02*
X186344116Y-95382057D01*
X186344116Y-95382057D02*
X185582211Y-95382057D01*
X187867925Y-96334438D02*
X187677449Y-96239200D01*
X187677449Y-96239200D02*
X187582211Y-96143961D01*
X187582211Y-96143961D02*
X187486973Y-95953485D01*
X187486973Y-95953485D02*
X187486973Y-95382057D01*
X187486973Y-95382057D02*
X187582211Y-95191580D01*
X187582211Y-95191580D02*
X187677449Y-95096342D01*
X187677449Y-95096342D02*
X187867925Y-95001104D01*
X187867925Y-95001104D02*
X188153640Y-95001104D01*
X188153640Y-95001104D02*
X188344116Y-95096342D01*
X188344116Y-95096342D02*
X188439354Y-95191580D01*
X188439354Y-95191580D02*
X188534592Y-95382057D01*
X188534592Y-95382057D02*
X188534592Y-95953485D01*
X188534592Y-95953485D02*
X188439354Y-96143961D01*
X188439354Y-96143961D02*
X188344116Y-96239200D01*
X188344116Y-96239200D02*
X188153640Y-96334438D01*
X188153640Y-96334438D02*
X187867925Y-96334438D01*
X189391735Y-96334438D02*
X189391735Y-95001104D01*
X189391735Y-94334438D02*
X189296497Y-94429676D01*
X189296497Y-94429676D02*
X189391735Y-94524914D01*
X189391735Y-94524914D02*
X189486973Y-94429676D01*
X189486973Y-94429676D02*
X189391735Y-94334438D01*
X189391735Y-94334438D02*
X189391735Y-94524914D01*
X190344116Y-95001104D02*
X190344116Y-96334438D01*
X190344116Y-95191580D02*
X190439354Y-95096342D01*
X190439354Y-95096342D02*
X190629830Y-95001104D01*
X190629830Y-95001104D02*
X190915545Y-95001104D01*
X190915545Y-95001104D02*
X191106021Y-95096342D01*
X191106021Y-95096342D02*
X191201259Y-95286819D01*
X191201259Y-95286819D02*
X191201259Y-96334438D01*
X191867926Y-95001104D02*
X192629830Y-95001104D01*
X192153640Y-94334438D02*
X192153640Y-96048723D01*
X192153640Y-96048723D02*
X192248878Y-96239200D01*
X192248878Y-96239200D02*
X192439354Y-96334438D01*
X192439354Y-96334438D02*
X192629830Y-96334438D01*
X193201259Y-96239200D02*
X193391735Y-96334438D01*
X193391735Y-96334438D02*
X193772687Y-96334438D01*
X193772687Y-96334438D02*
X193963164Y-96239200D01*
X193963164Y-96239200D02*
X194058402Y-96048723D01*
X194058402Y-96048723D02*
X194058402Y-95953485D01*
X194058402Y-95953485D02*
X193963164Y-95763009D01*
X193963164Y-95763009D02*
X193772687Y-95667771D01*
X193772687Y-95667771D02*
X193486973Y-95667771D01*
X193486973Y-95667771D02*
X193296497Y-95572533D01*
X193296497Y-95572533D02*
X193201259Y-95382057D01*
X193201259Y-95382057D02*
X193201259Y-95286819D01*
X193201259Y-95286819D02*
X193296497Y-95096342D01*
X193296497Y-95096342D02*
X193486973Y-95001104D01*
X193486973Y-95001104D02*
X193772687Y-95001104D01*
X193772687Y-95001104D02*
X193963164Y-95096342D01*
D10*
X141008646Y-106772419D02*
X141246741Y-107772419D01*
X141246741Y-107772419D02*
X141437217Y-107058133D01*
X141437217Y-107058133D02*
X141627693Y-107772419D01*
X141627693Y-107772419D02*
X141865789Y-106772419D01*
X142627693Y-107724800D02*
X142532455Y-107772419D01*
X142532455Y-107772419D02*
X142341979Y-107772419D01*
X142341979Y-107772419D02*
X142246741Y-107724800D01*
X142246741Y-107724800D02*
X142199122Y-107629561D01*
X142199122Y-107629561D02*
X142199122Y-107248609D01*
X142199122Y-107248609D02*
X142246741Y-107153371D01*
X142246741Y-107153371D02*
X142341979Y-107105752D01*
X142341979Y-107105752D02*
X142532455Y-107105752D01*
X142532455Y-107105752D02*
X142627693Y-107153371D01*
X142627693Y-107153371D02*
X142675312Y-107248609D01*
X142675312Y-107248609D02*
X142675312Y-107343847D01*
X142675312Y-107343847D02*
X142199122Y-107439085D01*
X143056265Y-107724800D02*
X143151503Y-107772419D01*
X143151503Y-107772419D02*
X143341979Y-107772419D01*
X143341979Y-107772419D02*
X143437217Y-107724800D01*
X143437217Y-107724800D02*
X143484836Y-107629561D01*
X143484836Y-107629561D02*
X143484836Y-107581942D01*
X143484836Y-107581942D02*
X143437217Y-107486704D01*
X143437217Y-107486704D02*
X143341979Y-107439085D01*
X143341979Y-107439085D02*
X143199122Y-107439085D01*
X143199122Y-107439085D02*
X143103884Y-107391466D01*
X143103884Y-107391466D02*
X143056265Y-107296228D01*
X143056265Y-107296228D02*
X143056265Y-107248609D01*
X143056265Y-107248609D02*
X143103884Y-107153371D01*
X143103884Y-107153371D02*
X143199122Y-107105752D01*
X143199122Y-107105752D02*
X143341979Y-107105752D01*
X143341979Y-107105752D02*
X143437217Y-107153371D01*
X143770551Y-107105752D02*
X144151503Y-107105752D01*
X143913408Y-106772419D02*
X143913408Y-107629561D01*
X143913408Y-107629561D02*
X143961027Y-107724800D01*
X143961027Y-107724800D02*
X144056265Y-107772419D01*
X144056265Y-107772419D02*
X144151503Y-107772419D01*
X145246742Y-107772419D02*
X145246742Y-106772419D01*
X145246742Y-106772419D02*
X145580075Y-107486704D01*
X145580075Y-107486704D02*
X145913408Y-106772419D01*
X145913408Y-106772419D02*
X145913408Y-107772419D01*
X146532456Y-107772419D02*
X146437218Y-107724800D01*
X146437218Y-107724800D02*
X146389599Y-107677180D01*
X146389599Y-107677180D02*
X146341980Y-107581942D01*
X146341980Y-107581942D02*
X146341980Y-107296228D01*
X146341980Y-107296228D02*
X146389599Y-107200990D01*
X146389599Y-107200990D02*
X146437218Y-107153371D01*
X146437218Y-107153371D02*
X146532456Y-107105752D01*
X146532456Y-107105752D02*
X146675313Y-107105752D01*
X146675313Y-107105752D02*
X146770551Y-107153371D01*
X146770551Y-107153371D02*
X146818170Y-107200990D01*
X146818170Y-107200990D02*
X146865789Y-107296228D01*
X146865789Y-107296228D02*
X146865789Y-107581942D01*
X146865789Y-107581942D02*
X146818170Y-107677180D01*
X146818170Y-107677180D02*
X146770551Y-107724800D01*
X146770551Y-107724800D02*
X146675313Y-107772419D01*
X146675313Y-107772419D02*
X146532456Y-107772419D01*
X147722932Y-107105752D02*
X147722932Y-107772419D01*
X147294361Y-107105752D02*
X147294361Y-107629561D01*
X147294361Y-107629561D02*
X147341980Y-107724800D01*
X147341980Y-107724800D02*
X147437218Y-107772419D01*
X147437218Y-107772419D02*
X147580075Y-107772419D01*
X147580075Y-107772419D02*
X147675313Y-107724800D01*
X147675313Y-107724800D02*
X147722932Y-107677180D01*
X148199123Y-107105752D02*
X148199123Y-107772419D01*
X148199123Y-107200990D02*
X148246742Y-107153371D01*
X148246742Y-107153371D02*
X148341980Y-107105752D01*
X148341980Y-107105752D02*
X148484837Y-107105752D01*
X148484837Y-107105752D02*
X148580075Y-107153371D01*
X148580075Y-107153371D02*
X148627694Y-107248609D01*
X148627694Y-107248609D02*
X148627694Y-107772419D01*
X148961028Y-107105752D02*
X149341980Y-107105752D01*
X149103885Y-106772419D02*
X149103885Y-107629561D01*
X149103885Y-107629561D02*
X149151504Y-107724800D01*
X149151504Y-107724800D02*
X149246742Y-107772419D01*
X149246742Y-107772419D02*
X149341980Y-107772419D01*
X150103885Y-107772419D02*
X150103885Y-107248609D01*
X150103885Y-107248609D02*
X150056266Y-107153371D01*
X150056266Y-107153371D02*
X149961028Y-107105752D01*
X149961028Y-107105752D02*
X149770552Y-107105752D01*
X149770552Y-107105752D02*
X149675314Y-107153371D01*
X150103885Y-107724800D02*
X150008647Y-107772419D01*
X150008647Y-107772419D02*
X149770552Y-107772419D01*
X149770552Y-107772419D02*
X149675314Y-107724800D01*
X149675314Y-107724800D02*
X149627695Y-107629561D01*
X149627695Y-107629561D02*
X149627695Y-107534323D01*
X149627695Y-107534323D02*
X149675314Y-107439085D01*
X149675314Y-107439085D02*
X149770552Y-107391466D01*
X149770552Y-107391466D02*
X150008647Y-107391466D01*
X150008647Y-107391466D02*
X150103885Y-107343847D01*
X150580076Y-107772419D02*
X150580076Y-107105752D01*
X150580076Y-106772419D02*
X150532457Y-106820038D01*
X150532457Y-106820038D02*
X150580076Y-106867657D01*
X150580076Y-106867657D02*
X150627695Y-106820038D01*
X150627695Y-106820038D02*
X150580076Y-106772419D01*
X150580076Y-106772419D02*
X150580076Y-106867657D01*
X151056266Y-107105752D02*
X151056266Y-107772419D01*
X151056266Y-107200990D02*
X151103885Y-107153371D01*
X151103885Y-107153371D02*
X151199123Y-107105752D01*
X151199123Y-107105752D02*
X151341980Y-107105752D01*
X151341980Y-107105752D02*
X151437218Y-107153371D01*
X151437218Y-107153371D02*
X151484837Y-107248609D01*
X151484837Y-107248609D02*
X151484837Y-107772419D01*
X134303884Y-104807419D02*
X134303884Y-103807419D01*
X134303884Y-103807419D02*
X134637217Y-104521704D01*
X134637217Y-104521704D02*
X134970550Y-103807419D01*
X134970550Y-103807419D02*
X134970550Y-104807419D01*
X135589598Y-104807419D02*
X135494360Y-104759800D01*
X135494360Y-104759800D02*
X135446741Y-104712180D01*
X135446741Y-104712180D02*
X135399122Y-104616942D01*
X135399122Y-104616942D02*
X135399122Y-104331228D01*
X135399122Y-104331228D02*
X135446741Y-104235990D01*
X135446741Y-104235990D02*
X135494360Y-104188371D01*
X135494360Y-104188371D02*
X135589598Y-104140752D01*
X135589598Y-104140752D02*
X135732455Y-104140752D01*
X135732455Y-104140752D02*
X135827693Y-104188371D01*
X135827693Y-104188371D02*
X135875312Y-104235990D01*
X135875312Y-104235990D02*
X135922931Y-104331228D01*
X135922931Y-104331228D02*
X135922931Y-104616942D01*
X135922931Y-104616942D02*
X135875312Y-104712180D01*
X135875312Y-104712180D02*
X135827693Y-104759800D01*
X135827693Y-104759800D02*
X135732455Y-104807419D01*
X135732455Y-104807419D02*
X135589598Y-104807419D01*
X136780074Y-104140752D02*
X136780074Y-104807419D01*
X136351503Y-104140752D02*
X136351503Y-104664561D01*
X136351503Y-104664561D02*
X136399122Y-104759800D01*
X136399122Y-104759800D02*
X136494360Y-104807419D01*
X136494360Y-104807419D02*
X136637217Y-104807419D01*
X136637217Y-104807419D02*
X136732455Y-104759800D01*
X136732455Y-104759800D02*
X136780074Y-104712180D01*
X137256265Y-104140752D02*
X137256265Y-104807419D01*
X137256265Y-104235990D02*
X137303884Y-104188371D01*
X137303884Y-104188371D02*
X137399122Y-104140752D01*
X137399122Y-104140752D02*
X137541979Y-104140752D01*
X137541979Y-104140752D02*
X137637217Y-104188371D01*
X137637217Y-104188371D02*
X137684836Y-104283609D01*
X137684836Y-104283609D02*
X137684836Y-104807419D01*
X138018170Y-104140752D02*
X138399122Y-104140752D01*
X138161027Y-103807419D02*
X138161027Y-104664561D01*
X138161027Y-104664561D02*
X138208646Y-104759800D01*
X138208646Y-104759800D02*
X138303884Y-104807419D01*
X138303884Y-104807419D02*
X138399122Y-104807419D01*
X140018170Y-103855038D02*
X139922932Y-103807419D01*
X139922932Y-103807419D02*
X139780075Y-103807419D01*
X139780075Y-103807419D02*
X139637218Y-103855038D01*
X139637218Y-103855038D02*
X139541980Y-103950276D01*
X139541980Y-103950276D02*
X139494361Y-104045514D01*
X139494361Y-104045514D02*
X139446742Y-104235990D01*
X139446742Y-104235990D02*
X139446742Y-104378847D01*
X139446742Y-104378847D02*
X139494361Y-104569323D01*
X139494361Y-104569323D02*
X139541980Y-104664561D01*
X139541980Y-104664561D02*
X139637218Y-104759800D01*
X139637218Y-104759800D02*
X139780075Y-104807419D01*
X139780075Y-104807419D02*
X139875313Y-104807419D01*
X139875313Y-104807419D02*
X140018170Y-104759800D01*
X140018170Y-104759800D02*
X140065789Y-104712180D01*
X140065789Y-104712180D02*
X140065789Y-104378847D01*
X140065789Y-104378847D02*
X139875313Y-104378847D01*
X140494361Y-104807419D02*
X140494361Y-104140752D01*
X140494361Y-104331228D02*
X140541980Y-104235990D01*
X140541980Y-104235990D02*
X140589599Y-104188371D01*
X140589599Y-104188371D02*
X140684837Y-104140752D01*
X140684837Y-104140752D02*
X140780075Y-104140752D01*
X141494361Y-104759800D02*
X141399123Y-104807419D01*
X141399123Y-104807419D02*
X141208647Y-104807419D01*
X141208647Y-104807419D02*
X141113409Y-104759800D01*
X141113409Y-104759800D02*
X141065790Y-104664561D01*
X141065790Y-104664561D02*
X141065790Y-104283609D01*
X141065790Y-104283609D02*
X141113409Y-104188371D01*
X141113409Y-104188371D02*
X141208647Y-104140752D01*
X141208647Y-104140752D02*
X141399123Y-104140752D01*
X141399123Y-104140752D02*
X141494361Y-104188371D01*
X141494361Y-104188371D02*
X141541980Y-104283609D01*
X141541980Y-104283609D02*
X141541980Y-104378847D01*
X141541980Y-104378847D02*
X141065790Y-104474085D01*
X141875314Y-104140752D02*
X142113409Y-104807419D01*
X142351504Y-104140752D02*
X142113409Y-104807419D01*
X142113409Y-104807419D02*
X142018171Y-105045514D01*
X142018171Y-105045514D02*
X141970552Y-105093133D01*
X141970552Y-105093133D02*
X141875314Y-105140752D01*
X142875314Y-104807419D02*
X142780076Y-104759800D01*
X142780076Y-104759800D02*
X142732457Y-104664561D01*
X142732457Y-104664561D02*
X142732457Y-103807419D01*
X143399124Y-104807419D02*
X143303886Y-104759800D01*
X143303886Y-104759800D02*
X143256267Y-104712180D01*
X143256267Y-104712180D02*
X143208648Y-104616942D01*
X143208648Y-104616942D02*
X143208648Y-104331228D01*
X143208648Y-104331228D02*
X143256267Y-104235990D01*
X143256267Y-104235990D02*
X143303886Y-104188371D01*
X143303886Y-104188371D02*
X143399124Y-104140752D01*
X143399124Y-104140752D02*
X143541981Y-104140752D01*
X143541981Y-104140752D02*
X143637219Y-104188371D01*
X143637219Y-104188371D02*
X143684838Y-104235990D01*
X143684838Y-104235990D02*
X143732457Y-104331228D01*
X143732457Y-104331228D02*
X143732457Y-104616942D01*
X143732457Y-104616942D02*
X143684838Y-104712180D01*
X143684838Y-104712180D02*
X143637219Y-104759800D01*
X143637219Y-104759800D02*
X143541981Y-104807419D01*
X143541981Y-104807419D02*
X143399124Y-104807419D01*
X144589600Y-104759800D02*
X144494362Y-104807419D01*
X144494362Y-104807419D02*
X144303886Y-104807419D01*
X144303886Y-104807419D02*
X144208648Y-104759800D01*
X144208648Y-104759800D02*
X144161029Y-104712180D01*
X144161029Y-104712180D02*
X144113410Y-104616942D01*
X144113410Y-104616942D02*
X144113410Y-104331228D01*
X144113410Y-104331228D02*
X144161029Y-104235990D01*
X144161029Y-104235990D02*
X144208648Y-104188371D01*
X144208648Y-104188371D02*
X144303886Y-104140752D01*
X144303886Y-104140752D02*
X144494362Y-104140752D01*
X144494362Y-104140752D02*
X144589600Y-104188371D01*
X145018172Y-104807419D02*
X145018172Y-103807419D01*
X145113410Y-104426466D02*
X145399124Y-104807419D01*
X145399124Y-104140752D02*
X145018172Y-104521704D01*
X139075312Y-103177180D02*
X139027693Y-103224800D01*
X139027693Y-103224800D02*
X138884836Y-103272419D01*
X138884836Y-103272419D02*
X138789598Y-103272419D01*
X138789598Y-103272419D02*
X138646741Y-103224800D01*
X138646741Y-103224800D02*
X138551503Y-103129561D01*
X138551503Y-103129561D02*
X138503884Y-103034323D01*
X138503884Y-103034323D02*
X138456265Y-102843847D01*
X138456265Y-102843847D02*
X138456265Y-102700990D01*
X138456265Y-102700990D02*
X138503884Y-102510514D01*
X138503884Y-102510514D02*
X138551503Y-102415276D01*
X138551503Y-102415276D02*
X138646741Y-102320038D01*
X138646741Y-102320038D02*
X138789598Y-102272419D01*
X138789598Y-102272419D02*
X138884836Y-102272419D01*
X138884836Y-102272419D02*
X139027693Y-102320038D01*
X139027693Y-102320038D02*
X139075312Y-102367657D01*
X139503884Y-103272419D02*
X139503884Y-102605752D01*
X139503884Y-102796228D02*
X139551503Y-102700990D01*
X139551503Y-102700990D02*
X139599122Y-102653371D01*
X139599122Y-102653371D02*
X139694360Y-102605752D01*
X139694360Y-102605752D02*
X139789598Y-102605752D01*
X140551503Y-102605752D02*
X140551503Y-103272419D01*
X140122932Y-102605752D02*
X140122932Y-103129561D01*
X140122932Y-103129561D02*
X140170551Y-103224800D01*
X140170551Y-103224800D02*
X140265789Y-103272419D01*
X140265789Y-103272419D02*
X140408646Y-103272419D01*
X140408646Y-103272419D02*
X140503884Y-103224800D01*
X140503884Y-103224800D02*
X140551503Y-103177180D01*
X141027694Y-103272419D02*
X141027694Y-102605752D01*
X141027694Y-102700990D02*
X141075313Y-102653371D01*
X141075313Y-102653371D02*
X141170551Y-102605752D01*
X141170551Y-102605752D02*
X141313408Y-102605752D01*
X141313408Y-102605752D02*
X141408646Y-102653371D01*
X141408646Y-102653371D02*
X141456265Y-102748609D01*
X141456265Y-102748609D02*
X141456265Y-103272419D01*
X141456265Y-102748609D02*
X141503884Y-102653371D01*
X141503884Y-102653371D02*
X141599122Y-102605752D01*
X141599122Y-102605752D02*
X141741979Y-102605752D01*
X141741979Y-102605752D02*
X141837218Y-102653371D01*
X141837218Y-102653371D02*
X141884837Y-102748609D01*
X141884837Y-102748609D02*
X141884837Y-103272419D01*
X143122932Y-103272419D02*
X143122932Y-102272419D01*
X143122932Y-102748609D02*
X143694360Y-102748609D01*
X143694360Y-103272419D02*
X143694360Y-102272419D01*
X144170551Y-103272419D02*
X144170551Y-102605752D01*
X144170551Y-102272419D02*
X144122932Y-102320038D01*
X144122932Y-102320038D02*
X144170551Y-102367657D01*
X144170551Y-102367657D02*
X144218170Y-102320038D01*
X144218170Y-102320038D02*
X144170551Y-102272419D01*
X144170551Y-102272419D02*
X144170551Y-102367657D01*
X144789598Y-103272419D02*
X144694360Y-103224800D01*
X144694360Y-103224800D02*
X144646741Y-103129561D01*
X144646741Y-103129561D02*
X144646741Y-102272419D01*
X145313408Y-103272419D02*
X145218170Y-103224800D01*
X145218170Y-103224800D02*
X145170551Y-103129561D01*
X145170551Y-103129561D02*
X145170551Y-102272419D01*
D12*
X319758738Y-206056516D02*
X319615881Y-205985087D01*
X319615881Y-205985087D02*
X319401595Y-205985087D01*
X319401595Y-205985087D02*
X319187309Y-206056516D01*
X319187309Y-206056516D02*
X319044452Y-206199373D01*
X319044452Y-206199373D02*
X318973023Y-206342230D01*
X318973023Y-206342230D02*
X318901595Y-206627944D01*
X318901595Y-206627944D02*
X318901595Y-206842230D01*
X318901595Y-206842230D02*
X318973023Y-207127944D01*
X318973023Y-207127944D02*
X319044452Y-207270801D01*
X319044452Y-207270801D02*
X319187309Y-207413659D01*
X319187309Y-207413659D02*
X319401595Y-207485087D01*
X319401595Y-207485087D02*
X319544452Y-207485087D01*
X319544452Y-207485087D02*
X319758738Y-207413659D01*
X319758738Y-207413659D02*
X319830166Y-207342230D01*
X319830166Y-207342230D02*
X319830166Y-206842230D01*
X319830166Y-206842230D02*
X319544452Y-206842230D01*
X320687309Y-205985087D02*
X320687309Y-206342230D01*
X320330166Y-206199373D02*
X320687309Y-206342230D01*
X320687309Y-206342230D02*
X321044452Y-206199373D01*
X320473023Y-206627944D02*
X320687309Y-206342230D01*
X320687309Y-206342230D02*
X320901595Y-206627944D01*
X321830166Y-205985087D02*
X321830166Y-206342230D01*
X321473023Y-206199373D02*
X321830166Y-206342230D01*
X321830166Y-206342230D02*
X322187309Y-206199373D01*
X321615880Y-206627944D02*
X321830166Y-206342230D01*
X321830166Y-206342230D02*
X322044452Y-206627944D01*
X322973023Y-205985087D02*
X322973023Y-206342230D01*
X322615880Y-206199373D02*
X322973023Y-206342230D01*
X322973023Y-206342230D02*
X323330166Y-206199373D01*
X322758737Y-206627944D02*
X322973023Y-206342230D01*
X322973023Y-206342230D02*
X323187309Y-206627944D01*
D13*
%TO.C,S1*%
X143985000Y-132800000D02*
X140875000Y-132800000D01*
X140180000Y-131430000D02*
X140180000Y-129670000D01*
X143985000Y-128300000D02*
X140875000Y-128300000D01*
X144680000Y-131430000D02*
X144680000Y-129670000D01*
D14*
X145756000Y-132300000D02*
G75*
G02*
X145556000Y-132300000I-100000J0D01*
G01*
X145556000Y-132300000D02*
G75*
G02*
X145756000Y-132300000I100000J0D01*
G01*
D15*
%TO.C,D4*%
X157215000Y-107565000D02*
X157215000Y-109035000D01*
X157215000Y-109035000D02*
X159675000Y-109035000D01*
X159675000Y-107565000D02*
X157215000Y-107565000D01*
%TO.C,D1*%
X130716126Y-103465000D02*
X130716126Y-104935000D01*
X130716126Y-104935000D02*
X133176126Y-104935000D01*
X133176126Y-103465000D02*
X130716126Y-103465000D01*
%TO.C,D5*%
X134875000Y-116335000D02*
X137335000Y-116335000D01*
X137335000Y-114865000D02*
X134875000Y-114865000D01*
X137335000Y-116335000D02*
X137335000Y-114865000D01*
%TO.C,D2*%
X134815000Y-102065000D02*
X134815000Y-103535000D01*
X134815000Y-103535000D02*
X137275000Y-103535000D01*
X137275000Y-102065000D02*
X134815000Y-102065000D01*
D16*
%TO.C,G\u002A\u002A\u002A*%
G36*
X189427051Y-136522710D02*
G01*
X189474249Y-137134662D01*
X189474871Y-137212463D01*
X189454877Y-137670546D01*
X189357417Y-137881091D01*
X189132894Y-137936359D01*
X189085400Y-137936959D01*
X188684660Y-137852751D01*
X188488756Y-137732396D01*
X188308127Y-137439892D01*
X188332761Y-137296269D01*
X188562983Y-137296269D01*
X188650860Y-137541785D01*
X188955509Y-137769433D01*
X189187186Y-137682354D01*
X189301810Y-137305535D01*
X189307011Y-137169845D01*
X189253159Y-136720585D01*
X189095292Y-136594869D01*
X188838944Y-136794833D01*
X188724888Y-136945140D01*
X188562983Y-137296269D01*
X188332761Y-137296269D01*
X188366138Y-137101666D01*
X188678762Y-136642767D01*
X188735554Y-136574356D01*
X189070323Y-136253448D01*
X189296616Y-136232602D01*
X189427051Y-136522710D01*
G37*
G36*
X199457958Y-130480883D02*
G01*
X199459616Y-130817661D01*
X199333771Y-131338062D01*
X199123352Y-131930426D01*
X198871290Y-132483094D01*
X198620514Y-132884406D01*
X198486718Y-133007069D01*
X198237592Y-133089747D01*
X198171441Y-133045566D01*
X198232206Y-132800169D01*
X198311708Y-132567161D01*
X198512380Y-132567161D01*
X198597615Y-132652396D01*
X198682850Y-132567161D01*
X198597615Y-132481926D01*
X198512380Y-132567161D01*
X198311708Y-132567161D01*
X198388422Y-132342323D01*
X198600968Y-131772841D01*
X198830723Y-131192532D01*
X198970635Y-130862463D01*
X199194260Y-130862463D01*
X199279494Y-130947698D01*
X199364729Y-130862463D01*
X199279494Y-130777228D01*
X199194260Y-130862463D01*
X198970635Y-130862463D01*
X199038566Y-130702206D01*
X199185377Y-130402675D01*
X199211603Y-130365165D01*
X199377629Y-130352541D01*
X199457958Y-130480883D01*
G37*
G36*
X186942772Y-135220672D02*
G01*
X187268814Y-135430136D01*
X187376899Y-135712913D01*
X187250547Y-135989602D01*
X187114933Y-136172642D01*
X187146231Y-136292917D01*
X187401867Y-136429845D01*
X187644931Y-136535029D01*
X188000753Y-136780535D01*
X188112285Y-137174926D01*
X188113723Y-137251426D01*
X188126648Y-137657178D01*
X188156340Y-137888950D01*
X188109025Y-137963370D01*
X187890006Y-138042181D01*
X187461648Y-138132775D01*
X186786315Y-138242540D01*
X185826369Y-138378867D01*
X185300971Y-138449591D01*
X184568797Y-138567326D01*
X183930368Y-138706482D01*
X183487994Y-138843384D01*
X183389183Y-138892003D01*
X182754810Y-139129978D01*
X182160932Y-139049202D01*
X181666837Y-138659440D01*
X181623320Y-138601213D01*
X181461998Y-138289332D01*
X181684889Y-138289332D01*
X181869621Y-138594266D01*
X181890629Y-138617793D01*
X182348814Y-138919370D01*
X182876713Y-138887540D01*
X183218714Y-138714218D01*
X183544344Y-138586339D01*
X184118618Y-138436574D01*
X184851424Y-138281554D01*
X185652649Y-138137912D01*
X186432180Y-138022280D01*
X187099904Y-137951288D01*
X187430008Y-137936959D01*
X187807838Y-137881731D01*
X187939289Y-137681387D01*
X187943253Y-137609962D01*
X187852142Y-137074483D01*
X187534808Y-136732725D01*
X187149933Y-136564552D01*
X186773868Y-136421334D01*
X186675317Y-136291355D01*
X186803046Y-136097503D01*
X186824067Y-136074092D01*
X187068102Y-135686911D01*
X187043549Y-135443938D01*
X186811275Y-135401631D01*
X186432145Y-135616444D01*
X186379830Y-135662038D01*
X186148620Y-135849230D01*
X186073984Y-135798035D01*
X186068085Y-135662038D01*
X185961353Y-135410697D01*
X185663692Y-135398522D01*
X185208905Y-135608288D01*
X184630795Y-136022771D01*
X183963164Y-136624749D01*
X183743556Y-136846481D01*
X183100899Y-137461993D01*
X182580380Y-137858693D01*
X182237174Y-138005159D01*
X181801652Y-138103136D01*
X181684889Y-138289332D01*
X181461998Y-138289332D01*
X181403041Y-138175351D01*
X181477119Y-137908543D01*
X181856100Y-137783630D01*
X182134711Y-137769100D01*
X182493420Y-137642375D01*
X183008278Y-137257327D01*
X183664389Y-136633832D01*
X184222884Y-136101422D01*
X184761252Y-135646906D01*
X185192173Y-135341945D01*
X185318473Y-135276378D01*
X185901444Y-135119371D01*
X186464929Y-135108943D01*
X186942772Y-135220672D01*
G37*
G36*
X198088787Y-137186247D02*
G01*
X198408442Y-137680088D01*
X198772053Y-138406902D01*
X199141670Y-139264274D01*
X199330900Y-139884296D01*
X199337768Y-140320152D01*
X199160300Y-140625024D01*
X198796518Y-140852094D01*
X198679400Y-140901671D01*
X198254244Y-141063872D01*
X197990798Y-141149364D01*
X197954904Y-141153482D01*
X197779282Y-141122882D01*
X197357926Y-141064623D01*
X196807682Y-140994522D01*
X196073172Y-140872650D01*
X195334599Y-140697836D01*
X194671935Y-140495325D01*
X194165152Y-140290366D01*
X193925519Y-140129248D01*
X194556871Y-140129248D01*
X194659715Y-140211640D01*
X194847280Y-140298230D01*
X195638140Y-140563095D01*
X196536732Y-140737022D01*
X197434839Y-140810641D01*
X198224246Y-140774578D01*
X198760064Y-140637113D01*
X199079617Y-140391559D01*
X199194260Y-140131487D01*
X199127687Y-139793506D01*
X198964788Y-139357754D01*
X198760792Y-138942930D01*
X198570926Y-138667730D01*
X198490445Y-138618839D01*
X198325138Y-138750839D01*
X198093344Y-139073144D01*
X198066264Y-139118101D01*
X197839538Y-139437364D01*
X197557678Y-139656846D01*
X197148545Y-139802664D01*
X196539999Y-139900936D01*
X195699629Y-139974904D01*
X195034674Y-140026870D01*
X194667806Y-140072988D01*
X194556871Y-140129248D01*
X193925519Y-140129248D01*
X193894221Y-140108205D01*
X193872319Y-140067832D01*
X194009153Y-139979874D01*
X194434126Y-139898697D01*
X195094443Y-139832979D01*
X195428253Y-139812127D01*
X196188875Y-139763360D01*
X196671653Y-139704899D01*
X196939641Y-139621731D01*
X197055892Y-139498844D01*
X197066008Y-139460088D01*
X197360887Y-139460088D01*
X197384205Y-139471188D01*
X197539774Y-139351180D01*
X197574796Y-139300718D01*
X197618236Y-139141347D01*
X197594918Y-139130248D01*
X197439349Y-139250255D01*
X197404327Y-139300718D01*
X197360887Y-139460088D01*
X197066008Y-139460088D01*
X197076555Y-139419677D01*
X197201739Y-139049101D01*
X197390548Y-138701178D01*
X197467078Y-138510480D01*
X197779134Y-138510480D01*
X197839584Y-138660323D01*
X198016363Y-138610390D01*
X198040531Y-138597667D01*
X198287470Y-138412173D01*
X198339583Y-138314519D01*
X198280875Y-137962247D01*
X198154958Y-137617361D01*
X198019624Y-137430704D01*
X197998994Y-137425550D01*
X197900724Y-137576601D01*
X197818947Y-137952968D01*
X197802731Y-138092255D01*
X197779134Y-138510480D01*
X197467078Y-138510480D01*
X197569110Y-138256238D01*
X197657863Y-137697145D01*
X197660031Y-137607368D01*
X197709399Y-137146161D01*
X197854045Y-137007029D01*
X198088787Y-137186247D01*
G37*
G36*
X180214475Y-97975242D02*
G01*
X180395697Y-97988779D01*
X181091139Y-98052268D01*
X181518346Y-98126283D01*
X181749801Y-98233647D01*
X181857986Y-98397184D01*
X181875699Y-98454805D01*
X181966100Y-99005318D01*
X181856714Y-99348057D01*
X181593253Y-99536682D01*
X181209696Y-99714680D01*
X181662368Y-99893324D01*
X181987596Y-100116760D01*
X182268842Y-100548435D01*
X182484443Y-101059286D01*
X182671398Y-101649108D01*
X182775945Y-102161999D01*
X182781419Y-102425484D01*
X182803478Y-102724709D01*
X183065135Y-102922407D01*
X183225525Y-102984429D01*
X183564050Y-103119119D01*
X183614081Y-103232760D01*
X183413461Y-103406337D01*
X183203897Y-103598159D01*
X183275656Y-103698789D01*
X183340568Y-103719744D01*
X183675887Y-103821100D01*
X184133551Y-103967335D01*
X184150300Y-103972816D01*
X184529773Y-104071328D01*
X184684149Y-104018850D01*
X184704327Y-103905287D01*
X184823192Y-103639619D01*
X185105833Y-103294282D01*
X185441312Y-102984172D01*
X185718695Y-102824184D01*
X185752038Y-102820181D01*
X185882144Y-102958199D01*
X185897615Y-103069888D01*
X186032966Y-103341187D01*
X186238555Y-103502060D01*
X186547889Y-103822853D01*
X186588075Y-104248459D01*
X186373272Y-104694019D01*
X185982532Y-105036485D01*
X185558256Y-105251598D01*
X185231897Y-105335846D01*
X185172801Y-105327790D01*
X184895548Y-105369565D01*
X184619092Y-105541938D01*
X184323732Y-105715167D01*
X183785935Y-105959906D01*
X183087138Y-106241144D01*
X182445602Y-106476369D01*
X181718942Y-106744553D01*
X181128593Y-106987854D01*
X180738942Y-107178001D01*
X180613051Y-107281001D01*
X180717414Y-107367853D01*
X180774968Y-107342917D01*
X180964855Y-107395584D01*
X181137491Y-107617683D01*
X181249641Y-107940017D01*
X181122514Y-108151505D01*
X181090280Y-108176484D01*
X180806305Y-108400511D01*
X180403464Y-108732493D01*
X180280929Y-108835614D01*
X179940750Y-109144442D01*
X179833726Y-109343744D01*
X179923600Y-109532938D01*
X179996126Y-109616562D01*
X180154687Y-109915403D01*
X180062602Y-110105300D01*
X179800773Y-110156780D01*
X179450101Y-110040369D01*
X179244541Y-109890377D01*
X178940942Y-109733666D01*
X178743115Y-109866055D01*
X178675451Y-110245557D01*
X178743473Y-110752859D01*
X178865861Y-111330768D01*
X178861548Y-111648718D01*
X178682358Y-111778520D01*
X178280115Y-111791987D01*
X178053563Y-111781275D01*
X177559310Y-111764448D01*
X177347379Y-111797538D01*
X177360063Y-111905563D01*
X177468023Y-112035123D01*
X177628115Y-112321689D01*
X177555700Y-112444861D01*
X177378570Y-112665237D01*
X177499911Y-112838829D01*
X177715065Y-112877899D01*
X177982417Y-112977782D01*
X178056004Y-113304073D01*
X178136491Y-113638873D01*
X178393696Y-113730248D01*
X178710644Y-113883264D01*
X178840903Y-114166590D01*
X178983374Y-114474755D01*
X179212524Y-114489723D01*
X179227708Y-114483420D01*
X179605876Y-114363636D01*
X179973790Y-114283435D01*
X180316897Y-114198261D01*
X180410780Y-114044850D01*
X180282638Y-113730833D01*
X180186877Y-113559778D01*
X179969391Y-113106785D01*
X179974257Y-112908379D01*
X180193913Y-112967396D01*
X180620798Y-113286668D01*
X180709763Y-113363797D01*
X181220052Y-113757641D01*
X181718901Y-114054025D01*
X181997466Y-114160959D01*
X182469037Y-114358033D01*
X182956000Y-114707723D01*
X183393670Y-115139178D01*
X183717361Y-115581546D01*
X183862389Y-115963974D01*
X183822008Y-116159443D01*
X183900569Y-116307020D01*
X184136096Y-116666070D01*
X184485528Y-117171970D01*
X184674357Y-117438583D01*
X185070731Y-118024408D01*
X185374852Y-118531619D01*
X185539991Y-118879757D01*
X185556676Y-118957834D01*
X185639160Y-119263056D01*
X185849110Y-119723260D01*
X185995701Y-119989702D01*
X186249445Y-120469453D01*
X186320779Y-120769653D01*
X186231100Y-120984071D01*
X186224465Y-120992192D01*
X185902809Y-121196261D01*
X185615225Y-121109220D01*
X185473368Y-120771954D01*
X185471441Y-120716460D01*
X185412358Y-120378817D01*
X185765182Y-120378817D01*
X185826230Y-120608897D01*
X185990159Y-120797747D01*
X186094225Y-120788589D01*
X186141783Y-120595476D01*
X186052071Y-120444509D01*
X185833857Y-120265304D01*
X185765182Y-120378817D01*
X185412358Y-120378817D01*
X185407570Y-120351454D01*
X185266857Y-120207574D01*
X185125655Y-120323234D01*
X185074661Y-120516847D01*
X184932211Y-120865816D01*
X184765796Y-121007923D01*
X184647122Y-121169709D01*
X184780271Y-121419206D01*
X185104739Y-121707401D01*
X185560023Y-121985284D01*
X186085618Y-122203844D01*
X186321503Y-122268128D01*
X186879651Y-122431307D01*
X187262414Y-122668281D01*
X187506739Y-123042073D01*
X187649571Y-123615705D01*
X187727859Y-124452199D01*
X187740642Y-124688837D01*
X187815051Y-126186353D01*
X188518414Y-126759354D01*
X189496860Y-127411370D01*
X190480134Y-127795343D01*
X191160380Y-127889065D01*
X191761711Y-127931713D01*
X192402199Y-128022595D01*
X192460702Y-128033785D01*
X192880304Y-128124517D01*
X193000012Y-128196079D01*
X192854970Y-128292491D01*
X192716407Y-128354095D01*
X192477104Y-128491067D01*
X192554598Y-128549678D01*
X192567343Y-128550315D01*
X192868157Y-128490616D01*
X193354841Y-128325211D01*
X193760632Y-128159249D01*
X194481400Y-127880217D01*
X195270237Y-127628419D01*
X195614394Y-127538301D01*
X196201273Y-127374443D01*
X196692107Y-127191223D01*
X196888230Y-127087823D01*
X197273837Y-126902398D01*
X197512338Y-126856422D01*
X197841466Y-126715499D01*
X198203636Y-126366393D01*
X198510718Y-125919601D01*
X198674580Y-125485620D01*
X198682850Y-125388875D01*
X198616652Y-124950729D01*
X198454440Y-124426218D01*
X198425941Y-124355435D01*
X198273787Y-123879279D01*
X198312054Y-123580844D01*
X198359906Y-123510579D01*
X198447692Y-123293360D01*
X198284038Y-123178233D01*
X197912028Y-123161507D01*
X197684474Y-123379618D01*
X197660031Y-123521449D01*
X197540193Y-123811090D01*
X197404327Y-123958436D01*
X197256967Y-124038491D01*
X197179218Y-123925331D01*
X197149571Y-123560366D01*
X197146034Y-123254812D01*
X197070209Y-122345893D01*
X196867373Y-121486230D01*
X196566746Y-120736245D01*
X196197547Y-120156357D01*
X195788992Y-119806989D01*
X195443924Y-119735029D01*
X195123859Y-119853171D01*
X195069365Y-120022009D01*
X194986291Y-120301864D01*
X194724953Y-120515459D01*
X194591575Y-120546425D01*
X194443961Y-120427083D01*
X194169836Y-120122575D01*
X194027261Y-119948607D01*
X193675765Y-119406109D01*
X193623371Y-119021670D01*
X193876176Y-118783638D01*
X194440275Y-118680365D01*
X194694295Y-118673872D01*
X195205400Y-118695154D01*
X195639877Y-118783523D01*
X196068911Y-118975765D01*
X196563683Y-119308666D01*
X197195375Y-119819011D01*
X197629113Y-120190529D01*
X198167660Y-120671757D01*
X198566525Y-121087885D01*
X198872755Y-121517698D01*
X199133398Y-122039980D01*
X199395500Y-122733516D01*
X199700259Y-123658818D01*
X199968204Y-124508746D01*
X200130548Y-125083262D01*
X200189543Y-125430384D01*
X200147437Y-125598130D01*
X200006483Y-125634520D01*
X199790904Y-125593131D01*
X199474175Y-125561627D01*
X199369221Y-125730758D01*
X199364729Y-125830356D01*
X199386232Y-126232722D01*
X199488587Y-126385054D01*
X199711462Y-126380360D01*
X199955500Y-126492346D01*
X200111437Y-126906065D01*
X200174269Y-127592593D01*
X200138992Y-128523005D01*
X200119464Y-128738443D01*
X200051885Y-129355171D01*
X199980332Y-129699599D01*
X199872373Y-129839176D01*
X199695579Y-129841354D01*
X199599808Y-129819235D01*
X199278756Y-129804694D01*
X198702547Y-129837968D01*
X197952016Y-129909014D01*
X197108001Y-130007790D01*
X196251338Y-130124253D01*
X195462864Y-130248361D01*
X194823416Y-130370071D01*
X194488790Y-130454188D01*
X193983358Y-130702587D01*
X193564108Y-131037880D01*
X193201362Y-131364600D01*
X192981903Y-131439009D01*
X192936829Y-131256543D01*
X192969912Y-131125099D01*
X193004043Y-130935375D01*
X192899642Y-130851072D01*
X192584058Y-130851057D01*
X192171668Y-130892905D01*
X191609056Y-130973886D01*
X191163818Y-131069092D01*
X191011709Y-131121268D01*
X190664189Y-131188676D01*
X190243582Y-131169750D01*
X189921800Y-131159466D01*
X189655751Y-131284891D01*
X189351608Y-131606343D01*
X189142122Y-131877833D01*
X188759698Y-132322414D01*
X188396604Y-132637449D01*
X188205551Y-132732728D01*
X187777411Y-132816085D01*
X187346609Y-132898625D01*
X186920898Y-133002147D01*
X186310056Y-133177362D01*
X185692181Y-133371561D01*
X184968503Y-133579707D01*
X184541009Y-133628757D01*
X184403667Y-133517429D01*
X184550446Y-133244443D01*
X184634343Y-133146896D01*
X184786006Y-132928134D01*
X184884820Y-132625424D01*
X184942495Y-132165739D01*
X184970739Y-131476051D01*
X184977647Y-131005886D01*
X185005194Y-130132311D01*
X185065066Y-129478060D01*
X185151781Y-129093981D01*
X185190735Y-129029343D01*
X185375135Y-128742091D01*
X185255647Y-128579716D01*
X185087884Y-128555699D01*
X184718707Y-128451915D01*
X184458658Y-128299994D01*
X184123725Y-128091558D01*
X183938538Y-128129858D01*
X183862351Y-128449602D01*
X183851978Y-128816825D01*
X183829670Y-129296211D01*
X183737041Y-129522898D01*
X183535531Y-129583646D01*
X183511038Y-129583939D01*
X183234487Y-129679531D01*
X183170098Y-129813223D01*
X183066635Y-130077805D01*
X182831048Y-130343562D01*
X182575547Y-130506808D01*
X182432813Y-130494529D01*
X182234660Y-130502032D01*
X182020472Y-130638715D01*
X181645269Y-130896005D01*
X181423777Y-131001290D01*
X181190523Y-131244259D01*
X181168073Y-131489006D01*
X181117634Y-131825386D01*
X180915099Y-131912125D01*
X180634848Y-131754428D01*
X180392570Y-131434713D01*
X180164124Y-131123229D01*
X179981932Y-131030011D01*
X179953419Y-131048851D01*
X179793570Y-131343569D01*
X179634116Y-131797247D01*
X179510891Y-132278786D01*
X179459732Y-132657087D01*
X179479689Y-132781914D01*
X179450288Y-133016742D01*
X179168973Y-133298639D01*
X178713723Y-133588598D01*
X178162518Y-133847613D01*
X177593339Y-134036678D01*
X177084166Y-134116784D01*
X176848229Y-134098207D01*
X176502885Y-133982328D01*
X176466620Y-133840144D01*
X176504928Y-133794345D01*
X176676420Y-133477646D01*
X176692246Y-133364543D01*
X176641816Y-133212408D01*
X176444009Y-133328077D01*
X176140382Y-133442429D01*
X175988865Y-133406221D01*
X175852064Y-133388730D01*
X175884637Y-133545923D01*
X175833772Y-133787568D01*
X175521480Y-134146406D01*
X174976085Y-134607968D01*
X173964854Y-135402436D01*
X173773671Y-134922382D01*
X173699243Y-134571947D01*
X173634687Y-133963509D01*
X173586557Y-133179986D01*
X173561410Y-132304299D01*
X173560522Y-132226221D01*
X173555210Y-131308806D01*
X173567869Y-130656902D01*
X173609409Y-130195156D01*
X173690745Y-129848212D01*
X173822789Y-129540715D01*
X173993527Y-129236226D01*
X174448499Y-128462338D01*
X173823057Y-128533747D01*
X173374644Y-128629158D01*
X173083720Y-128771044D01*
X173060939Y-128796226D01*
X172889600Y-128851421D01*
X172720000Y-128656376D01*
X172156673Y-127960345D01*
X171358750Y-127278083D01*
X171326603Y-127254813D01*
X171067512Y-127044217D01*
X170909642Y-126811567D01*
X170821402Y-126464277D01*
X170771199Y-125909764D01*
X170752878Y-125573482D01*
X170705284Y-124886916D01*
X170635371Y-124471079D01*
X170524376Y-124255779D01*
X170379603Y-124176923D01*
X170194005Y-124087646D01*
X170057839Y-123893452D01*
X169953897Y-123535310D01*
X169864975Y-122954184D01*
X169774949Y-122102341D01*
X169654291Y-120842889D01*
X165393489Y-120966479D01*
X163942902Y-121003350D01*
X162810294Y-121019930D01*
X161973290Y-121015882D01*
X161409512Y-120990869D01*
X161096586Y-120944555D01*
X161015595Y-120900611D01*
X160861747Y-120854594D01*
X160451848Y-120812365D01*
X159774330Y-120773583D01*
X158817624Y-120737909D01*
X157570160Y-120705002D01*
X156020369Y-120674522D01*
X154156681Y-120646130D01*
X151967527Y-120619485D01*
X151153792Y-120610833D01*
X149075259Y-120590088D01*
X147311721Y-120574376D01*
X145837267Y-120564157D01*
X144625982Y-120559889D01*
X143651955Y-120562032D01*
X142889271Y-120571046D01*
X142312019Y-120587390D01*
X141894285Y-120611524D01*
X141610156Y-120643907D01*
X141433720Y-120684998D01*
X141339063Y-120735257D01*
X141303566Y-120785482D01*
X141066847Y-121007842D01*
X140695063Y-121063787D01*
X140341643Y-120959462D01*
X140167672Y-120739993D01*
X140113110Y-120625589D01*
X139986427Y-120538534D01*
X139740992Y-120472500D01*
X139330174Y-120421156D01*
X138707342Y-120378176D01*
X137825866Y-120337228D01*
X136951481Y-120303470D01*
X134737550Y-120220799D01*
X132839464Y-120147695D01*
X131232331Y-120081934D01*
X129891262Y-120021292D01*
X128791366Y-119963547D01*
X127907751Y-119906474D01*
X127215527Y-119847852D01*
X126689804Y-119785456D01*
X126305690Y-119717064D01*
X126038294Y-119640451D01*
X125862726Y-119553396D01*
X125754096Y-119453675D01*
X125687511Y-119339064D01*
X125669834Y-119295805D01*
X125694475Y-119079784D01*
X125698502Y-119061648D01*
X125893014Y-119061648D01*
X126034974Y-119348478D01*
X126285532Y-119513717D01*
X126551976Y-119557970D01*
X127112664Y-119609870D01*
X127921060Y-119666535D01*
X128930631Y-119725085D01*
X130094843Y-119782638D01*
X131367162Y-119836314D01*
X131697948Y-119848836D01*
X133625678Y-119920860D01*
X135240659Y-119983666D01*
X136570887Y-120039580D01*
X137644358Y-120090930D01*
X138489067Y-120140042D01*
X139133011Y-120189242D01*
X139604184Y-120240858D01*
X139930582Y-120297215D01*
X140140201Y-120360641D01*
X140261036Y-120433462D01*
X140321084Y-120518005D01*
X140337443Y-120566849D01*
X140536627Y-120833109D01*
X140837627Y-120865157D01*
X141097074Y-120665687D01*
X141148480Y-120551602D01*
X141190733Y-120452905D01*
X141272635Y-120376402D01*
X141432074Y-120320111D01*
X141706936Y-120282046D01*
X142135109Y-120260224D01*
X142754479Y-120252661D01*
X143602933Y-120257373D01*
X144718358Y-120272377D01*
X146060974Y-120294376D01*
X148836456Y-120341869D01*
X151286209Y-120385169D01*
X153425412Y-120424637D01*
X155269246Y-120460634D01*
X156832890Y-120493523D01*
X158131525Y-120523666D01*
X159180330Y-120551424D01*
X159994486Y-120577160D01*
X160589172Y-120601234D01*
X160979567Y-120624009D01*
X161180853Y-120645847D01*
X161213914Y-120655547D01*
X161416296Y-120678630D01*
X161911808Y-120698070D01*
X162652654Y-120713106D01*
X163591038Y-120722973D01*
X164679163Y-120726911D01*
X165592200Y-120725409D01*
X169830950Y-120709032D01*
X169935109Y-121097828D01*
X169991573Y-121475439D01*
X170030343Y-122052033D01*
X170041596Y-122548130D01*
X170058539Y-123151535D01*
X170127849Y-123516876D01*
X170282221Y-123746458D01*
X170470098Y-123888877D01*
X170807447Y-124246842D01*
X170896273Y-124721363D01*
X170920504Y-125244580D01*
X170981035Y-125878902D01*
X171005530Y-126071728D01*
X171127747Y-126626913D01*
X171369571Y-127007276D01*
X171764109Y-127331426D01*
X172206960Y-127696111D01*
X172544783Y-128060267D01*
X172617324Y-128170242D01*
X172825927Y-128428921D01*
X173083862Y-128403939D01*
X173143707Y-128373885D01*
X173559196Y-128276572D01*
X173792673Y-128304912D01*
X174045823Y-128300293D01*
X174277440Y-128064908D01*
X174449973Y-127760329D01*
X174733530Y-127292884D01*
X175058120Y-126881462D01*
X175355338Y-126600303D01*
X175556778Y-126523643D01*
X175577238Y-126536941D01*
X175574233Y-126643942D01*
X175474718Y-126906492D01*
X175263119Y-127357086D01*
X174923863Y-128028220D01*
X174441377Y-128952391D01*
X174207744Y-129394612D01*
X173964607Y-129891226D01*
X173822017Y-130324278D01*
X173756942Y-130814193D01*
X173746349Y-131481395D01*
X173751294Y-131781189D01*
X173782598Y-132773705D01*
X173831260Y-133670513D01*
X173891565Y-134382385D01*
X173940883Y-134740651D01*
X174038797Y-134856925D01*
X174285181Y-134785196D01*
X174723456Y-134508313D01*
X174959484Y-134338288D01*
X175404406Y-133966625D01*
X175586512Y-133680118D01*
X175578224Y-133485939D01*
X175569097Y-133243275D01*
X175808485Y-133165647D01*
X175895406Y-133163805D01*
X176274870Y-133050446D01*
X176430478Y-132865483D01*
X176536369Y-132669340D01*
X176669461Y-132742586D01*
X176790455Y-132899158D01*
X176946942Y-133273555D01*
X176941663Y-133524555D01*
X176972575Y-133788044D01*
X177223577Y-133889277D01*
X177608126Y-133815047D01*
X177885535Y-133668573D01*
X178375496Y-133411934D01*
X178780501Y-133270651D01*
X179138079Y-133101738D01*
X179248424Y-132772782D01*
X179249293Y-132723796D01*
X179300997Y-132273046D01*
X179432871Y-131744340D01*
X179610056Y-131234269D01*
X179797695Y-130839422D01*
X179960931Y-130656388D01*
X179995672Y-130655606D01*
X180207153Y-130827364D01*
X180494217Y-131175870D01*
X180570434Y-131284371D01*
X180953991Y-131850466D01*
X180953991Y-131313847D01*
X181006118Y-130922897D01*
X181193239Y-130782429D01*
X181268510Y-130777228D01*
X181618964Y-130657495D01*
X181881171Y-130447785D01*
X182181578Y-130229461D01*
X182402361Y-130203933D01*
X182630711Y-130129294D01*
X182897958Y-129825340D01*
X182934509Y-129766262D01*
X183198988Y-129417083D01*
X183442541Y-129246378D01*
X183470282Y-129243000D01*
X183612256Y-129143835D01*
X183611830Y-128806414D01*
X183585363Y-128648156D01*
X183588476Y-128154011D01*
X183809886Y-127911986D01*
X184221701Y-127938339D01*
X184545942Y-128088221D01*
X184943597Y-128251536D01*
X185192742Y-128174840D01*
X185199112Y-128168617D01*
X185435322Y-128075189D01*
X185576353Y-128171670D01*
X185664818Y-128410904D01*
X185543198Y-128805387D01*
X185491118Y-128913834D01*
X185321954Y-129447659D01*
X185233329Y-130233009D01*
X185215736Y-130962791D01*
X185197072Y-131698917D01*
X185147384Y-132350518D01*
X185076125Y-132807598D01*
X185049485Y-132897003D01*
X184966073Y-133194397D01*
X185045653Y-133314824D01*
X185338268Y-133270257D01*
X185851548Y-133088903D01*
X186398945Y-132912774D01*
X187084081Y-132735038D01*
X187461374Y-132653359D01*
X188092107Y-132491256D01*
X188514034Y-132263534D01*
X188859233Y-131898434D01*
X188865171Y-131890668D01*
X189333291Y-131309270D01*
X189669878Y-130979471D01*
X189921382Y-130862076D01*
X190061526Y-130881217D01*
X190338036Y-130900406D01*
X190846055Y-130869699D01*
X191481984Y-130801988D01*
X192142225Y-130710167D01*
X192723178Y-130607131D01*
X193121245Y-130505773D01*
X193143295Y-130497661D01*
X193367485Y-130458650D01*
X193354704Y-130644522D01*
X193347382Y-130664000D01*
X193317697Y-130821975D01*
X193459109Y-130776436D01*
X193718652Y-130595014D01*
X194081630Y-130429124D01*
X194705771Y-130246228D01*
X195512765Y-130060925D01*
X196424305Y-129887816D01*
X197362081Y-129741501D01*
X198247785Y-129636580D01*
X199003108Y-129587655D01*
X199131153Y-129585875D01*
X199835161Y-129583939D01*
X199911369Y-128530378D01*
X199951373Y-127699639D01*
X199918706Y-127152764D01*
X199799178Y-126837732D01*
X199578599Y-126702519D01*
X199408304Y-126685953D01*
X199143083Y-126661036D01*
X199041595Y-126523940D01*
X199062265Y-126181142D01*
X199093466Y-125977716D01*
X199206538Y-125398665D01*
X199333569Y-125118950D01*
X199512383Y-125097804D01*
X199751498Y-125268472D01*
X199990732Y-125455326D01*
X200036827Y-125405588D01*
X200007318Y-125310038D01*
X199913361Y-125030706D01*
X199747799Y-124520349D01*
X199541118Y-123873237D01*
X199467275Y-123640017D01*
X199164021Y-122722010D01*
X198896126Y-122047888D01*
X198613599Y-121531454D01*
X198266450Y-121086507D01*
X197804688Y-120626851D01*
X197624500Y-120462527D01*
X196798416Y-119756677D01*
X196126340Y-119280872D01*
X195546555Y-119001144D01*
X194997348Y-118883523D01*
X194739306Y-118874482D01*
X194161998Y-118931389D01*
X193897004Y-119099351D01*
X193927100Y-119401999D01*
X194123645Y-119719041D01*
X194477244Y-120197310D01*
X194856892Y-119787663D01*
X195278085Y-119483845D01*
X195597731Y-119472470D01*
X196045359Y-119740820D01*
X196487635Y-120260593D01*
X196877475Y-120944837D01*
X197167799Y-121706600D01*
X197311526Y-122458929D01*
X197319092Y-122651580D01*
X197357143Y-122961351D01*
X197533241Y-123005632D01*
X197702649Y-122950646D01*
X198241711Y-122928255D01*
X198570576Y-123053808D01*
X198886112Y-123236289D01*
X198925523Y-123369212D01*
X198747791Y-123526020D01*
X198546866Y-123738135D01*
X198566871Y-124009860D01*
X198646978Y-124203487D01*
X198780481Y-124670839D01*
X198850338Y-125255659D01*
X198853320Y-125385735D01*
X198802465Y-125890406D01*
X198622833Y-126305956D01*
X198273823Y-126662255D01*
X197714835Y-126989177D01*
X196905268Y-127316596D01*
X195804521Y-127674383D01*
X195699629Y-127706128D01*
X194975650Y-127943799D01*
X194232294Y-128217717D01*
X193852945Y-128372994D01*
X193009720Y-128661173D01*
X192347286Y-128698754D01*
X191815704Y-128486145D01*
X191693588Y-128390651D01*
X191241056Y-128137891D01*
X190813298Y-128049711D01*
X190195524Y-127935111D01*
X189450119Y-127625846D01*
X188685025Y-127173714D01*
X188178549Y-126785329D01*
X187838893Y-126476878D01*
X187647900Y-126215898D01*
X187565929Y-125891084D01*
X187553335Y-125391132D01*
X187560445Y-125049900D01*
X187544713Y-124350884D01*
X187475583Y-123702450D01*
X187382417Y-123294173D01*
X187221642Y-122946759D01*
X186981806Y-122728018D01*
X186560599Y-122565017D01*
X186238555Y-122478734D01*
X185396284Y-122162423D01*
X184690922Y-121633867D01*
X184621599Y-121566151D01*
X184252142Y-121184760D01*
X184108578Y-120981055D01*
X184166579Y-120901135D01*
X184316434Y-120889980D01*
X184594184Y-120805820D01*
X184793518Y-120501859D01*
X184894937Y-120208100D01*
X185052280Y-119786259D01*
X185201613Y-119546801D01*
X185242719Y-119526221D01*
X185387673Y-119399707D01*
X185334542Y-119048292D01*
X185097141Y-118514173D01*
X184691749Y-117843236D01*
X184331579Y-117321757D01*
X184030516Y-116918027D01*
X183848673Y-116712270D01*
X183839400Y-116705696D01*
X183720139Y-116478679D01*
X183681508Y-116165605D01*
X183545291Y-115757998D01*
X183195143Y-115280387D01*
X182718821Y-114821590D01*
X182204080Y-114470428D01*
X181875994Y-114338214D01*
X181379353Y-114146113D01*
X180952839Y-113899897D01*
X180504716Y-113580806D01*
X180580946Y-114100191D01*
X180606873Y-114452138D01*
X180500561Y-114551100D01*
X180302694Y-114507068D01*
X179900058Y-114500348D01*
X179470900Y-114635659D01*
X178968727Y-114802852D01*
X178662777Y-114705813D01*
X178567414Y-114381962D01*
X178419974Y-114055587D01*
X178226474Y-113950111D01*
X177947912Y-113741680D01*
X177885535Y-113539896D01*
X177774229Y-113284992D01*
X177459360Y-113218839D01*
X177115427Y-113118592D01*
X177051310Y-112863231D01*
X177246273Y-112561849D01*
X177342715Y-112367831D01*
X177185837Y-112149072D01*
X177034298Y-112026923D01*
X176762566Y-111796658D01*
X176751945Y-111670357D01*
X176908993Y-111590736D01*
X177327286Y-111535077D01*
X177547143Y-111564200D01*
X177830138Y-111548444D01*
X177885535Y-111401459D01*
X177996718Y-111227601D01*
X178212049Y-111253857D01*
X178409177Y-111280257D01*
X178499767Y-111143673D01*
X178516246Y-110769137D01*
X178510371Y-110564162D01*
X178560236Y-109934171D01*
X178747630Y-109572160D01*
X179048611Y-109500731D01*
X179409784Y-109715177D01*
X179677987Y-109886141D01*
X179760830Y-109814601D01*
X179617559Y-109566810D01*
X179547615Y-109491121D01*
X179430803Y-109273563D01*
X179600386Y-109073470D01*
X180277341Y-108546224D01*
X180699732Y-108180276D01*
X180896573Y-107947652D01*
X180898422Y-107821883D01*
X180671236Y-107798451D01*
X180434829Y-107899555D01*
X180178602Y-108013134D01*
X180118870Y-107893164D01*
X180250249Y-107516064D01*
X180314729Y-107373672D01*
X180501597Y-107108448D01*
X180836230Y-106868646D01*
X181386351Y-106613770D01*
X181933979Y-106405404D01*
X182625501Y-106159706D01*
X183238321Y-105951191D01*
X183669081Y-105814730D01*
X183753984Y-105791372D01*
X184200335Y-105579527D01*
X184462497Y-105361896D01*
X184845849Y-105107541D01*
X185162920Y-105036288D01*
X185622036Y-104940343D01*
X186058008Y-104704304D01*
X186351279Y-104405867D01*
X186409025Y-104226499D01*
X186292095Y-103938566D01*
X186009019Y-103596825D01*
X185992310Y-103581132D01*
X185593404Y-103338291D01*
X185270755Y-103424179D01*
X185019904Y-103841188D01*
X184925305Y-104153177D01*
X184783832Y-104719059D01*
X184377056Y-104366264D01*
X183966429Y-104111796D01*
X183591063Y-104013469D01*
X183166748Y-103894457D01*
X182924201Y-103600617D01*
X182929691Y-103267962D01*
X182925398Y-103031777D01*
X182815767Y-102990651D01*
X182465633Y-102849428D01*
X182112849Y-102507337D01*
X181863214Y-102086739D01*
X181841374Y-101985527D01*
X182035894Y-101985527D01*
X182041257Y-102047963D01*
X182164393Y-102258401D01*
X182358477Y-102509869D01*
X182471619Y-102552665D01*
X182427554Y-102390338D01*
X182245934Y-102176860D01*
X182035894Y-101985527D01*
X181841374Y-101985527D01*
X181806340Y-101823166D01*
X181806340Y-101396992D01*
X182247397Y-101810264D01*
X182688454Y-102223537D01*
X182332718Y-101285953D01*
X182142748Y-100779210D01*
X182013645Y-100423243D01*
X181976896Y-100309216D01*
X181840259Y-100216189D01*
X181494638Y-100025874D01*
X181288910Y-99919123D01*
X180852488Y-99637749D01*
X180722034Y-99412883D01*
X180900426Y-99272801D01*
X181219756Y-99240315D01*
X181513929Y-99185829D01*
X181624392Y-98954386D01*
X181635870Y-98710667D01*
X181600480Y-98351252D01*
X181463445Y-98260043D01*
X181350680Y-98290457D01*
X181028953Y-98319203D01*
X180515424Y-98273718D01*
X180161240Y-98212174D01*
X179633319Y-98121245D01*
X179225328Y-98126041D01*
X178792405Y-98246729D01*
X178243887Y-98479107D01*
X177643677Y-98785198D01*
X177121404Y-99114839D01*
X176846564Y-99342743D01*
X176309827Y-99689941D01*
X175931626Y-99751724D01*
X175565548Y-99815368D01*
X175179128Y-100040243D01*
X174691083Y-100477266D01*
X174554965Y-100614108D01*
X174027993Y-101114719D01*
X173494189Y-101563481D01*
X173112380Y-101834973D01*
X172616217Y-102161905D01*
X172180705Y-102494243D01*
X172133016Y-102535746D01*
X172041830Y-102612562D01*
X171935920Y-102675899D01*
X171786300Y-102725924D01*
X171563982Y-102762806D01*
X171239979Y-102786714D01*
X170785303Y-102797817D01*
X170170968Y-102796283D01*
X169367986Y-102782280D01*
X168347369Y-102755978D01*
X167080130Y-102717545D01*
X165537282Y-102667149D01*
X163689837Y-102604960D01*
X163183352Y-102587805D01*
X159264751Y-102455542D01*
X155574304Y-102331974D01*
X152121252Y-102217393D01*
X148914835Y-102112087D01*
X145964291Y-102016348D01*
X143278863Y-101930463D01*
X140867788Y-101854723D01*
X138740307Y-101789418D01*
X136905661Y-101734838D01*
X135373089Y-101691272D01*
X134151830Y-101659009D01*
X133251126Y-101638340D01*
X132680215Y-101629555D01*
X132612325Y-101629256D01*
X131064619Y-101626892D01*
X130694343Y-102436624D01*
X130579735Y-102747102D01*
X130387614Y-103337151D01*
X130129309Y-104167544D01*
X129816148Y-105199057D01*
X129459459Y-106392462D01*
X129070572Y-107708534D01*
X128660815Y-109108047D01*
X128241516Y-110551774D01*
X127824004Y-112000489D01*
X127419608Y-113414966D01*
X127039656Y-114755979D01*
X126695476Y-115984303D01*
X126398398Y-117060710D01*
X126159749Y-117945975D01*
X125990859Y-118600872D01*
X125903055Y-118986175D01*
X125893014Y-119061648D01*
X125698502Y-119061648D01*
X125806518Y-118575165D01*
X125995111Y-117819825D01*
X126249403Y-116851642D01*
X126558541Y-115708492D01*
X126911673Y-114428253D01*
X127297948Y-113048801D01*
X127706513Y-111608015D01*
X128126516Y-110143771D01*
X128547107Y-108693946D01*
X128957431Y-107296417D01*
X129346639Y-105989062D01*
X129703877Y-104809758D01*
X130018294Y-103796381D01*
X130279038Y-102986809D01*
X130475256Y-102418920D01*
X130577655Y-102165776D01*
X131017490Y-101255666D01*
X133185405Y-101358974D01*
X134227611Y-101405084D01*
X135576699Y-101459016D01*
X137198731Y-101519617D01*
X139059767Y-101585734D01*
X141125868Y-101656211D01*
X143363096Y-101729895D01*
X145737512Y-101805632D01*
X148215176Y-101882268D01*
X150762149Y-101958649D01*
X151207011Y-101971743D01*
X152808627Y-102020022D01*
X154663518Y-102078073D01*
X156684255Y-102143027D01*
X158783409Y-102212017D01*
X160873551Y-102282175D01*
X162867250Y-102350634D01*
X164349613Y-102402807D01*
X171525772Y-102658746D01*
X172532163Y-101983439D01*
X173217615Y-101475452D01*
X173937928Y-100868053D01*
X174384496Y-100444694D01*
X174956899Y-99916057D01*
X175401809Y-99641534D01*
X175692557Y-99581255D01*
X176128743Y-99472416D01*
X176598134Y-99205169D01*
X176664250Y-99152478D01*
X177115095Y-98835441D01*
X177715926Y-98489510D01*
X178092986Y-98302895D01*
X178601845Y-98089725D01*
X179040289Y-97975622D01*
X179535454Y-97943242D01*
X180214475Y-97975242D01*
G37*
D15*
%TO.C,D3*%
X137415000Y-106465000D02*
X137415000Y-107935000D01*
X137415000Y-107935000D02*
X139875000Y-107935000D01*
X139875000Y-106465000D02*
X137415000Y-106465000D01*
%TD*%
M02*
