%TF.GenerationSoftware,KiCad,Pcbnew,9.0.2*%
%TF.CreationDate,2025-08-08T14:56:36-04:00*%
%TF.ProjectId,Massachusetts,4d617373-6163-4687-9573-657474732e6b,0*%
%TF.SameCoordinates,Original*%
%TF.FileFunction,Copper,L1,Top*%
%TF.FilePolarity,Positive*%
%FSLAX46Y46*%
G04 Gerber Fmt 4.6, Leading zero omitted, Abs format (unit mm)*
G04 Created by KiCad (PCBNEW 9.0.2) date 2025-08-08 14:56:36*
%MOMM*%
%LPD*%
G01*
G04 APERTURE LIST*
G04 Aperture macros list*
%AMRoundRect*
0 Rectangle with rounded corners*
0 $1 Rounding radius*
0 $2 $3 $4 $5 $6 $7 $8 $9 X,Y pos of 4 corners*
0 Add a 4 corners polygon primitive as box body*
4,1,4,$2,$3,$4,$5,$6,$7,$8,$9,$2,$3,0*
0 Add four circle primitives for the rounded corners*
1,1,$1+$1,$2,$3*
1,1,$1+$1,$4,$5*
1,1,$1+$1,$6,$7*
1,1,$1+$1,$8,$9*
0 Add four rect primitives between the rounded corners*
20,1,$1+$1,$2,$3,$4,$5,0*
20,1,$1+$1,$4,$5,$6,$7,0*
20,1,$1+$1,$6,$7,$8,$9,0*
20,1,$1+$1,$8,$9,$2,$3,0*%
%AMFreePoly0*
4,1,21,0.348536,0.553536,0.350000,0.550000,0.350000,-0.550000,0.348536,-0.553536,0.345000,-0.555000,0.145000,-0.555000,0.141464,-0.553536,0.140000,-0.550000,0.140000,-0.355000,-0.355000,-0.355000,-0.358536,-0.353536,-0.360000,-0.350000,-0.360000,0.350000,-0.358536,0.353536,-0.355000,0.355000,0.140000,0.355000,0.140000,0.550000,0.141464,0.553536,0.145000,0.555000,0.345000,0.555000,
0.348536,0.553536,0.348536,0.553536,$1*%
%AMFreePoly1*
4,1,21,-0.141464,0.553536,-0.140000,0.550000,-0.140000,0.355000,0.355000,0.355000,0.358536,0.353536,0.360000,0.350000,0.360000,-0.350000,0.358536,-0.353536,0.355000,-0.355000,-0.140000,-0.355000,-0.140000,-0.550000,-0.141464,-0.553536,-0.145000,-0.555000,-0.345000,-0.555000,-0.348536,-0.553536,-0.350000,-0.550000,-0.350000,0.550000,-0.348536,0.553536,-0.345000,0.555000,-0.145000,0.555000,
-0.141464,0.553536,-0.141464,0.553536,$1*%
G04 Aperture macros list end*
%TA.AperFunction,SMDPad,CuDef*%
%ADD10FreePoly0,180.000000*%
%TD*%
%TA.AperFunction,SMDPad,CuDef*%
%ADD11FreePoly1,180.000000*%
%TD*%
%TA.AperFunction,SMDPad,CuDef*%
%ADD12RoundRect,0.237500X-0.287500X-0.237500X0.287500X-0.237500X0.287500X0.237500X-0.287500X0.237500X0*%
%TD*%
%TA.AperFunction,SMDPad,CuDef*%
%ADD13RoundRect,0.237500X0.287500X0.237500X-0.287500X0.237500X-0.287500X-0.237500X0.287500X-0.237500X0*%
%TD*%
%TA.AperFunction,ViaPad*%
%ADD14C,0.600000*%
%TD*%
%TA.AperFunction,Conductor*%
%ADD15C,0.200000*%
%TD*%
G04 APERTURE END LIST*
D10*
%TO.P,S1,2*%
%TO.N,GND*%
X140200000Y-132300000D03*
D11*
%TO.P,S1,1*%
X144660000Y-132300000D03*
%TO.P,S1,3*%
%TO.N,Net-(D1-K)*%
X144660000Y-128800000D03*
D10*
%TO.P,S1,4*%
X140200000Y-128800000D03*
%TD*%
D12*
%TO.P,D4,1,K*%
%TO.N,Net-(D1-K)*%
X158000000Y-108300000D03*
%TO.P,D4,2,A*%
%TO.N,Net-(D4-A)*%
X159750000Y-108300000D03*
%TD*%
%TO.P,D1,1,K*%
%TO.N,Net-(D1-K)*%
X131501126Y-104200000D03*
%TO.P,D1,2,A*%
%TO.N,Net-(D1-A)*%
X133251126Y-104200000D03*
%TD*%
D13*
%TO.P,D5,1,K*%
%TO.N,Net-(D1-K)*%
X136550000Y-115600000D03*
%TO.P,D5,2,A*%
%TO.N,Net-(D5-A)*%
X134800000Y-115600000D03*
%TD*%
D12*
%TO.P,D2,1,K*%
%TO.N,Net-(D1-K)*%
X135600000Y-102800000D03*
%TO.P,D2,2,A*%
%TO.N,Net-(D2-A)*%
X137350000Y-102800000D03*
%TD*%
%TO.P,D3,1,K*%
%TO.N,Net-(D1-K)*%
X138200000Y-107200000D03*
%TO.P,D3,2,A*%
%TO.N,Net-(D3-A)*%
X139950000Y-107200000D03*
%TD*%
D14*
%TO.N,Net-(D1-A)*%
X133274828Y-105125172D03*
%TO.N,Net-(D1-K)*%
X144500000Y-127000000D03*
X134500000Y-102800000D03*
X138200000Y-106200000D03*
X136600000Y-114500000D03*
X157900000Y-107100000D03*
X136600000Y-116700000D03*
X131500000Y-103100000D03*
X140200000Y-127300000D03*
X137000000Y-107200000D03*
%TO.N,Net-(D2-A)*%
X137400000Y-101600000D03*
%TO.N,Net-(D3-A)*%
X140000000Y-108300000D03*
%TO.N,Net-(D4-A)*%
X159700000Y-107200000D03*
%TO.N,Net-(D5-A)*%
X134800000Y-116700000D03*
%TO.N,GND*%
X140200000Y-133700000D03*
X144700000Y-133700000D03*
%TD*%
D15*
%TO.N,GND*%
X144700000Y-133700000D02*
X144700000Y-132340000D01*
X144700000Y-132340000D02*
X144660000Y-132300000D01*
X140200000Y-133700000D02*
X140200000Y-132300000D01*
%TO.N,Net-(D1-K)*%
X140200000Y-127300000D02*
X140200000Y-128800000D01*
X144660000Y-127160000D02*
X144660000Y-128800000D01*
X144500000Y-127000000D02*
X144660000Y-127160000D01*
%TO.N,Net-(D1-A)*%
X133251126Y-105101470D02*
X133274828Y-105125172D01*
X133251126Y-104200000D02*
X133251126Y-105101470D01*
%TO.N,Net-(D1-K)*%
X136550000Y-115600000D02*
X136550000Y-114550000D01*
X138200000Y-107200000D02*
X138200000Y-107300000D01*
X131501126Y-104200000D02*
X131501126Y-104101126D01*
X131501126Y-104200000D02*
X131501126Y-103101126D01*
X157900000Y-107100000D02*
X157900000Y-108200000D01*
X136550000Y-114550000D02*
X136600000Y-114500000D01*
X138200000Y-107200000D02*
X137000000Y-107200000D01*
X136550000Y-115600000D02*
X136550000Y-116650000D01*
X157599000Y-108701000D02*
X158000000Y-108300000D01*
X135600000Y-102800000D02*
X134500000Y-102800000D01*
X131501126Y-103101126D02*
X131500000Y-103100000D01*
X138200000Y-107200000D02*
X138200000Y-106200000D01*
X157900000Y-108200000D02*
X158000000Y-108300000D01*
X136550000Y-116650000D02*
X136600000Y-116700000D01*
%TO.N,Net-(D2-A)*%
X137350000Y-102800000D02*
X137350000Y-101650000D01*
X137350000Y-101650000D02*
X137400000Y-101600000D01*
%TO.N,Net-(D3-A)*%
X140000000Y-108300000D02*
X140000000Y-108100000D01*
X139950000Y-108050000D02*
X139950000Y-107200000D01*
X140000000Y-108100000D02*
X139950000Y-108050000D01*
%TO.N,Net-(D4-A)*%
X159750000Y-107250000D02*
X159700000Y-107200000D01*
X159750000Y-108300000D02*
X159750000Y-107250000D01*
%TO.N,Net-(D5-A)*%
X134800000Y-115500000D02*
X134900000Y-115400000D01*
X134800000Y-115600000D02*
X134800000Y-115500000D01*
X134800000Y-115600000D02*
X134800000Y-116700000D01*
%TD*%
M02*
