%TF.GenerationSoftware,KiCad,Pcbnew,8.0.8*%
%TF.CreationDate,2025-07-15T17:27:57-07:00*%
%TF.ProjectId,Map Lights,4d617020-4c69-4676-9874-732e6b696361,rev?*%
%TF.SameCoordinates,Original*%
%TF.FileFunction,Copper,L2,Bot*%
%TF.FilePolarity,Positive*%
%FSLAX46Y46*%
G04 Gerber Fmt 4.6, Leading zero omitted, Abs format (unit mm)*
G04 Created by KiCad (PCBNEW 8.0.8) date 2025-07-15 17:27:57*
%MOMM*%
%LPD*%
G01*
G04 APERTURE LIST*
%TA.AperFunction,Conductor*%
%ADD10C,0.200000*%
%TD*%
%TA.AperFunction,NonConductor*%
%ADD11C,0.200000*%
%TD*%
%TA.AperFunction,WasherPad*%
%ADD12C,2.000000*%
%TD*%
%TA.AperFunction,SMDPad,CuDef*%
%ADD13R,1.500000X1.500000*%
%TD*%
%TA.AperFunction,ViaPad*%
%ADD14C,0.600000*%
%TD*%
G04 APERTURE END LIST*
%TO.N,Net-(SW1B-2)*%
D10*
X179500000Y-119500000D02*
X185500000Y-119500000D01*
X185500000Y-123000000D01*
X179500000Y-123000000D01*
X179500000Y-119500000D01*
%TA.AperFunction,Conductor*%
G36*
X179500000Y-119500000D02*
G01*
X185500000Y-119500000D01*
X185500000Y-123000000D01*
X179500000Y-123000000D01*
X179500000Y-119500000D01*
G37*
%TD.AperFunction*%
D11*
X180000000Y-78000000D02*
X186000000Y-78000000D01*
X186000000Y-81500000D01*
X180000000Y-81500000D01*
X180000000Y-78000000D01*
%TA.AperFunction,NonConductor*%
G36*
X180000000Y-78000000D02*
G01*
X186000000Y-78000000D01*
X186000000Y-81500000D01*
X180000000Y-81500000D01*
X180000000Y-78000000D01*
G37*
%TD.AperFunction*%
D10*
%TO.N,Net-(D4-A)*%
X164500000Y-80500000D02*
X165000000Y-80500000D01*
D11*
X153500000Y-88000000D02*
X154500000Y-88000000D01*
D10*
%TO.N,Net-(SW1B-2)*%
X179000000Y-121000000D02*
X179500000Y-121000000D01*
%TO.N,Net-(BT1--)*%
X130000000Y-82500000D02*
X132000000Y-80500000D01*
D11*
X164000000Y-103000000D02*
X165000000Y-103000000D01*
D10*
%TO.N,Net-(D5-A)*%
X164000000Y-95500000D02*
X165000000Y-95500000D01*
D11*
X108500000Y-76500000D02*
X108000000Y-77000000D01*
D10*
%TO.N,Net-(BT1--)*%
X126500000Y-94500000D02*
X126500000Y-105000000D01*
%TO.N,Net-(D6-A)*%
X164000000Y-88000000D02*
X165000000Y-88000000D01*
%TO.N,Net-(D2-A)*%
X133500000Y-79000000D02*
X132000000Y-77500000D01*
X153500000Y-80000000D02*
X154500000Y-81000000D01*
%TD*%
D12*
%TO.P,DV,*%
%TO.N,*%
X166500000Y-88000000D03*
D13*
%TO.P,DV,2*%
%TO.N,N/C*%
X165500000Y-88000000D03*
%TD*%
D12*
%TO.P,CI,*%
%TO.N,*%
X166500000Y-95500000D03*
D13*
%TO.P,CI,2*%
%TO.N,N/C*%
X165500000Y-95500000D03*
%TD*%
D12*
%TO.P,RW,*%
%TO.N,*%
X156000000Y-80500000D03*
D13*
%TO.P,RW,2*%
%TO.N,N/C*%
X155000000Y-80500000D03*
%TD*%
D12*
%TO.P,JT,*%
%TO.N,*%
X166500000Y-103000000D03*
D13*
%TO.P,JT,2,2*%
%TO.N,Net-(D2-A)*%
X165500000Y-103000000D03*
%TD*%
D12*
%TO.P,YM,*%
%TO.N,*%
X156000000Y-88000000D03*
D13*
%TO.P,YM,2,2*%
%TO.N,Net-(D6-A)*%
X155000000Y-88000000D03*
%TD*%
D12*
%TO.P,SQ,*%
%TO.N,*%
X166500000Y-80500000D03*
D13*
%TO.P,SQ,2,2*%
%TO.N,Net-(D4-A)*%
X165500000Y-80500000D03*
%TD*%
D14*
%TO.N,*%
X108000000Y-91500000D03*
%TO.N,Net-(BT1--)*%
X132000000Y-80500000D03*
X126500000Y-94500000D03*
X157000000Y-105500000D03*
X147500000Y-98500000D03*
X165000000Y-117000000D03*
X146000000Y-117000000D03*
X145000000Y-96000000D03*
%TO.N,Net-(D3-A)*%
X168500000Y-117000000D03*
%TO.N,Net-(D5-A)*%
X149500000Y-117000000D03*
%TO.N,Net-(SW1B-2)*%
X169000000Y-95500000D03*
X169500000Y-103000000D03*
X158500000Y-80500000D03*
X158500000Y-88000000D03*
X169000000Y-80500000D03*
X169000000Y-88000000D03*
%TO.N,Net-(D2-A)*%
X132000000Y-77500000D03*
%TO.N,Net-(D4-A)*%
X147050000Y-96010049D03*
%TO.N,Net-(D6-A)*%
X159050000Y-105510049D03*
%TO.N,Net-(D7-A)*%
X149550000Y-98510049D03*
%TD*%
D10*
%TO.N,*%
X183000000Y-75500000D02*
X109500000Y-75500000D01*
X109500000Y-75500000D02*
X108500000Y-76500000D01*
X108000000Y-91500000D02*
X108000000Y-77000000D01*
X183000000Y-79750000D02*
X183000000Y-75500000D01*
X108000000Y-77000000D02*
X108217157Y-76782843D01*
%TO.N,Net-(BT1--)*%
X154500000Y-120000000D02*
X157500000Y-117000000D01*
X157500000Y-117000000D02*
X165000000Y-117000000D01*
X140500000Y-100500000D02*
X132500000Y-100500000D01*
X157000000Y-105500000D02*
X137500000Y-105500000D01*
X130000000Y-82500000D02*
X130000000Y-91000000D01*
X137500000Y-105500000D02*
X132500000Y-100500000D01*
X146000000Y-117000000D02*
X145966257Y-116966257D01*
X145000000Y-96000000D02*
X140500000Y-100500000D01*
X130000000Y-91000000D02*
X126500000Y-94500000D01*
X146000000Y-117000000D02*
X138500000Y-117000000D01*
X141500000Y-120000000D02*
X154500000Y-120000000D01*
X147500000Y-98500000D02*
X145500000Y-98500000D01*
X138500000Y-117000000D02*
X141500000Y-120000000D01*
X142000000Y-102000000D02*
X134000000Y-102000000D01*
X132500000Y-100500000D02*
X126500000Y-94500000D01*
X145500000Y-98500000D02*
X142000000Y-102000000D01*
X134000000Y-102000000D02*
X132500000Y-100500000D01*
X138500000Y-117000000D02*
X126500000Y-105000000D01*
%TO.N,Net-(D3-A)*%
X164000000Y-108500000D02*
X164000000Y-103000000D01*
X168500000Y-117000000D02*
X168500000Y-113000000D01*
X168500000Y-113000000D02*
X164500000Y-109000000D01*
X164500000Y-109000000D02*
X164000000Y-108500000D01*
%TO.N,Net-(D5-A)*%
X151500000Y-117000000D02*
X162500000Y-106000000D01*
X162500000Y-97000000D02*
X164000000Y-95500000D01*
X149500000Y-117000000D02*
X151500000Y-117000000D01*
X162500000Y-106000000D02*
X162500000Y-97000000D01*
%TO.N,Net-(SW1B-2)*%
X173000000Y-79000000D02*
X173000000Y-92000000D01*
X173000000Y-99000000D02*
X173000000Y-118000000D01*
X162500000Y-79000000D02*
X164500000Y-77000000D01*
X158500000Y-80500000D02*
X159500000Y-80500000D01*
X162500000Y-84000000D02*
X162500000Y-79000000D01*
X169000000Y-80500000D02*
X173000000Y-84500000D01*
X173000000Y-98500000D02*
X173000000Y-99000000D01*
X169000000Y-88000000D02*
X173000000Y-92000000D01*
X173000000Y-92000000D02*
X173000000Y-99000000D01*
X158500000Y-88000000D02*
X162500000Y-84000000D01*
X169000000Y-95500000D02*
X170000000Y-95500000D01*
X171000000Y-77000000D02*
X173000000Y-79000000D01*
X169500000Y-103000000D02*
X173000000Y-106500000D01*
X161000000Y-79000000D02*
X162500000Y-79000000D01*
X164500000Y-77000000D02*
X171000000Y-77000000D01*
X159500000Y-80500000D02*
X161000000Y-79000000D01*
X170000000Y-95500000D02*
X173000000Y-98500000D01*
X176000000Y-121000000D02*
X179000000Y-121000000D01*
X173000000Y-118000000D02*
X176000000Y-121000000D01*
%TO.N,Net-(D2-A)*%
X152500000Y-79000000D02*
X153950000Y-80450000D01*
X133500000Y-79000000D02*
X152500000Y-79000000D01*
%TO.N,Net-(D4-A)*%
X148989951Y-96010049D02*
X149000000Y-96000000D01*
X164450000Y-80500000D02*
X164450000Y-81000000D01*
X148989951Y-96010049D02*
X153500000Y-91500000D01*
X147050000Y-96010049D02*
X148989951Y-96010049D01*
X153500000Y-91500000D02*
X153500000Y-88000000D01*
X164450000Y-86000000D02*
X164450000Y-80500000D01*
%TO.N,Net-(D6-A)*%
X160500000Y-104060049D02*
X160500000Y-91500000D01*
X160500000Y-91500000D02*
X164000000Y-88000000D01*
X159050000Y-105510049D02*
X160500000Y-104060049D01*
%TO.N,Net-(D7-A)*%
X161000000Y-89500000D02*
X164450000Y-86050000D01*
X151989951Y-98510049D02*
X161000000Y-89500000D01*
X149550000Y-98510049D02*
X151989951Y-98510049D01*
%TD*%
M02*
