%TF.GenerationSoftware,KiCad,Pcbnew,8.0.8*%
%TF.CreationDate,2025-07-15T17:27:57-07:00*%
%TF.ProjectId,Map Lights,4d617020-4c69-4676-9874-732e6b696361,rev?*%
%TF.SameCoordinates,Original*%
%TF.FileFunction,Copper,L1,Top*%
%TF.FilePolarity,Positive*%
%FSLAX46Y46*%
G04 Gerber Fmt 4.6, Leading zero omitted, Abs format (unit mm)*
G04 Created by KiCad (PCBNEW 8.0.8) date 2025-07-15 17:27:57*
%MOMM*%
%LPD*%
G01*
G04 APERTURE LIST*
G04 Aperture macros list*
%AMRoundRect*
0 Rectangle with rounded corners*
0 $1 Rounding radius*
0 $2 $3 $4 $5 $6 $7 $8 $9 X,Y pos of 4 corners*
0 Add a 4 corners polygon primitive as box body*
4,1,4,$2,$3,$4,$5,$6,$7,$8,$9,$2,$3,0*
0 Add four circle primitives for the rounded corners*
1,1,$1+$1,$2,$3*
1,1,$1+$1,$4,$5*
1,1,$1+$1,$6,$7*
1,1,$1+$1,$8,$9*
0 Add four rect primitives between the rounded corners*
20,1,$1+$1,$2,$3,$4,$5,0*
20,1,$1+$1,$4,$5,$6,$7,0*
20,1,$1+$1,$6,$7,$8,$9,0*
20,1,$1+$1,$8,$9,$2,$3,0*%
G04 Aperture macros list end*
%TA.AperFunction,Conductor*%
%ADD10C,0.200000*%
%TD*%
%TA.AperFunction,EtchedComponent*%
%ADD11C,0.200000*%
%TD*%
%ADD12C,0.200000*%
%TA.AperFunction,EtchedComponent*%
%ADD13C,0.750000*%
%TD*%
%TA.AperFunction,EtchedComponent*%
%ADD14C,0.500000*%
%TD*%
%TA.AperFunction,EtchedComponent*%
%ADD15C,0.250000*%
%TD*%
%TA.AperFunction,EtchedComponent*%
%ADD16C,0.350000*%
%TD*%
%TA.AperFunction,EtchedComponent*%
%ADD17C,0.300000*%
%TD*%
%TA.AperFunction,EtchedComponent*%
%ADD18C,0.400000*%
%TD*%
%TA.AperFunction,EtchedComponent*%
%ADD19C,0.450000*%
%TD*%
%TA.AperFunction,EtchedComponent*%
%ADD20C,0.550000*%
%TD*%
%TA.AperFunction,EtchedComponent*%
%ADD21C,0.600000*%
%TD*%
%TA.AperFunction,EtchedComponent*%
%ADD22C,0.650000*%
%TD*%
%TA.AperFunction,EtchedComponent*%
%ADD23C,0.700000*%
%TD*%
%TA.AperFunction,EtchedComponent*%
%ADD24C,0.800000*%
%TD*%
%TA.AperFunction,WasherPad*%
%ADD25C,2.000000*%
%TD*%
%TA.AperFunction,SMDPad,CuDef*%
%ADD26R,1.500000X1.500000*%
%TD*%
%TA.AperFunction,SMDPad,CuDef*%
%ADD27RoundRect,0.100000X0.100000X-0.130000X0.100000X0.130000X-0.100000X0.130000X-0.100000X-0.130000X0*%
%TD*%
%TA.AperFunction,SMDPad,CuDef*%
%ADD28RoundRect,0.100000X-0.130000X-0.100000X0.130000X-0.100000X0.130000X0.100000X-0.130000X0.100000X0*%
%TD*%
%TA.AperFunction,ViaPad*%
%ADD29C,0.600000*%
%TD*%
%TA.AperFunction,Conductor*%
%ADD30C,0.500000*%
%TD*%
G04 APERTURE END LIST*
D10*
%TO.N,Net-(SW1B-2)*%
X157500000Y-88000000D02*
X158500000Y-88000000D01*
%TO.N,Net-(BT1--)*%
X147500000Y-98500000D02*
X148000000Y-98500000D01*
X132000000Y-80500000D02*
X132000000Y-79500000D01*
X157000000Y-105500000D02*
X157500000Y-105500000D01*
%TO.N,Net-(SW1B-2)*%
X168000000Y-80500000D02*
X169000000Y-80500000D01*
X168000000Y-95500000D02*
X169000000Y-95500000D01*
%TO.N,Net-(BT1--)*%
X145000000Y-96000000D02*
X145500000Y-96000000D01*
%TO.N,Net-(D6-A)*%
X159000000Y-105500000D02*
X158500000Y-105500000D01*
%TO.N,Net-(BT1--)*%
X165000000Y-117000000D02*
X166500000Y-117000000D01*
X146000000Y-117000000D02*
X147000000Y-116966257D01*
%TO.N,Net-(SW1B-2)*%
X157500000Y-80500000D02*
X158500000Y-80500000D01*
%TO.N,Net-(D4-A)*%
X147000000Y-96000000D02*
X146500000Y-96000000D01*
%TO.N,Net-(D5-A)*%
X149500000Y-117000000D02*
X148000000Y-117000000D01*
%TO.N,Net-(SW1B-2)*%
X168000000Y-88000000D02*
X169000000Y-88000000D01*
%TO.N,Net-(BT1--)*%
X166500000Y-117000000D02*
X166000000Y-117000000D01*
%TO.N,Net-(D2-A)*%
X132000000Y-77500000D02*
X132000000Y-78500000D01*
%TO.N,Net-(D7-A)*%
X149500000Y-98500000D02*
X149000000Y-98500000D01*
%TO.N,Net-(SW1B-2)*%
X168000000Y-103000000D02*
X169000000Y-103000000D01*
%TO.N,Net-(D3-A)*%
X168500000Y-117000000D02*
X167000000Y-117000000D01*
D11*
%TD*%
%TO.C,REF\u002A\u002A*%
X130075286Y-83305850D02*
X130058485Y-84198126D01*
%TO.C,REF\u002A\u002A*%
X130487061Y-75608597D02*
X130512939Y-76185149D01*
X130526953Y-82407415D02*
X130075286Y-83305850D01*
X130970628Y-80703089D02*
X130971201Y-81523680D01*
X130971201Y-81523680D02*
X130526953Y-82407415D01*
X139213512Y-75608597D02*
X130487061Y-75608597D01*
X139338541Y-97325479D02*
X139338544Y-97325478D01*
X139703410Y-100366047D02*
X139703410Y-100366049D01*
X140075133Y-105497646D02*
X140075129Y-105497646D01*
X145739177Y-113590708D02*
X145739177Y-113590711D01*
X145754858Y-115090905D02*
X145754858Y-115090902D01*
X146590136Y-118503597D02*
X146652160Y-118558620D01*
X147346043Y-117731869D02*
X147346043Y-117731885D01*
X147346043Y-117731869D02*
X147346043Y-117731885D01*
X147346043Y-117731885D02*
X147346043Y-117731869D01*
X147960414Y-75608597D02*
X139213512Y-75608597D01*
X147960414Y-83792945D02*
X147960414Y-75608597D01*
X147960414Y-91925770D02*
X147960414Y-83792945D01*
X148318820Y-117778367D02*
X148318823Y-117778367D01*
X148532056Y-117309060D02*
X148532053Y-117309060D01*
X148805353Y-118364584D02*
X147815492Y-118232119D01*
X151840336Y-116985778D02*
X151840336Y-116985781D01*
X153724837Y-122620822D02*
X153724837Y-122620850D01*
X153783778Y-120088792D02*
X153783781Y-120088792D01*
X153783781Y-120088792D02*
X153783784Y-120088792D01*
X153783784Y-120088792D02*
X153783781Y-120088792D01*
X154167827Y-120948166D02*
X154167825Y-120948166D01*
X154318194Y-124173378D02*
X154318194Y-124173406D01*
X154426842Y-121789060D02*
X154492226Y-121853182D01*
X154800819Y-119512518D02*
X154800819Y-119512515D01*
X154826566Y-124016984D02*
X154318194Y-124173378D01*
X155407885Y-121447857D02*
X155407883Y-121447857D01*
X156111721Y-119756691D02*
X156111723Y-119756641D01*
X159167550Y-102319734D02*
X147960414Y-91925770D01*
X159790449Y-124836767D02*
X159886074Y-125378458D01*
X159790451Y-124836717D02*
X159790449Y-124836767D01*
X159886074Y-125378458D02*
X160855634Y-125386436D01*
X160855634Y-125386436D02*
X160855637Y-125386386D01*
X169731907Y-124683964D02*
X169731907Y-124683993D01*
X169842094Y-124676825D02*
X169842094Y-124676854D01*
X170397645Y-112734839D02*
X159167550Y-102319734D01*
X170397645Y-113064419D02*
X170397645Y-112734839D01*
X170799613Y-123966453D02*
X170799613Y-123966475D01*
X170802273Y-123959737D02*
X170802273Y-123959758D01*
X171090410Y-123406024D02*
X171090408Y-123406024D01*
X171828254Y-117116411D02*
X172224479Y-116958762D01*
X172224479Y-116958762D02*
X172246600Y-116497573D01*
D12*
X130058485Y-84198126D02*
X130055012Y-84424236D01*
X130055351Y-84656477D01*
X130065554Y-84883033D01*
X130095680Y-85098046D01*
X130135070Y-85238810D01*
X130135070Y-85238810D02*
X130227170Y-85432972D01*
X130347868Y-85605216D01*
X130488162Y-85770284D01*
X130637234Y-85931941D01*
X130693285Y-85991357D01*
X130512939Y-76185149D02*
X130536056Y-76400133D01*
X130573092Y-76605973D01*
X130634877Y-76802658D01*
X130724641Y-76982452D01*
X130767055Y-77050683D01*
X130693285Y-85991357D02*
X130843376Y-86151564D01*
X130986598Y-86310125D01*
X131125722Y-86478542D01*
X131229378Y-86633577D01*
X130767055Y-77050683D02*
X130873334Y-77231947D01*
X130957663Y-77418497D01*
X131020941Y-77616788D01*
X131064070Y-77833273D01*
X131087948Y-78074406D01*
X131093766Y-78275315D01*
X131089643Y-78496442D01*
X131075959Y-78740511D01*
X131053093Y-79010244D01*
X131053093Y-79010244D02*
X131032380Y-79251496D01*
X131017173Y-79465528D01*
X131003541Y-79690802D01*
X130991822Y-79920443D01*
X130982349Y-80147573D01*
X130975460Y-80365315D01*
X130971488Y-80566792D01*
X130970628Y-80703089D01*
X131229378Y-86633577D02*
X131305638Y-86828941D01*
X131328327Y-87032486D01*
X131329624Y-87126407D01*
X131329624Y-87126407D02*
X131335867Y-87379827D01*
X131355927Y-87604905D01*
X131391800Y-87807258D01*
X131461916Y-88036800D01*
X131563753Y-88250584D01*
X131701208Y-88459581D01*
X131839435Y-88630705D01*
X131878178Y-88674763D01*
X131878178Y-88674763D02*
X132022594Y-88839240D01*
X132152386Y-89011068D01*
X132244535Y-89205420D01*
X132262642Y-89266721D01*
X132262642Y-89266721D02*
X132303597Y-89491135D01*
X132325222Y-89722777D01*
X132337390Y-89927438D01*
X132348315Y-90170577D01*
X132357039Y-90396240D01*
X132361628Y-90520357D01*
X132361628Y-90520357D02*
X132375047Y-90814897D01*
X132393162Y-91082653D01*
X132416855Y-91327648D01*
X132447011Y-91553903D01*
X132484512Y-91765441D01*
X132530242Y-91966285D01*
X132585083Y-92160457D01*
X132649920Y-92351980D01*
X132725635Y-92544875D01*
X132813111Y-92743166D01*
X132878400Y-92880344D01*
X132878400Y-92880344D02*
X132978170Y-93071310D01*
X133089320Y-93253337D01*
X133220902Y-93436801D01*
X133381972Y-93632077D01*
X133527572Y-93792527D01*
X133698673Y-93969836D01*
X133899093Y-94168380D01*
X134050882Y-94314701D01*
X134218532Y-94473703D01*
X134403174Y-94646682D01*
X134502221Y-94738819D01*
X134502221Y-94738819D02*
X134653127Y-94884420D01*
X134796677Y-95033139D01*
X134914827Y-95164166D01*
X134914827Y-95164166D02*
X135041917Y-95318758D01*
X135148921Y-95480025D01*
X135148921Y-95480025D02*
X135215170Y-95675074D01*
X135261208Y-95847409D01*
X135261208Y-95847409D02*
X135307095Y-96043901D01*
X135349835Y-96251937D01*
X135375035Y-96390642D01*
X135375035Y-96390642D02*
X135415885Y-96616658D01*
X135462069Y-96835546D01*
X135516980Y-97039900D01*
X135571747Y-97192052D01*
X135571747Y-97192052D02*
X135671219Y-97383126D01*
X135799152Y-97548524D01*
X135904268Y-97655200D01*
X135904268Y-97655200D02*
X136068720Y-97789002D01*
X136243686Y-97891129D01*
X136488430Y-97978480D01*
X136740107Y-98010610D01*
X136991997Y-97988145D01*
X137237381Y-97911708D01*
X137469540Y-97781925D01*
X137630939Y-97649954D01*
X137778284Y-97488590D01*
X137649343Y-99476013D02*
X137642874Y-99684252D01*
X137647302Y-99900168D01*
X137654863Y-100106499D01*
X137663538Y-100311872D01*
X137667543Y-100403291D01*
X137667543Y-100403291D02*
X137677528Y-100628443D01*
X137686900Y-100833298D01*
X137698892Y-101076973D01*
X137710870Y-101289621D01*
X137726760Y-101516199D01*
X137748760Y-101738001D01*
X137781091Y-101940026D01*
X137778284Y-97488590D02*
X137890739Y-97320491D01*
X137983570Y-97132516D01*
X138044164Y-96940138D01*
X138046821Y-96924775D01*
X137781091Y-101940026D02*
X137839189Y-102133295D01*
X137943745Y-102308808D01*
X138093287Y-102468493D01*
X138109411Y-102484100D01*
X137783471Y-99175695D02*
X137671841Y-99349702D01*
X137649343Y-99476013D01*
X138046821Y-96924775D02*
X138095858Y-96725365D01*
X138147627Y-96641398D01*
X138109411Y-102484100D02*
X138276052Y-102627843D01*
X138454589Y-102748280D01*
X138646391Y-102845872D01*
X138852831Y-102921080D01*
X139075279Y-102974366D01*
X139315106Y-103006192D01*
X139573682Y-103017020D01*
X139780743Y-103011639D01*
X139852379Y-103007312D01*
X138147627Y-96641398D02*
X138213851Y-96626837D01*
X138213851Y-96626837D02*
X138329358Y-96679620D01*
X138329358Y-96679620D02*
X138521847Y-96751696D01*
X138582914Y-96766845D01*
X138381588Y-99076849D02*
X138182288Y-99023917D01*
X137971517Y-99052448D01*
X137799251Y-99160473D01*
X137783471Y-99175695D01*
X138582914Y-96766845D02*
X138789411Y-96807556D01*
X138960237Y-96830409D01*
X138641441Y-98220834D02*
X138660710Y-98420255D01*
X138714386Y-98566235D01*
X138714386Y-98566235D02*
X138825096Y-98743054D01*
X138949902Y-98905388D01*
X139036266Y-99011323D01*
X138796851Y-97723103D02*
X138693110Y-97905644D01*
X138646282Y-98113958D01*
X138641441Y-98220834D01*
X138960237Y-96830409D02*
X139172874Y-96860912D01*
X139378639Y-96908396D01*
X139508231Y-96951097D01*
X138978865Y-99694847D02*
X138859357Y-99505559D01*
X138731881Y-99345521D01*
X138579020Y-99200002D01*
X138401499Y-99086136D01*
X138381588Y-99076849D01*
X139036266Y-99011323D02*
X139164973Y-99171531D01*
X139287271Y-99331438D01*
X139339104Y-99401808D01*
X139338544Y-97325478D02*
X139161114Y-97424379D01*
X138980239Y-97546086D01*
X138829710Y-97683861D01*
X138796851Y-97723103D01*
X139339104Y-99401808D02*
X139454989Y-99567977D01*
X139524196Y-99681824D01*
X139447194Y-100227160D02*
X139283796Y-100097343D01*
X139146065Y-99943523D01*
X139017571Y-99760295D01*
X138978865Y-99694847D01*
X139508231Y-96951097D02*
X139668681Y-97033981D01*
X139524196Y-99681824D02*
X139598150Y-99869457D01*
X139654980Y-100067510D01*
X139669245Y-100127613D01*
X139616038Y-97165450D02*
X139436664Y-97272583D01*
X139338541Y-97325479D01*
X139639426Y-100334546D02*
X139460477Y-100234970D01*
X139447194Y-100227160D01*
X139668681Y-97033981D02*
X139713064Y-97092785D01*
X139669245Y-100127613D02*
X139703267Y-100328245D01*
X139698083Y-97106786D02*
X139616038Y-97165450D01*
X139703267Y-100328245D02*
X139703410Y-100366047D01*
X139703410Y-100366049D02*
X139639426Y-100334546D01*
X139713064Y-97092785D02*
X139698083Y-97106786D01*
X139852379Y-103007312D02*
X140063679Y-102995461D01*
X140268715Y-102993808D01*
X140349410Y-102999052D01*
X140075129Y-105497646D02*
X140079945Y-105704840D01*
X140094480Y-105913966D01*
X140098371Y-105952535D01*
X140098371Y-105952535D02*
X140128307Y-106156244D01*
X140156895Y-106247813D01*
X140102715Y-105000616D02*
X140080688Y-105200915D01*
X140075417Y-105412478D01*
X140075133Y-105497646D01*
X140156895Y-106247813D02*
X140281978Y-106408671D01*
X140361587Y-106490028D01*
X140229003Y-104758820D02*
X140119925Y-104934262D01*
X140102715Y-105000616D01*
X140349410Y-102999052D02*
X140546548Y-103046562D01*
X140609826Y-103079277D01*
X140361587Y-106490028D02*
X140510515Y-106631122D01*
X140666615Y-106767473D01*
X140729110Y-106819189D01*
X140368171Y-104651994D02*
X140229003Y-104758820D01*
X140501599Y-104604952D02*
X140368171Y-104651994D01*
X140609826Y-103079277D02*
X140780221Y-103227767D01*
X140894865Y-103405148D01*
X140968030Y-103606697D01*
X140990813Y-103813205D01*
X140982949Y-103898467D01*
X140616686Y-104539147D02*
X140501599Y-104604952D01*
X140729110Y-106819189D02*
X140881364Y-106950186D01*
X141035078Y-107094787D01*
X141180119Y-107242383D01*
X141324852Y-107404212D01*
X141427893Y-107538833D01*
X140770836Y-104358816D02*
X140640042Y-104517062D01*
X140616686Y-104539147D01*
X140982949Y-103898467D02*
X140920619Y-104093925D01*
X140826372Y-104273808D01*
X140770836Y-104358816D01*
X141427893Y-107538833D02*
X141557373Y-107713533D01*
X141704929Y-107851836D01*
X141884946Y-107951909D01*
X142038611Y-108009402D01*
X142038611Y-108009402D02*
X142226978Y-108079181D01*
X142358671Y-108159211D01*
X142358671Y-108159211D02*
X142472991Y-108324095D01*
X142526681Y-108444409D01*
X142526681Y-108444409D02*
X142625734Y-108677536D01*
X142714521Y-108877141D01*
X142826218Y-109104466D01*
X142941949Y-109304194D01*
X143074448Y-109494612D01*
X143236450Y-109694004D01*
X143384974Y-109860437D01*
X143562629Y-110049918D01*
X143774788Y-110270162D01*
X143854104Y-110351747D01*
X143854104Y-110351747D02*
X144005462Y-110507429D01*
X144168911Y-110676492D01*
X144329767Y-110845276D01*
X144472898Y-111000755D01*
X144603990Y-111158757D01*
X144518865Y-111618406D02*
X144547192Y-111823238D01*
X144558207Y-111843820D01*
X144558207Y-111843820D02*
X144699522Y-112008866D01*
X144870637Y-112141575D01*
X145045018Y-112256107D01*
X145161644Y-112327690D01*
X144603990Y-111158757D02*
X144670494Y-111294145D01*
X144634792Y-111378711D02*
X144534920Y-111560650D01*
X144518865Y-111618406D01*
X144670494Y-111294145D02*
X144634792Y-111378711D01*
X145161644Y-112327690D02*
X145323960Y-112447334D01*
X145472852Y-112586945D01*
X145599872Y-112738476D01*
X145599872Y-112738476D02*
X145702888Y-112914847D01*
X145737220Y-113037114D01*
X145737220Y-113037114D02*
X145750355Y-113250469D01*
X145744757Y-113467238D01*
X145739177Y-113590708D01*
X145739177Y-113590711D02*
X145727462Y-113851524D01*
X145718988Y-114087684D01*
X145714087Y-114301046D01*
X145713494Y-114538520D01*
X145719657Y-114746903D01*
X145736888Y-114963669D01*
X145754858Y-115090905D01*
X145754858Y-115090902D02*
X145800247Y-115286431D01*
X145875608Y-115477677D01*
X145992475Y-115667923D01*
X146126862Y-115829867D01*
X146126862Y-115829867D02*
X146296316Y-115949451D01*
X146503570Y-115997290D01*
X146554028Y-115999558D01*
X146315859Y-118056829D02*
X146389297Y-118254960D01*
X146514176Y-118419244D01*
X146590136Y-118503597D01*
X146386563Y-117905200D02*
X146315859Y-118056829D01*
X146554028Y-115999558D02*
X146758061Y-115984677D01*
X146971180Y-115940123D01*
X147187044Y-115875083D01*
X147238250Y-115857450D01*
X146585516Y-117827774D02*
X146395665Y-117898328D01*
X146386563Y-117905200D01*
X146652160Y-118558620D02*
X146802295Y-118698901D01*
X146838792Y-118724250D01*
X146838792Y-118724250D02*
X147038724Y-118758553D01*
X146991261Y-117828491D02*
X146792233Y-117807293D01*
X146585516Y-117827774D01*
X147038724Y-118758553D02*
X147237017Y-118703278D01*
X147424167Y-118654385D01*
X147089827Y-117837591D02*
X146991261Y-117828491D01*
X147139530Y-117814770D02*
X147089827Y-117837591D01*
X147238250Y-115857450D02*
X147468276Y-115784260D01*
X147670511Y-115739690D01*
X147896275Y-115724509D01*
X148126492Y-115751718D01*
X148339244Y-115807237D01*
X148533236Y-115873418D01*
X148585974Y-115893011D01*
X147346043Y-117731885D02*
X147153848Y-117794385D01*
X147139530Y-117814770D01*
X147424167Y-118654385D02*
X147618647Y-118575170D01*
X147770290Y-118440622D01*
X147795471Y-118400130D01*
X147524274Y-117915700D02*
X147400384Y-117756444D01*
X147346043Y-117731869D01*
X147596938Y-118037927D02*
X147524274Y-117915700D01*
X147680943Y-118107792D02*
X147596938Y-118037927D01*
X147795471Y-118400130D02*
X147815492Y-118232119D01*
X147815492Y-118232119D02*
X147680943Y-118107792D01*
X148318823Y-117778367D02*
X148330511Y-117983662D01*
X148344725Y-118079946D01*
X148342202Y-117491910D02*
X148319999Y-117693655D01*
X148318820Y-117778367D01*
X148344725Y-118079946D02*
X148373427Y-118194753D01*
X148373427Y-118194753D02*
X148415290Y-118271899D01*
X148415290Y-118271899D02*
X148601075Y-118352997D01*
X148805353Y-118364584D01*
X148443568Y-117333000D02*
X148342202Y-117491910D01*
X148532053Y-117309060D02*
X148443568Y-117333000D01*
X148585974Y-115893011D02*
X148794971Y-115963515D01*
X149008565Y-116021205D01*
X149225938Y-116063418D01*
X149358262Y-116074462D01*
X148640283Y-117320679D02*
X148532056Y-117309060D01*
X148805353Y-118364584D02*
X149018429Y-118343979D01*
X149216287Y-118297409D01*
X149325205Y-118258038D01*
X148930241Y-117427786D02*
X148744409Y-117351528D01*
X148640283Y-117320679D01*
X149325205Y-118258038D02*
X149524096Y-118195953D01*
X149723634Y-118159816D01*
X149821816Y-118153312D01*
X149358262Y-116074462D02*
X149566036Y-116100204D01*
X149766773Y-116145773D01*
X149978881Y-116207380D01*
X150105208Y-116251433D01*
X149821816Y-118153312D02*
X150029815Y-118117399D01*
X150212441Y-118022824D01*
X149896721Y-117523552D02*
X149688137Y-117583721D01*
X149483910Y-117583672D01*
X149252722Y-117542279D01*
X149039873Y-117473646D01*
X148930241Y-117427786D01*
X150105208Y-116251433D02*
X150319384Y-116322155D01*
X150517189Y-116373524D01*
X150732961Y-116415028D01*
X150933080Y-116432884D01*
X150212441Y-118022824D02*
X150351480Y-117877940D01*
X150397672Y-117725725D01*
X150220701Y-117503810D02*
X150019071Y-117482585D01*
X149896721Y-117523552D01*
X150397672Y-117725725D02*
X150297596Y-117545066D01*
X150220701Y-117503810D01*
X150933080Y-116432884D02*
X151137061Y-116438192D01*
X151340027Y-116462367D01*
X151533697Y-116530394D01*
X151545897Y-116537611D01*
X151545897Y-116537611D02*
X151691272Y-116676638D01*
X151792341Y-116863889D01*
X151840336Y-116985778D01*
X151840336Y-116985781D02*
X151916252Y-117171578D01*
X151990425Y-117323062D01*
X151990425Y-117323062D02*
X152094927Y-117493751D01*
X152138834Y-117542876D01*
X152138834Y-117542876D02*
X152324084Y-117635735D01*
X152414651Y-117663984D01*
X152414651Y-117663984D02*
X152616802Y-117714289D01*
X152818378Y-117752165D01*
X152884101Y-117762409D01*
X152884101Y-117762409D02*
X153087336Y-117793956D01*
X153301691Y-117830833D01*
X153517200Y-117873198D01*
X153722855Y-117921320D01*
X153763355Y-117932101D01*
X153521825Y-122787710D02*
X153573768Y-122971961D01*
X153551784Y-120277522D02*
X153629348Y-120460374D01*
X153559767Y-122653861D02*
X153521825Y-122787710D01*
X153573768Y-122971961D02*
X153668918Y-123158181D01*
X153784031Y-123338035D01*
X153886688Y-123479630D01*
X153606527Y-120128273D02*
X153551784Y-120277522D01*
X153629348Y-120460374D02*
X153753078Y-120622316D01*
X153801140Y-120676408D01*
X153633412Y-122616621D02*
X153559767Y-122653861D01*
X153724837Y-122620850D02*
X153633412Y-122616621D01*
X153763355Y-117932101D02*
X153967262Y-117997976D01*
X154149356Y-118095748D01*
X154160560Y-118106131D01*
X153783778Y-120088792D02*
X153606527Y-120128273D01*
X153801140Y-120676408D02*
X153944967Y-120817950D01*
X153999812Y-120863460D01*
X153886688Y-123479630D02*
X153998544Y-123658543D01*
X154081355Y-123842529D01*
X154094041Y-123884540D01*
X153941711Y-122723868D02*
X153761708Y-122631256D01*
X153724837Y-122620822D01*
X153999812Y-120863460D02*
X154171882Y-120949004D01*
X154094041Y-123884540D02*
X154184826Y-124066897D01*
X154313496Y-124171421D01*
X154160560Y-118106131D02*
X154199622Y-118172775D01*
X154161246Y-121123456D02*
X154161085Y-121337124D01*
X154230595Y-121532331D01*
X154355856Y-121715374D01*
X154426842Y-121789060D01*
X154167827Y-120948166D02*
X154175387Y-120977287D01*
X154171882Y-120949004D02*
X154167825Y-120948166D01*
X154175387Y-120977287D02*
X154161246Y-121123456D01*
X154199622Y-118172775D02*
X154248485Y-118302843D01*
X154248485Y-118302843D02*
X154304154Y-118506537D01*
X154335430Y-118660565D01*
X154313496Y-124171421D02*
X154367478Y-124189055D01*
X154335430Y-118660565D02*
X154373893Y-118858583D01*
X154417616Y-119047550D01*
X154367478Y-124189055D02*
X154515607Y-124236102D01*
X154399962Y-120301745D02*
X154210873Y-120207700D01*
X154008770Y-120129938D01*
X153798881Y-120089057D01*
X153783784Y-120088792D01*
X154417616Y-119047550D02*
X154474095Y-119246964D01*
X154500921Y-119317207D01*
X154492226Y-121853182D02*
X154676993Y-121935064D01*
X154865910Y-121944744D01*
X154500921Y-119317207D02*
X154634864Y-119470686D01*
X154800819Y-119512518D01*
X154501046Y-123239659D02*
X154350324Y-123075899D01*
X154205404Y-122934322D01*
X154052025Y-122803478D01*
X153941711Y-122723868D01*
X154515607Y-124236102D02*
X154684457Y-124168052D01*
X154684457Y-124168052D02*
X154824098Y-124022889D01*
X154826566Y-124016984D01*
X154800819Y-119512515D02*
X154999973Y-119459523D01*
X155165606Y-119347276D01*
X155203344Y-119312863D01*
X154826566Y-124016984D02*
X154839863Y-123815405D01*
X154836786Y-123800533D01*
X154836786Y-123800533D02*
X154764301Y-123609180D01*
X154654602Y-123432045D01*
X154518349Y-123259562D01*
X154501046Y-123239659D01*
X154865910Y-121944744D02*
X155066469Y-121895938D01*
X155238333Y-121787096D01*
X154926395Y-120710151D02*
X154777107Y-120552967D01*
X154601956Y-120422826D01*
X154420854Y-120313223D01*
X154399962Y-120301745D01*
X155203344Y-119312863D02*
X155358316Y-119182892D01*
X155391236Y-119170894D01*
X155238333Y-121787096D02*
X155364499Y-121623525D01*
X155407883Y-121447857D01*
X155239874Y-121095175D02*
X155101951Y-120938619D01*
X154978071Y-120781599D01*
X154926395Y-120710151D01*
X155391236Y-119170894D02*
X155584742Y-119232006D01*
X155606150Y-119242159D01*
X155407885Y-121447857D02*
X155353781Y-121246953D01*
X155239874Y-121095175D01*
X155606150Y-119242159D02*
X155780268Y-119368801D01*
X155931710Y-119523857D01*
X156064883Y-119690007D01*
X156111721Y-119756691D01*
X156111723Y-119756641D02*
X156241450Y-119937405D01*
X156390631Y-120101181D01*
X156573843Y-120242945D01*
X156746696Y-120347438D01*
X156970308Y-120467084D01*
X157077083Y-120521648D01*
X157077083Y-120521648D02*
X157330650Y-120657997D01*
X157567818Y-120801924D01*
X157789290Y-120954122D01*
X157995769Y-121115286D01*
X158187960Y-121286107D01*
X158366567Y-121467281D01*
X158532292Y-121659500D01*
X158685841Y-121863458D01*
X158827916Y-122079849D01*
X158959222Y-122309365D01*
X159041124Y-122470012D01*
X159041124Y-122470012D02*
X159133012Y-122666548D01*
X159221271Y-122870990D01*
X159305607Y-123082418D01*
X159385728Y-123299908D01*
X159461338Y-123522539D01*
X159532145Y-123749388D01*
X159597856Y-123979535D01*
X159658177Y-124212057D01*
X159712815Y-124446032D01*
X159761475Y-124680539D01*
X159790451Y-124836717D01*
X160855637Y-125386386D02*
X161057717Y-125384455D01*
X161315679Y-125375892D01*
X161518199Y-125366536D01*
X161744805Y-125354291D01*
X161995197Y-125339178D01*
X162269075Y-125321220D01*
X162566140Y-125300441D01*
X162886091Y-125276864D01*
X163228629Y-125250511D01*
X163593454Y-125221405D01*
X163980265Y-125189569D01*
X164181822Y-125172635D01*
X164388763Y-125155027D01*
X164601051Y-125136748D01*
X164818649Y-125117801D01*
X165041517Y-125098189D01*
X165269620Y-125077914D01*
X165502920Y-125056980D01*
X165741380Y-125035390D01*
X165741380Y-125035390D02*
X165943680Y-125017012D01*
X166143834Y-124998866D01*
X166439465Y-124972134D01*
X166728786Y-124946054D01*
X167010908Y-124920704D01*
X167284943Y-124896161D01*
X167550002Y-124872504D01*
X167805196Y-124849810D01*
X168049638Y-124828156D01*
X168282438Y-124807621D01*
X168502709Y-124788282D01*
X168573195Y-124782115D01*
X168573195Y-124782115D02*
X168775376Y-124764485D01*
X168992736Y-124745652D01*
X169215000Y-124726578D01*
X169429194Y-124708480D01*
X169471351Y-124704968D01*
X169471351Y-124704968D02*
X169672887Y-124688550D01*
X169731907Y-124683964D01*
X169731907Y-124683993D02*
X169842094Y-124676825D01*
X169842094Y-124676854D02*
X169986163Y-124635972D01*
X169967539Y-121546006D02*
X169969244Y-121333667D01*
X169976237Y-121124038D01*
X169995006Y-120907864D01*
X170031663Y-120727235D01*
X169986163Y-124635972D02*
X170039226Y-124509126D01*
X169990220Y-122125081D02*
X169972233Y-121909183D01*
X169968113Y-121701903D01*
X169967539Y-121546006D01*
X170024942Y-122231769D02*
X169990220Y-122125081D01*
X170031663Y-120727235D02*
X170124015Y-120542760D01*
X170277773Y-120413493D01*
X170304120Y-120397514D01*
X170039226Y-124509126D02*
X170047487Y-124459843D01*
X170047487Y-124459843D02*
X170075209Y-124437162D01*
X170075209Y-124437162D02*
X170280986Y-124419154D01*
X170303283Y-124419521D01*
X170079966Y-122280349D02*
X170024942Y-122231769D01*
X170303283Y-124419521D02*
X170507652Y-124413079D01*
X170588340Y-124384237D01*
X170304120Y-120397514D02*
X170465422Y-120272915D01*
X170479831Y-120258486D01*
X170457009Y-122481682D02*
X170270761Y-122382513D01*
X170086998Y-122284137D01*
X170079966Y-122280349D01*
X170459250Y-113386300D02*
X170402721Y-113188311D01*
X170397645Y-113064419D01*
X170479831Y-120258486D02*
X170584557Y-120106017D01*
X170584557Y-120106017D02*
X170692835Y-119933516D01*
X170761948Y-119864641D01*
X170588340Y-124384237D02*
X170660025Y-124300374D01*
X170660025Y-124300374D02*
X170707348Y-124166940D01*
X170707348Y-124166940D02*
X170770352Y-124009715D01*
X170761948Y-119864641D02*
X170866997Y-119693570D01*
X170909652Y-119478882D01*
X170918338Y-119389172D01*
X170766428Y-113807306D02*
X170632684Y-113643212D01*
X170512531Y-113478676D01*
X170459250Y-113386300D01*
X170770352Y-124009715D02*
X170799613Y-123966453D01*
X170799613Y-123966475D02*
X170802273Y-123959737D01*
X170802273Y-123959758D02*
X170876057Y-123913830D01*
X170876057Y-123913830D02*
X170899439Y-123825206D01*
X170897897Y-118282123D02*
X170895108Y-118066731D01*
X170916400Y-117856666D01*
X170946620Y-117723768D01*
X170899439Y-123825206D02*
X170927861Y-123745959D01*
X170918338Y-119389172D02*
X170928118Y-119179838D01*
X170928362Y-118961592D01*
X170922551Y-118746817D01*
X170911315Y-118505090D01*
X170897897Y-118282123D01*
X170927861Y-123745959D02*
X171000245Y-123659716D01*
X170946620Y-117723768D02*
X171022644Y-117559398D01*
X170994783Y-123071817D02*
X170881739Y-122877604D01*
X170753037Y-122716278D01*
X170602667Y-122576959D01*
X170457009Y-122481682D01*
X171000245Y-123659716D02*
X171089280Y-123471694D01*
X171090410Y-123406024D01*
X171022644Y-117559398D02*
X171103010Y-117508156D01*
X171090408Y-123406024D02*
X171048182Y-123201580D01*
X170994783Y-123071817D01*
X171103010Y-117508156D02*
X171210956Y-117467973D01*
X171210956Y-117467973D02*
X171331644Y-117378927D01*
X171331644Y-117378927D02*
X171502992Y-117268945D01*
X171528075Y-117255440D01*
X171528075Y-117255440D02*
X171712529Y-117165483D01*
X171828254Y-117116411D01*
X171970083Y-115483490D02*
X171866367Y-115291062D01*
X171766275Y-115117386D01*
X171633321Y-114908657D01*
X171510343Y-114733963D01*
X171363399Y-114539612D01*
X171232357Y-114373839D01*
X171079478Y-114185376D01*
X170901182Y-113969237D01*
X170766428Y-113807306D01*
X172246600Y-116497573D02*
X172250082Y-116270635D01*
X172221710Y-116056689D01*
X172155539Y-115861764D01*
X172058863Y-115655300D01*
X171970083Y-115483490D01*
D13*
%TO.C,SW1*%
X112500000Y-78000000D02*
X112500000Y-110500000D01*
D14*
X112500000Y-92500000D02*
X108000000Y-92500000D01*
D11*
X114000000Y-83000000D02*
X121000000Y-83000000D01*
D15*
X114000000Y-85000000D02*
X121000000Y-85000000D01*
D16*
X114000000Y-89250000D02*
X121000000Y-89250000D01*
D11*
X119500000Y-78000000D02*
X112500000Y-78000000D01*
X119500000Y-80000000D02*
X112500000Y-80000000D01*
X119500000Y-82000000D02*
X112500000Y-82000000D01*
D15*
X119500000Y-84000000D02*
X112500000Y-84000000D01*
D17*
X119500000Y-86000000D02*
X112500000Y-86000000D01*
D16*
X119500000Y-88000000D02*
X112500000Y-88000000D01*
D18*
X119500000Y-90500000D02*
X112500000Y-90500000D01*
D19*
X119500000Y-92500000D02*
X112500000Y-92500000D01*
D14*
X119500000Y-94500000D02*
X112500000Y-94500000D01*
D20*
X119500000Y-96500000D02*
X112500000Y-96500000D01*
D21*
X119500000Y-98500000D02*
X112500000Y-98500000D01*
D22*
X119500000Y-100500000D02*
X112500000Y-100500000D01*
D23*
X119500000Y-102500000D02*
X112500000Y-102500000D01*
D13*
X119500000Y-104500000D02*
X112500000Y-104500000D01*
D24*
X119500000Y-106500000D02*
X112500000Y-106500000D01*
X119500000Y-108500000D02*
X112500000Y-108500000D01*
X119500000Y-110500000D02*
X112500000Y-110500000D01*
X120939721Y-107516596D02*
X113939721Y-107516596D01*
D11*
X121000000Y-79000000D02*
X114000000Y-79000000D01*
D13*
X121000000Y-79000000D02*
X121000000Y-111500000D01*
D11*
X121000000Y-81000000D02*
X114000000Y-81000000D01*
D17*
X121000000Y-87000000D02*
X114000000Y-87000000D01*
D18*
X121000000Y-91500000D02*
X114000000Y-91500000D01*
D19*
X121000000Y-93500000D02*
X114000000Y-93500000D01*
D14*
X121000000Y-95500000D02*
X114000000Y-95500000D01*
D20*
X121000000Y-97500000D02*
X114000000Y-97500000D01*
D21*
X121000000Y-99500000D02*
X114000000Y-99500000D01*
D22*
X121000000Y-101500000D02*
X114000000Y-101500000D01*
D23*
X121000000Y-103500000D02*
X114000000Y-103500000D01*
D13*
X121000000Y-105500000D02*
X114000000Y-105500000D01*
D24*
X121000000Y-109500000D02*
X114000000Y-109500000D01*
X121000000Y-111500000D02*
X114000000Y-111500000D01*
D14*
X121250000Y-93500000D02*
X126000000Y-93500000D01*
%TD*%
D25*
%TO.P,DV,*%
%TO.N,*%
X166500000Y-88000000D03*
D26*
%TO.P,DV,1*%
%TO.N,N/C*%
X167500000Y-88000000D03*
%TD*%
D27*
%TO.P,RW,1,K*%
%TO.N,Net-(BT1--)*%
X132000000Y-79320000D03*
%TO.P,RW,2,A*%
%TO.N,Net-(D2-A)*%
X132000000Y-78680000D03*
%TD*%
D28*
%TO.P,YM,1,K*%
%TO.N,Net-(BT1--)*%
X145680000Y-96000000D03*
%TO.P,YM,2,A*%
%TO.N,Net-(D4-A)*%
X146320000Y-96000000D03*
%TD*%
%TO.P,CI,1,K*%
%TO.N,Net-(BT1--)*%
X147180000Y-117000000D03*
%TO.P,CI,2,A*%
%TO.N,Net-(D5-A)*%
X147820000Y-117000000D03*
%TD*%
D25*
%TO.P,CI,*%
%TO.N,*%
X166500000Y-95500000D03*
D26*
%TO.P,CI,1*%
%TO.N,N/C*%
X167500000Y-95500000D03*
%TD*%
D25*
%TO.P,RW,*%
%TO.N,*%
X156000000Y-80500000D03*
D26*
%TO.P,RW,1*%
%TO.N,N/C*%
X157000000Y-80500000D03*
%TD*%
D28*
%TO.P,JT,1,K*%
%TO.N,Net-(BT1--)*%
X166335000Y-117000000D03*
%TO.P,JT,2,A*%
%TO.N,Net-(D3-A)*%
X166975000Y-117000000D03*
%TD*%
%TO.P,DV,1,K*%
%TO.N,Net-(BT1--)*%
X157680000Y-105500000D03*
%TO.P,DV,2,A*%
%TO.N,Net-(D6-A)*%
X158320000Y-105500000D03*
%TD*%
%TO.P,SQ,1,K*%
%TO.N,Net-(BT1--)*%
X148180000Y-98500000D03*
%TO.P,SQ,2,A*%
%TO.N,Net-(D7-A)*%
X148820000Y-98500000D03*
%TD*%
D25*
%TO.P,JT,*%
%TO.N,*%
X166500000Y-103000000D03*
D26*
%TO.P,JT,1,1*%
%TO.N,Net-(SW1B-2)*%
X167500000Y-103000000D03*
%TD*%
D25*
%TO.P,YM,*%
%TO.N,*%
X156000000Y-88000000D03*
D26*
%TO.P,YM,1,1*%
%TO.N,Net-(SW1B-2)*%
X157000000Y-88000000D03*
%TD*%
D25*
%TO.P,SQ,*%
%TO.N,*%
X166500000Y-80500000D03*
D26*
%TO.P,SQ,1,1*%
%TO.N,Net-(SW1B-2)*%
X167500000Y-80500000D03*
%TD*%
D29*
%TO.N,*%
X108000000Y-91500000D03*
%TO.N,Net-(BT1--)*%
X132000000Y-80500000D03*
X126500000Y-94500000D03*
X157000000Y-105500000D03*
X147500000Y-98500000D03*
X165000000Y-117000000D03*
X146000000Y-117000000D03*
X145000000Y-96000000D03*
%TO.N,Net-(D3-A)*%
X168500000Y-117000000D03*
%TO.N,Net-(D5-A)*%
X149500000Y-117000000D03*
%TO.N,Net-(SW1B-2)*%
X169000000Y-95500000D03*
X169500000Y-103000000D03*
X158500000Y-80500000D03*
X158500000Y-88000000D03*
X169000000Y-80500000D03*
X169000000Y-88000000D03*
%TO.N,Net-(D2-A)*%
X132000000Y-77500000D03*
%TO.N,Net-(D4-A)*%
X147050000Y-96010049D03*
%TO.N,Net-(D6-A)*%
X159050000Y-105510049D03*
%TO.N,Net-(D7-A)*%
X149550000Y-98510049D03*
%TD*%
D30*
%TO.N,*%
X108000000Y-92500000D02*
X108000000Y-91500000D01*
%TO.N,Net-(BT1--)*%
X126500000Y-94000000D02*
X126500000Y-94500000D01*
X126000000Y-93500000D02*
X126500000Y-94000000D01*
D10*
%TO.N,Net-(SW1B-2)*%
X169000000Y-103000000D02*
X169500000Y-103000000D01*
%TD*%
M02*
