%TF.GenerationSoftware,KiCad,Pcbnew,8.0.8*%
%TF.CreationDate,2025-07-15T17:27:57-07:00*%
%TF.ProjectId,Map Lights,4d617020-4c69-4676-9874-732e6b696361,rev?*%
%TF.SameCoordinates,Original*%
%TF.FileFunction,Legend,Top*%
%TF.FilePolarity,Positive*%
%FSLAX46Y46*%
G04 Gerber Fmt 4.6, Leading zero omitted, Abs format (unit mm)*
G04 Created by KiCad (PCBNEW 8.0.8) date 2025-07-15 17:27:57*
%MOMM*%
%LPD*%
G01*
G04 APERTURE LIST*
%ADD10C,0.200000*%
%ADD11C,0.300000*%
%ADD12C,0.100000*%
%ADD13C,0.150000*%
G04 APERTURE END LIST*
D10*
X122155387Y-121748171D02*
X122107768Y-121700552D01*
X122107768Y-121700552D02*
X122012530Y-121557695D01*
X122012530Y-121557695D02*
X121964911Y-121462457D01*
X121964911Y-121462457D02*
X121917292Y-121319600D01*
X121917292Y-121319600D02*
X121869673Y-121081504D01*
X121869673Y-121081504D02*
X121869673Y-120891028D01*
X121869673Y-120891028D02*
X121917292Y-120652933D01*
X121917292Y-120652933D02*
X121964911Y-120510076D01*
X121964911Y-120510076D02*
X122012530Y-120414838D01*
X122012530Y-120414838D02*
X122107768Y-120271980D01*
X122107768Y-120271980D02*
X122155387Y-120224361D01*
X122964911Y-120367219D02*
X122774435Y-120367219D01*
X122774435Y-120367219D02*
X122679197Y-120414838D01*
X122679197Y-120414838D02*
X122631578Y-120462457D01*
X122631578Y-120462457D02*
X122536340Y-120605314D01*
X122536340Y-120605314D02*
X122488721Y-120795790D01*
X122488721Y-120795790D02*
X122488721Y-121176742D01*
X122488721Y-121176742D02*
X122536340Y-121271980D01*
X122536340Y-121271980D02*
X122583959Y-121319600D01*
X122583959Y-121319600D02*
X122679197Y-121367219D01*
X122679197Y-121367219D02*
X122869673Y-121367219D01*
X122869673Y-121367219D02*
X122964911Y-121319600D01*
X122964911Y-121319600D02*
X123012530Y-121271980D01*
X123012530Y-121271980D02*
X123060149Y-121176742D01*
X123060149Y-121176742D02*
X123060149Y-120938647D01*
X123060149Y-120938647D02*
X123012530Y-120843409D01*
X123012530Y-120843409D02*
X122964911Y-120795790D01*
X122964911Y-120795790D02*
X122869673Y-120748171D01*
X122869673Y-120748171D02*
X122679197Y-120748171D01*
X122679197Y-120748171D02*
X122583959Y-120795790D01*
X122583959Y-120795790D02*
X122536340Y-120843409D01*
X122536340Y-120843409D02*
X122488721Y-120938647D01*
X124203006Y-120319600D02*
X123345864Y-121605314D01*
X124583959Y-121367219D02*
X124774435Y-121367219D01*
X124774435Y-121367219D02*
X124869673Y-121319600D01*
X124869673Y-121319600D02*
X124917292Y-121271980D01*
X124917292Y-121271980D02*
X125012530Y-121129123D01*
X125012530Y-121129123D02*
X125060149Y-120938647D01*
X125060149Y-120938647D02*
X125060149Y-120557695D01*
X125060149Y-120557695D02*
X125012530Y-120462457D01*
X125012530Y-120462457D02*
X124964911Y-120414838D01*
X124964911Y-120414838D02*
X124869673Y-120367219D01*
X124869673Y-120367219D02*
X124679197Y-120367219D01*
X124679197Y-120367219D02*
X124583959Y-120414838D01*
X124583959Y-120414838D02*
X124536340Y-120462457D01*
X124536340Y-120462457D02*
X124488721Y-120557695D01*
X124488721Y-120557695D02*
X124488721Y-120795790D01*
X124488721Y-120795790D02*
X124536340Y-120891028D01*
X124536340Y-120891028D02*
X124583959Y-120938647D01*
X124583959Y-120938647D02*
X124679197Y-120986266D01*
X124679197Y-120986266D02*
X124869673Y-120986266D01*
X124869673Y-120986266D02*
X124964911Y-120938647D01*
X124964911Y-120938647D02*
X125012530Y-120891028D01*
X125012530Y-120891028D02*
X125060149Y-120795790D01*
X126583959Y-120843409D02*
X126250626Y-120843409D01*
X126250626Y-121367219D02*
X126250626Y-120367219D01*
X126250626Y-120367219D02*
X126726816Y-120367219D01*
X127250626Y-121367219D02*
X127155388Y-121319600D01*
X127155388Y-121319600D02*
X127107769Y-121271980D01*
X127107769Y-121271980D02*
X127060150Y-121176742D01*
X127060150Y-121176742D02*
X127060150Y-120891028D01*
X127060150Y-120891028D02*
X127107769Y-120795790D01*
X127107769Y-120795790D02*
X127155388Y-120748171D01*
X127155388Y-120748171D02*
X127250626Y-120700552D01*
X127250626Y-120700552D02*
X127393483Y-120700552D01*
X127393483Y-120700552D02*
X127488721Y-120748171D01*
X127488721Y-120748171D02*
X127536340Y-120795790D01*
X127536340Y-120795790D02*
X127583959Y-120891028D01*
X127583959Y-120891028D02*
X127583959Y-121176742D01*
X127583959Y-121176742D02*
X127536340Y-121271980D01*
X127536340Y-121271980D02*
X127488721Y-121319600D01*
X127488721Y-121319600D02*
X127393483Y-121367219D01*
X127393483Y-121367219D02*
X127250626Y-121367219D01*
X128012531Y-121367219D02*
X128012531Y-120700552D01*
X128012531Y-120891028D02*
X128060150Y-120795790D01*
X128060150Y-120795790D02*
X128107769Y-120748171D01*
X128107769Y-120748171D02*
X128203007Y-120700552D01*
X128203007Y-120700552D02*
X128298245Y-120700552D01*
X129250627Y-120367219D02*
X129822055Y-120367219D01*
X129536341Y-121367219D02*
X129536341Y-120367219D01*
X130536341Y-121319600D02*
X130441103Y-121367219D01*
X130441103Y-121367219D02*
X130250627Y-121367219D01*
X130250627Y-121367219D02*
X130155389Y-121319600D01*
X130155389Y-121319600D02*
X130107770Y-121224361D01*
X130107770Y-121224361D02*
X130107770Y-120843409D01*
X130107770Y-120843409D02*
X130155389Y-120748171D01*
X130155389Y-120748171D02*
X130250627Y-120700552D01*
X130250627Y-120700552D02*
X130441103Y-120700552D01*
X130441103Y-120700552D02*
X130536341Y-120748171D01*
X130536341Y-120748171D02*
X130583960Y-120843409D01*
X130583960Y-120843409D02*
X130583960Y-120938647D01*
X130583960Y-120938647D02*
X130107770Y-121033885D01*
X130964913Y-121319600D02*
X131060151Y-121367219D01*
X131060151Y-121367219D02*
X131250627Y-121367219D01*
X131250627Y-121367219D02*
X131345865Y-121319600D01*
X131345865Y-121319600D02*
X131393484Y-121224361D01*
X131393484Y-121224361D02*
X131393484Y-121176742D01*
X131393484Y-121176742D02*
X131345865Y-121081504D01*
X131345865Y-121081504D02*
X131250627Y-121033885D01*
X131250627Y-121033885D02*
X131107770Y-121033885D01*
X131107770Y-121033885D02*
X131012532Y-120986266D01*
X131012532Y-120986266D02*
X130964913Y-120891028D01*
X130964913Y-120891028D02*
X130964913Y-120843409D01*
X130964913Y-120843409D02*
X131012532Y-120748171D01*
X131012532Y-120748171D02*
X131107770Y-120700552D01*
X131107770Y-120700552D02*
X131250627Y-120700552D01*
X131250627Y-120700552D02*
X131345865Y-120748171D01*
X131679199Y-120700552D02*
X132060151Y-120700552D01*
X131822056Y-120367219D02*
X131822056Y-121224361D01*
X131822056Y-121224361D02*
X131869675Y-121319600D01*
X131869675Y-121319600D02*
X131964913Y-121367219D01*
X131964913Y-121367219D02*
X132060151Y-121367219D01*
X132298247Y-121748171D02*
X132345866Y-121700552D01*
X132345866Y-121700552D02*
X132441104Y-121557695D01*
X132441104Y-121557695D02*
X132488723Y-121462457D01*
X132488723Y-121462457D02*
X132536342Y-121319600D01*
X132536342Y-121319600D02*
X132583961Y-121081504D01*
X132583961Y-121081504D02*
X132583961Y-120891028D01*
X132583961Y-120891028D02*
X132536342Y-120652933D01*
X132536342Y-120652933D02*
X132488723Y-120510076D01*
X132488723Y-120510076D02*
X132441104Y-120414838D01*
X132441104Y-120414838D02*
X132345866Y-120271980D01*
X132345866Y-120271980D02*
X132298247Y-120224361D01*
D11*
X188445489Y-79729400D02*
X187302632Y-79729400D01*
X187874060Y-80300828D02*
X187874060Y-79157971D01*
X188445489Y-121229400D02*
X187302632Y-121229400D01*
X118911653Y-118657971D02*
X118840225Y-118729400D01*
X118840225Y-118729400D02*
X118625939Y-118800828D01*
X118625939Y-118800828D02*
X118483082Y-118800828D01*
X118483082Y-118800828D02*
X118268796Y-118729400D01*
X118268796Y-118729400D02*
X118125939Y-118586542D01*
X118125939Y-118586542D02*
X118054510Y-118443685D01*
X118054510Y-118443685D02*
X117983082Y-118157971D01*
X117983082Y-118157971D02*
X117983082Y-117943685D01*
X117983082Y-117943685D02*
X118054510Y-117657971D01*
X118054510Y-117657971D02*
X118125939Y-117515114D01*
X118125939Y-117515114D02*
X118268796Y-117372257D01*
X118268796Y-117372257D02*
X118483082Y-117300828D01*
X118483082Y-117300828D02*
X118625939Y-117300828D01*
X118625939Y-117300828D02*
X118840225Y-117372257D01*
X118840225Y-117372257D02*
X118911653Y-117443685D01*
X119483082Y-118372257D02*
X120197368Y-118372257D01*
X119340225Y-118800828D02*
X119840225Y-117300828D01*
X119840225Y-117300828D02*
X120340225Y-118800828D01*
X121911653Y-118729400D02*
X122125939Y-118800828D01*
X122125939Y-118800828D02*
X122483081Y-118800828D01*
X122483081Y-118800828D02*
X122625939Y-118729400D01*
X122625939Y-118729400D02*
X122697367Y-118657971D01*
X122697367Y-118657971D02*
X122768796Y-118515114D01*
X122768796Y-118515114D02*
X122768796Y-118372257D01*
X122768796Y-118372257D02*
X122697367Y-118229400D01*
X122697367Y-118229400D02*
X122625939Y-118157971D01*
X122625939Y-118157971D02*
X122483081Y-118086542D01*
X122483081Y-118086542D02*
X122197367Y-118015114D01*
X122197367Y-118015114D02*
X122054510Y-117943685D01*
X122054510Y-117943685D02*
X121983081Y-117872257D01*
X121983081Y-117872257D02*
X121911653Y-117729400D01*
X121911653Y-117729400D02*
X121911653Y-117586542D01*
X121911653Y-117586542D02*
X121983081Y-117443685D01*
X121983081Y-117443685D02*
X122054510Y-117372257D01*
X122054510Y-117372257D02*
X122197367Y-117300828D01*
X122197367Y-117300828D02*
X122554510Y-117300828D01*
X122554510Y-117300828D02*
X122768796Y-117372257D01*
X123197367Y-117300828D02*
X124054510Y-117300828D01*
X123625938Y-118800828D02*
X123625938Y-117300828D01*
X124483081Y-118372257D02*
X125197367Y-118372257D01*
X124340224Y-118800828D02*
X124840224Y-117300828D01*
X124840224Y-117300828D02*
X125340224Y-118800828D01*
X125625938Y-117300828D02*
X126483081Y-117300828D01*
X126054509Y-118800828D02*
X126054509Y-117300828D01*
X126983080Y-118015114D02*
X127483080Y-118015114D01*
X127697366Y-118800828D02*
X126983080Y-118800828D01*
X126983080Y-118800828D02*
X126983080Y-117300828D01*
X126983080Y-117300828D02*
X127697366Y-117300828D01*
X129483080Y-118800828D02*
X129483080Y-117300828D01*
X129483080Y-117300828D02*
X130054509Y-117300828D01*
X130054509Y-117300828D02*
X130197366Y-117372257D01*
X130197366Y-117372257D02*
X130268795Y-117443685D01*
X130268795Y-117443685D02*
X130340223Y-117586542D01*
X130340223Y-117586542D02*
X130340223Y-117800828D01*
X130340223Y-117800828D02*
X130268795Y-117943685D01*
X130268795Y-117943685D02*
X130197366Y-118015114D01*
X130197366Y-118015114D02*
X130054509Y-118086542D01*
X130054509Y-118086542D02*
X129483080Y-118086542D01*
X130911652Y-118372257D02*
X131625938Y-118372257D01*
X130768795Y-118800828D02*
X131268795Y-117300828D01*
X131268795Y-117300828D02*
X131768795Y-118800828D01*
X133125937Y-118800828D02*
X132625937Y-118086542D01*
X132268794Y-118800828D02*
X132268794Y-117300828D01*
X132268794Y-117300828D02*
X132840223Y-117300828D01*
X132840223Y-117300828D02*
X132983080Y-117372257D01*
X132983080Y-117372257D02*
X133054509Y-117443685D01*
X133054509Y-117443685D02*
X133125937Y-117586542D01*
X133125937Y-117586542D02*
X133125937Y-117800828D01*
X133125937Y-117800828D02*
X133054509Y-117943685D01*
X133054509Y-117943685D02*
X132983080Y-118015114D01*
X132983080Y-118015114D02*
X132840223Y-118086542D01*
X132840223Y-118086542D02*
X132268794Y-118086542D01*
X133768794Y-118800828D02*
X133768794Y-117300828D01*
X134625937Y-118800828D02*
X133983080Y-117943685D01*
X134625937Y-117300828D02*
X133768794Y-118157971D01*
X135197366Y-118729400D02*
X135411652Y-118800828D01*
X135411652Y-118800828D02*
X135768794Y-118800828D01*
X135768794Y-118800828D02*
X135911652Y-118729400D01*
X135911652Y-118729400D02*
X135983080Y-118657971D01*
X135983080Y-118657971D02*
X136054509Y-118515114D01*
X136054509Y-118515114D02*
X136054509Y-118372257D01*
X136054509Y-118372257D02*
X135983080Y-118229400D01*
X135983080Y-118229400D02*
X135911652Y-118157971D01*
X135911652Y-118157971D02*
X135768794Y-118086542D01*
X135768794Y-118086542D02*
X135483080Y-118015114D01*
X135483080Y-118015114D02*
X135340223Y-117943685D01*
X135340223Y-117943685D02*
X135268794Y-117872257D01*
X135268794Y-117872257D02*
X135197366Y-117729400D01*
X135197366Y-117729400D02*
X135197366Y-117586542D01*
X135197366Y-117586542D02*
X135268794Y-117443685D01*
X135268794Y-117443685D02*
X135340223Y-117372257D01*
X135340223Y-117372257D02*
X135483080Y-117300828D01*
X135483080Y-117300828D02*
X135840223Y-117300828D01*
X135840223Y-117300828D02*
X136054509Y-117372257D01*
D12*
X165809524Y-85957419D02*
X165809524Y-84957419D01*
X165809524Y-84957419D02*
X166047619Y-84957419D01*
X166047619Y-84957419D02*
X166190476Y-85005038D01*
X166190476Y-85005038D02*
X166285714Y-85100276D01*
X166285714Y-85100276D02*
X166333333Y-85195514D01*
X166333333Y-85195514D02*
X166380952Y-85385990D01*
X166380952Y-85385990D02*
X166380952Y-85528847D01*
X166380952Y-85528847D02*
X166333333Y-85719323D01*
X166333333Y-85719323D02*
X166285714Y-85814561D01*
X166285714Y-85814561D02*
X166190476Y-85909800D01*
X166190476Y-85909800D02*
X166047619Y-85957419D01*
X166047619Y-85957419D02*
X165809524Y-85957419D01*
X166666667Y-84957419D02*
X167000000Y-85957419D01*
X167000000Y-85957419D02*
X167333333Y-84957419D01*
D13*
X128738095Y-79454819D02*
X128404762Y-78978628D01*
X128166667Y-79454819D02*
X128166667Y-78454819D01*
X128166667Y-78454819D02*
X128547619Y-78454819D01*
X128547619Y-78454819D02*
X128642857Y-78502438D01*
X128642857Y-78502438D02*
X128690476Y-78550057D01*
X128690476Y-78550057D02*
X128738095Y-78645295D01*
X128738095Y-78645295D02*
X128738095Y-78788152D01*
X128738095Y-78788152D02*
X128690476Y-78883390D01*
X128690476Y-78883390D02*
X128642857Y-78931009D01*
X128642857Y-78931009D02*
X128547619Y-78978628D01*
X128547619Y-78978628D02*
X128166667Y-78978628D01*
X129071429Y-78454819D02*
X129309524Y-79454819D01*
X129309524Y-79454819D02*
X129500000Y-78740533D01*
X129500000Y-78740533D02*
X129690476Y-79454819D01*
X129690476Y-79454819D02*
X129928572Y-78454819D01*
X145428571Y-94928628D02*
X145428571Y-95404819D01*
X145095238Y-94404819D02*
X145428571Y-94928628D01*
X145428571Y-94928628D02*
X145761904Y-94404819D01*
X146095238Y-95404819D02*
X146095238Y-94404819D01*
X146095238Y-94404819D02*
X146428571Y-95119104D01*
X146428571Y-95119104D02*
X146761904Y-94404819D01*
X146761904Y-94404819D02*
X146761904Y-95404819D01*
X148071428Y-119859580D02*
X148023809Y-119907200D01*
X148023809Y-119907200D02*
X147880952Y-119954819D01*
X147880952Y-119954819D02*
X147785714Y-119954819D01*
X147785714Y-119954819D02*
X147642857Y-119907200D01*
X147642857Y-119907200D02*
X147547619Y-119811961D01*
X147547619Y-119811961D02*
X147500000Y-119716723D01*
X147500000Y-119716723D02*
X147452381Y-119526247D01*
X147452381Y-119526247D02*
X147452381Y-119383390D01*
X147452381Y-119383390D02*
X147500000Y-119192914D01*
X147500000Y-119192914D02*
X147547619Y-119097676D01*
X147547619Y-119097676D02*
X147642857Y-119002438D01*
X147642857Y-119002438D02*
X147785714Y-118954819D01*
X147785714Y-118954819D02*
X147880952Y-118954819D01*
X147880952Y-118954819D02*
X148023809Y-119002438D01*
X148023809Y-119002438D02*
X148071428Y-119050057D01*
X148500000Y-119954819D02*
X148500000Y-118954819D01*
D12*
X166571428Y-93362180D02*
X166523809Y-93409800D01*
X166523809Y-93409800D02*
X166380952Y-93457419D01*
X166380952Y-93457419D02*
X166285714Y-93457419D01*
X166285714Y-93457419D02*
X166142857Y-93409800D01*
X166142857Y-93409800D02*
X166047619Y-93314561D01*
X166047619Y-93314561D02*
X166000000Y-93219323D01*
X166000000Y-93219323D02*
X165952381Y-93028847D01*
X165952381Y-93028847D02*
X165952381Y-92885990D01*
X165952381Y-92885990D02*
X166000000Y-92695514D01*
X166000000Y-92695514D02*
X166047619Y-92600276D01*
X166047619Y-92600276D02*
X166142857Y-92505038D01*
X166142857Y-92505038D02*
X166285714Y-92457419D01*
X166285714Y-92457419D02*
X166380952Y-92457419D01*
X166380952Y-92457419D02*
X166523809Y-92505038D01*
X166523809Y-92505038D02*
X166571428Y-92552657D01*
X167000000Y-93457419D02*
X167000000Y-92457419D01*
X155738095Y-78457419D02*
X155404762Y-77981228D01*
X155166667Y-78457419D02*
X155166667Y-77457419D01*
X155166667Y-77457419D02*
X155547619Y-77457419D01*
X155547619Y-77457419D02*
X155642857Y-77505038D01*
X155642857Y-77505038D02*
X155690476Y-77552657D01*
X155690476Y-77552657D02*
X155738095Y-77647895D01*
X155738095Y-77647895D02*
X155738095Y-77790752D01*
X155738095Y-77790752D02*
X155690476Y-77885990D01*
X155690476Y-77885990D02*
X155642857Y-77933609D01*
X155642857Y-77933609D02*
X155547619Y-77981228D01*
X155547619Y-77981228D02*
X155166667Y-77981228D01*
X156071429Y-77457419D02*
X156309524Y-78457419D01*
X156309524Y-78457419D02*
X156500000Y-77743133D01*
X156500000Y-77743133D02*
X156690476Y-78457419D01*
X156690476Y-78457419D02*
X156928572Y-77457419D01*
D13*
X166416904Y-115404819D02*
X166416904Y-116119104D01*
X166416904Y-116119104D02*
X166369285Y-116261961D01*
X166369285Y-116261961D02*
X166274047Y-116357200D01*
X166274047Y-116357200D02*
X166131190Y-116404819D01*
X166131190Y-116404819D02*
X166035952Y-116404819D01*
X166750238Y-115404819D02*
X167321666Y-115404819D01*
X167035952Y-116404819D02*
X167035952Y-115404819D01*
X157309524Y-104904819D02*
X157309524Y-103904819D01*
X157309524Y-103904819D02*
X157547619Y-103904819D01*
X157547619Y-103904819D02*
X157690476Y-103952438D01*
X157690476Y-103952438D02*
X157785714Y-104047676D01*
X157785714Y-104047676D02*
X157833333Y-104142914D01*
X157833333Y-104142914D02*
X157880952Y-104333390D01*
X157880952Y-104333390D02*
X157880952Y-104476247D01*
X157880952Y-104476247D02*
X157833333Y-104666723D01*
X157833333Y-104666723D02*
X157785714Y-104761961D01*
X157785714Y-104761961D02*
X157690476Y-104857200D01*
X157690476Y-104857200D02*
X157547619Y-104904819D01*
X157547619Y-104904819D02*
X157309524Y-104904819D01*
X158166667Y-103904819D02*
X158500000Y-104904819D01*
X158500000Y-104904819D02*
X158833333Y-103904819D01*
X147690476Y-97857200D02*
X147833333Y-97904819D01*
X147833333Y-97904819D02*
X148071428Y-97904819D01*
X148071428Y-97904819D02*
X148166666Y-97857200D01*
X148166666Y-97857200D02*
X148214285Y-97809580D01*
X148214285Y-97809580D02*
X148261904Y-97714342D01*
X148261904Y-97714342D02*
X148261904Y-97619104D01*
X148261904Y-97619104D02*
X148214285Y-97523866D01*
X148214285Y-97523866D02*
X148166666Y-97476247D01*
X148166666Y-97476247D02*
X148071428Y-97428628D01*
X148071428Y-97428628D02*
X147880952Y-97381009D01*
X147880952Y-97381009D02*
X147785714Y-97333390D01*
X147785714Y-97333390D02*
X147738095Y-97285771D01*
X147738095Y-97285771D02*
X147690476Y-97190533D01*
X147690476Y-97190533D02*
X147690476Y-97095295D01*
X147690476Y-97095295D02*
X147738095Y-97000057D01*
X147738095Y-97000057D02*
X147785714Y-96952438D01*
X147785714Y-96952438D02*
X147880952Y-96904819D01*
X147880952Y-96904819D02*
X148119047Y-96904819D01*
X148119047Y-96904819D02*
X148261904Y-96952438D01*
X149357142Y-98000057D02*
X149261904Y-97952438D01*
X149261904Y-97952438D02*
X149166666Y-97857200D01*
X149166666Y-97857200D02*
X149023809Y-97714342D01*
X149023809Y-97714342D02*
X148928571Y-97666723D01*
X148928571Y-97666723D02*
X148833333Y-97666723D01*
X148880952Y-97904819D02*
X148785714Y-97857200D01*
X148785714Y-97857200D02*
X148690476Y-97761961D01*
X148690476Y-97761961D02*
X148642857Y-97571485D01*
X148642857Y-97571485D02*
X148642857Y-97238152D01*
X148642857Y-97238152D02*
X148690476Y-97047676D01*
X148690476Y-97047676D02*
X148785714Y-96952438D01*
X148785714Y-96952438D02*
X148880952Y-96904819D01*
X148880952Y-96904819D02*
X149071428Y-96904819D01*
X149071428Y-96904819D02*
X149166666Y-96952438D01*
X149166666Y-96952438D02*
X149261904Y-97047676D01*
X149261904Y-97047676D02*
X149309523Y-97238152D01*
X149309523Y-97238152D02*
X149309523Y-97571485D01*
X149309523Y-97571485D02*
X149261904Y-97761961D01*
X149261904Y-97761961D02*
X149166666Y-97857200D01*
X149166666Y-97857200D02*
X149071428Y-97904819D01*
X149071428Y-97904819D02*
X148880952Y-97904819D01*
D12*
X166261904Y-99957419D02*
X166261904Y-100671704D01*
X166261904Y-100671704D02*
X166214285Y-100814561D01*
X166214285Y-100814561D02*
X166119047Y-100909800D01*
X166119047Y-100909800D02*
X165976190Y-100957419D01*
X165976190Y-100957419D02*
X165880952Y-100957419D01*
X166595238Y-99957419D02*
X167166666Y-99957419D01*
X166880952Y-100957419D02*
X166880952Y-99957419D01*
X155428571Y-85481228D02*
X155428571Y-85957419D01*
X155095238Y-84957419D02*
X155428571Y-85481228D01*
X155428571Y-85481228D02*
X155761904Y-84957419D01*
X156095238Y-85957419D02*
X156095238Y-84957419D01*
X156095238Y-84957419D02*
X156428571Y-85671704D01*
X156428571Y-85671704D02*
X156761904Y-84957419D01*
X156761904Y-84957419D02*
X156761904Y-85957419D01*
X165690476Y-78409800D02*
X165833333Y-78457419D01*
X165833333Y-78457419D02*
X166071428Y-78457419D01*
X166071428Y-78457419D02*
X166166666Y-78409800D01*
X166166666Y-78409800D02*
X166214285Y-78362180D01*
X166214285Y-78362180D02*
X166261904Y-78266942D01*
X166261904Y-78266942D02*
X166261904Y-78171704D01*
X166261904Y-78171704D02*
X166214285Y-78076466D01*
X166214285Y-78076466D02*
X166166666Y-78028847D01*
X166166666Y-78028847D02*
X166071428Y-77981228D01*
X166071428Y-77981228D02*
X165880952Y-77933609D01*
X165880952Y-77933609D02*
X165785714Y-77885990D01*
X165785714Y-77885990D02*
X165738095Y-77838371D01*
X165738095Y-77838371D02*
X165690476Y-77743133D01*
X165690476Y-77743133D02*
X165690476Y-77647895D01*
X165690476Y-77647895D02*
X165738095Y-77552657D01*
X165738095Y-77552657D02*
X165785714Y-77505038D01*
X165785714Y-77505038D02*
X165880952Y-77457419D01*
X165880952Y-77457419D02*
X166119047Y-77457419D01*
X166119047Y-77457419D02*
X166261904Y-77505038D01*
X167357142Y-78552657D02*
X167261904Y-78505038D01*
X167261904Y-78505038D02*
X167166666Y-78409800D01*
X167166666Y-78409800D02*
X167023809Y-78266942D01*
X167023809Y-78266942D02*
X166928571Y-78219323D01*
X166928571Y-78219323D02*
X166833333Y-78219323D01*
X166880952Y-78457419D02*
X166785714Y-78409800D01*
X166785714Y-78409800D02*
X166690476Y-78314561D01*
X166690476Y-78314561D02*
X166642857Y-78124085D01*
X166642857Y-78124085D02*
X166642857Y-77790752D01*
X166642857Y-77790752D02*
X166690476Y-77600276D01*
X166690476Y-77600276D02*
X166785714Y-77505038D01*
X166785714Y-77505038D02*
X166880952Y-77457419D01*
X166880952Y-77457419D02*
X167071428Y-77457419D01*
X167071428Y-77457419D02*
X167166666Y-77505038D01*
X167166666Y-77505038D02*
X167261904Y-77600276D01*
X167261904Y-77600276D02*
X167309523Y-77790752D01*
X167309523Y-77790752D02*
X167309523Y-78124085D01*
X167309523Y-78124085D02*
X167261904Y-78314561D01*
X167261904Y-78314561D02*
X167166666Y-78409800D01*
X167166666Y-78409800D02*
X167071428Y-78457419D01*
X167071428Y-78457419D02*
X166880952Y-78457419D01*
%TO.C,RW*%
X132050000Y-79860000D02*
G75*
G02*
X131950000Y-79860000I-50000J0D01*
G01*
X131950000Y-79860000D02*
G75*
G02*
X132050000Y-79860000I50000J0D01*
G01*
%TO.C,YM*%
X145190000Y-96000000D02*
G75*
G02*
X145090000Y-96000000I-50000J0D01*
G01*
X145090000Y-96000000D02*
G75*
G02*
X145190000Y-96000000I50000J0D01*
G01*
%TO.C,CI*%
X146690000Y-117000000D02*
G75*
G02*
X146590000Y-117000000I-50000J0D01*
G01*
X146590000Y-117000000D02*
G75*
G02*
X146690000Y-117000000I50000J0D01*
G01*
%TO.C,JT*%
X165845000Y-117000000D02*
G75*
G02*
X165745000Y-117000000I-50000J0D01*
G01*
X165745000Y-117000000D02*
G75*
G02*
X165845000Y-117000000I50000J0D01*
G01*
%TO.C,DV*%
X157190000Y-105500000D02*
G75*
G02*
X157090000Y-105500000I-50000J0D01*
G01*
X157090000Y-105500000D02*
G75*
G02*
X157190000Y-105500000I50000J0D01*
G01*
%TO.C,SQ*%
X147690000Y-98500000D02*
G75*
G02*
X147590000Y-98500000I-50000J0D01*
G01*
X147590000Y-98500000D02*
G75*
G02*
X147690000Y-98500000I50000J0D01*
G01*
%TD*%
M02*
