%TF.GenerationSoftware,KiCad,Pcbnew,8.0.8*%
%TF.CreationDate,2025-07-15T17:28:02-07:00*%
%TF.ProjectId,Map Lights,4d617020-4c69-4676-9874-732e6b696361,rev?*%
%TF.SameCoordinates,Original*%
%TF.FileFunction,Drillmap*%
%TF.FilePolarity,Positive*%
%FSLAX45Y45*%
G04 Gerber Fmt 4.5, Leading zero omitted, Abs format (unit mm)*
G04 Created by KiCad (PCBNEW 8.0.8) date 2025-07-15 17:28:02*
%MOMM*%
%LPD*%
G01*
G04 APERTURE LIST*
%ADD10C,0.050000*%
%ADD11C,0.200000*%
%ADD12C,0.100000*%
G04 APERTURE END LIST*
D10*
X10900000Y-7350000D02*
X18650000Y-7350000D01*
X19050000Y-11800000D02*
X19050000Y-12350000D01*
X18650000Y-7350000D02*
G75*
G02*
X19050000Y-7750000I0J-400000D01*
G01*
X18650000Y-12750000D02*
X10900000Y-12750000D01*
X17500000Y-8300000D02*
X17500000Y-11800000D01*
X19050000Y-8300000D02*
X17500000Y-8300000D01*
X17500000Y-11800000D02*
X19050000Y-11800000D01*
X11500000Y-12000000D02*
G75*
G02*
X10900000Y-12000000I-300000J0D01*
G01*
X10900000Y-12000000D02*
G75*
G02*
X11500000Y-12000000I300000J0D01*
G01*
X19050000Y-12350000D02*
G75*
G02*
X18650000Y-12750000I-400000J0D01*
G01*
X10500000Y-7750000D02*
G75*
G02*
X10900000Y-7350000I400000J0D01*
G01*
X10500000Y-12350000D02*
X10500000Y-7750000D01*
X19050000Y-7750000D02*
X19050000Y-8300000D01*
X10900000Y-12750000D02*
G75*
G02*
X10500000Y-12350000I0J400000D01*
G01*
D11*
D12*
X10785000Y-9135000D02*
X10815000Y-9165000D01*
X10815000Y-9135000D02*
X10785000Y-9165000D01*
X12635000Y-9435000D02*
X12665000Y-9465000D01*
X12665000Y-9435000D02*
X12635000Y-9465000D01*
X13185000Y-7735000D02*
X13215000Y-7765000D01*
X13215000Y-7735000D02*
X13185000Y-7765000D01*
X13185000Y-8035000D02*
X13215000Y-8065000D01*
X13215000Y-8035000D02*
X13185000Y-8065000D01*
X14485000Y-9585000D02*
X14515000Y-9615000D01*
X14515000Y-9585000D02*
X14485000Y-9615000D01*
X14585000Y-11685000D02*
X14615000Y-11715000D01*
X14615000Y-11685000D02*
X14585000Y-11715000D01*
X14690000Y-9586005D02*
X14720000Y-9616005D01*
X14720000Y-9586005D02*
X14690000Y-9616005D01*
X14735000Y-9835000D02*
X14765000Y-9865000D01*
X14765000Y-9835000D02*
X14735000Y-9865000D01*
X14935000Y-11685000D02*
X14965000Y-11715000D01*
X14965000Y-11685000D02*
X14935000Y-11715000D01*
X14940000Y-9836005D02*
X14970000Y-9866005D01*
X14970000Y-9836005D02*
X14940000Y-9866005D01*
X15685000Y-10535000D02*
X15715000Y-10565000D01*
X15715000Y-10535000D02*
X15685000Y-10565000D01*
X15835000Y-8035000D02*
X15865000Y-8065000D01*
X15865000Y-8035000D02*
X15835000Y-8065000D01*
X15835000Y-8785000D02*
X15865000Y-8815000D01*
X15865000Y-8785000D02*
X15835000Y-8815000D01*
X15890000Y-10536005D02*
X15920000Y-10566005D01*
X15920000Y-10536005D02*
X15890000Y-10566005D01*
X16485000Y-11685000D02*
X16515000Y-11715000D01*
X16515000Y-11685000D02*
X16485000Y-11715000D01*
X16835000Y-11685000D02*
X16865000Y-11715000D01*
X16865000Y-11685000D02*
X16835000Y-11715000D01*
X16885000Y-8035000D02*
X16915000Y-8065000D01*
X16915000Y-8035000D02*
X16885000Y-8065000D01*
X16885000Y-8785000D02*
X16915000Y-8815000D01*
X16915000Y-8785000D02*
X16885000Y-8815000D01*
X16885000Y-9535000D02*
X16915000Y-9565000D01*
X16915000Y-9535000D02*
X16885000Y-9565000D01*
X16935000Y-10285000D02*
X16965000Y-10315000D01*
X16965000Y-10285000D02*
X16935000Y-10315000D01*
D11*
X10758277Y-13063984D02*
X10758277Y-12863984D01*
X10758277Y-12863984D02*
X10805896Y-12863984D01*
X10805896Y-12863984D02*
X10834467Y-12873508D01*
X10834467Y-12873508D02*
X10853515Y-12892555D01*
X10853515Y-12892555D02*
X10863039Y-12911603D01*
X10863039Y-12911603D02*
X10872563Y-12949698D01*
X10872563Y-12949698D02*
X10872563Y-12978269D01*
X10872563Y-12978269D02*
X10863039Y-13016365D01*
X10863039Y-13016365D02*
X10853515Y-13035412D01*
X10853515Y-13035412D02*
X10834467Y-13054460D01*
X10834467Y-13054460D02*
X10805896Y-13063984D01*
X10805896Y-13063984D02*
X10758277Y-13063984D01*
X10958277Y-13063984D02*
X10958277Y-12930650D01*
X10958277Y-12968746D02*
X10967801Y-12949698D01*
X10967801Y-12949698D02*
X10977324Y-12940174D01*
X10977324Y-12940174D02*
X10996372Y-12930650D01*
X10996372Y-12930650D02*
X11015420Y-12930650D01*
X11082086Y-13063984D02*
X11082086Y-12930650D01*
X11082086Y-12863984D02*
X11072563Y-12873508D01*
X11072563Y-12873508D02*
X11082086Y-12883031D01*
X11082086Y-12883031D02*
X11091610Y-12873508D01*
X11091610Y-12873508D02*
X11082086Y-12863984D01*
X11082086Y-12863984D02*
X11082086Y-12883031D01*
X11205896Y-13063984D02*
X11186848Y-13054460D01*
X11186848Y-13054460D02*
X11177324Y-13035412D01*
X11177324Y-13035412D02*
X11177324Y-12863984D01*
X11310658Y-13063984D02*
X11291610Y-13054460D01*
X11291610Y-13054460D02*
X11282086Y-13035412D01*
X11282086Y-13035412D02*
X11282086Y-12863984D01*
X11539229Y-13063984D02*
X11539229Y-12863984D01*
X11539229Y-12863984D02*
X11605896Y-13006841D01*
X11605896Y-13006841D02*
X11672562Y-12863984D01*
X11672562Y-12863984D02*
X11672562Y-13063984D01*
X11853515Y-13063984D02*
X11853515Y-12959222D01*
X11853515Y-12959222D02*
X11843991Y-12940174D01*
X11843991Y-12940174D02*
X11824943Y-12930650D01*
X11824943Y-12930650D02*
X11786848Y-12930650D01*
X11786848Y-12930650D02*
X11767801Y-12940174D01*
X11853515Y-13054460D02*
X11834467Y-13063984D01*
X11834467Y-13063984D02*
X11786848Y-13063984D01*
X11786848Y-13063984D02*
X11767801Y-13054460D01*
X11767801Y-13054460D02*
X11758277Y-13035412D01*
X11758277Y-13035412D02*
X11758277Y-13016365D01*
X11758277Y-13016365D02*
X11767801Y-12997317D01*
X11767801Y-12997317D02*
X11786848Y-12987793D01*
X11786848Y-12987793D02*
X11834467Y-12987793D01*
X11834467Y-12987793D02*
X11853515Y-12978269D01*
X11948753Y-12930650D02*
X11948753Y-13130650D01*
X11948753Y-12940174D02*
X11967801Y-12930650D01*
X11967801Y-12930650D02*
X12005896Y-12930650D01*
X12005896Y-12930650D02*
X12024943Y-12940174D01*
X12024943Y-12940174D02*
X12034467Y-12949698D01*
X12034467Y-12949698D02*
X12043991Y-12968746D01*
X12043991Y-12968746D02*
X12043991Y-13025888D01*
X12043991Y-13025888D02*
X12034467Y-13044936D01*
X12034467Y-13044936D02*
X12024943Y-13054460D01*
X12024943Y-13054460D02*
X12005896Y-13063984D01*
X12005896Y-13063984D02*
X11967801Y-13063984D01*
X11967801Y-13063984D02*
X11948753Y-13054460D01*
X12129705Y-13044936D02*
X12139229Y-13054460D01*
X12139229Y-13054460D02*
X12129705Y-13063984D01*
X12129705Y-13063984D02*
X12120182Y-13054460D01*
X12120182Y-13054460D02*
X12129705Y-13044936D01*
X12129705Y-13044936D02*
X12129705Y-13063984D01*
X12129705Y-12940174D02*
X12139229Y-12949698D01*
X12139229Y-12949698D02*
X12129705Y-12959222D01*
X12129705Y-12959222D02*
X12120182Y-12949698D01*
X12120182Y-12949698D02*
X12129705Y-12940174D01*
X12129705Y-12940174D02*
X12129705Y-12959222D01*
D12*
X10467500Y-13377500D02*
X10497500Y-13407500D01*
X10497500Y-13377500D02*
X10467500Y-13407500D01*
D11*
X10796372Y-13283984D02*
X10815420Y-13283984D01*
X10815420Y-13283984D02*
X10834467Y-13293508D01*
X10834467Y-13293508D02*
X10843991Y-13303031D01*
X10843991Y-13303031D02*
X10853515Y-13322079D01*
X10853515Y-13322079D02*
X10863039Y-13360174D01*
X10863039Y-13360174D02*
X10863039Y-13407793D01*
X10863039Y-13407793D02*
X10853515Y-13445888D01*
X10853515Y-13445888D02*
X10843991Y-13464936D01*
X10843991Y-13464936D02*
X10834467Y-13474460D01*
X10834467Y-13474460D02*
X10815420Y-13483984D01*
X10815420Y-13483984D02*
X10796372Y-13483984D01*
X10796372Y-13483984D02*
X10777324Y-13474460D01*
X10777324Y-13474460D02*
X10767801Y-13464936D01*
X10767801Y-13464936D02*
X10758277Y-13445888D01*
X10758277Y-13445888D02*
X10748753Y-13407793D01*
X10748753Y-13407793D02*
X10748753Y-13360174D01*
X10748753Y-13360174D02*
X10758277Y-13322079D01*
X10758277Y-13322079D02*
X10767801Y-13303031D01*
X10767801Y-13303031D02*
X10777324Y-13293508D01*
X10777324Y-13293508D02*
X10796372Y-13283984D01*
X10948753Y-13464936D02*
X10958277Y-13474460D01*
X10958277Y-13474460D02*
X10948753Y-13483984D01*
X10948753Y-13483984D02*
X10939229Y-13474460D01*
X10939229Y-13474460D02*
X10948753Y-13464936D01*
X10948753Y-13464936D02*
X10948753Y-13483984D01*
X11024944Y-13283984D02*
X11148753Y-13283984D01*
X11148753Y-13283984D02*
X11082086Y-13360174D01*
X11082086Y-13360174D02*
X11110658Y-13360174D01*
X11110658Y-13360174D02*
X11129705Y-13369698D01*
X11129705Y-13369698D02*
X11139229Y-13379222D01*
X11139229Y-13379222D02*
X11148753Y-13398269D01*
X11148753Y-13398269D02*
X11148753Y-13445888D01*
X11148753Y-13445888D02*
X11139229Y-13464936D01*
X11139229Y-13464936D02*
X11129705Y-13474460D01*
X11129705Y-13474460D02*
X11110658Y-13483984D01*
X11110658Y-13483984D02*
X11053515Y-13483984D01*
X11053515Y-13483984D02*
X11034467Y-13474460D01*
X11034467Y-13474460D02*
X11024944Y-13464936D01*
X11272562Y-13283984D02*
X11291610Y-13283984D01*
X11291610Y-13283984D02*
X11310658Y-13293508D01*
X11310658Y-13293508D02*
X11320182Y-13303031D01*
X11320182Y-13303031D02*
X11329705Y-13322079D01*
X11329705Y-13322079D02*
X11339229Y-13360174D01*
X11339229Y-13360174D02*
X11339229Y-13407793D01*
X11339229Y-13407793D02*
X11329705Y-13445888D01*
X11329705Y-13445888D02*
X11320182Y-13464936D01*
X11320182Y-13464936D02*
X11310658Y-13474460D01*
X11310658Y-13474460D02*
X11291610Y-13483984D01*
X11291610Y-13483984D02*
X11272562Y-13483984D01*
X11272562Y-13483984D02*
X11253515Y-13474460D01*
X11253515Y-13474460D02*
X11243991Y-13464936D01*
X11243991Y-13464936D02*
X11234467Y-13445888D01*
X11234467Y-13445888D02*
X11224943Y-13407793D01*
X11224943Y-13407793D02*
X11224943Y-13360174D01*
X11224943Y-13360174D02*
X11234467Y-13322079D01*
X11234467Y-13322079D02*
X11243991Y-13303031D01*
X11243991Y-13303031D02*
X11253515Y-13293508D01*
X11253515Y-13293508D02*
X11272562Y-13283984D01*
X11463039Y-13283984D02*
X11482086Y-13283984D01*
X11482086Y-13283984D02*
X11501134Y-13293508D01*
X11501134Y-13293508D02*
X11510658Y-13303031D01*
X11510658Y-13303031D02*
X11520182Y-13322079D01*
X11520182Y-13322079D02*
X11529705Y-13360174D01*
X11529705Y-13360174D02*
X11529705Y-13407793D01*
X11529705Y-13407793D02*
X11520182Y-13445888D01*
X11520182Y-13445888D02*
X11510658Y-13464936D01*
X11510658Y-13464936D02*
X11501134Y-13474460D01*
X11501134Y-13474460D02*
X11482086Y-13483984D01*
X11482086Y-13483984D02*
X11463039Y-13483984D01*
X11463039Y-13483984D02*
X11443991Y-13474460D01*
X11443991Y-13474460D02*
X11434467Y-13464936D01*
X11434467Y-13464936D02*
X11424943Y-13445888D01*
X11424943Y-13445888D02*
X11415420Y-13407793D01*
X11415420Y-13407793D02*
X11415420Y-13360174D01*
X11415420Y-13360174D02*
X11424943Y-13322079D01*
X11424943Y-13322079D02*
X11434467Y-13303031D01*
X11434467Y-13303031D02*
X11443991Y-13293508D01*
X11443991Y-13293508D02*
X11463039Y-13283984D01*
X11615420Y-13483984D02*
X11615420Y-13350650D01*
X11615420Y-13369698D02*
X11624943Y-13360174D01*
X11624943Y-13360174D02*
X11643991Y-13350650D01*
X11643991Y-13350650D02*
X11672563Y-13350650D01*
X11672563Y-13350650D02*
X11691610Y-13360174D01*
X11691610Y-13360174D02*
X11701134Y-13379222D01*
X11701134Y-13379222D02*
X11701134Y-13483984D01*
X11701134Y-13379222D02*
X11710658Y-13360174D01*
X11710658Y-13360174D02*
X11729705Y-13350650D01*
X11729705Y-13350650D02*
X11758277Y-13350650D01*
X11758277Y-13350650D02*
X11777324Y-13360174D01*
X11777324Y-13360174D02*
X11786848Y-13379222D01*
X11786848Y-13379222D02*
X11786848Y-13483984D01*
X11882086Y-13483984D02*
X11882086Y-13350650D01*
X11882086Y-13369698D02*
X11891610Y-13360174D01*
X11891610Y-13360174D02*
X11910658Y-13350650D01*
X11910658Y-13350650D02*
X11939229Y-13350650D01*
X11939229Y-13350650D02*
X11958277Y-13360174D01*
X11958277Y-13360174D02*
X11967801Y-13379222D01*
X11967801Y-13379222D02*
X11967801Y-13483984D01*
X11967801Y-13379222D02*
X11977324Y-13360174D01*
X11977324Y-13360174D02*
X11996372Y-13350650D01*
X11996372Y-13350650D02*
X12024943Y-13350650D01*
X12024943Y-13350650D02*
X12043991Y-13360174D01*
X12043991Y-13360174D02*
X12053515Y-13379222D01*
X12053515Y-13379222D02*
X12053515Y-13483984D01*
X12443991Y-13274460D02*
X12272563Y-13531603D01*
X12701134Y-13283984D02*
X12720182Y-13283984D01*
X12720182Y-13283984D02*
X12739229Y-13293508D01*
X12739229Y-13293508D02*
X12748753Y-13303031D01*
X12748753Y-13303031D02*
X12758277Y-13322079D01*
X12758277Y-13322079D02*
X12767801Y-13360174D01*
X12767801Y-13360174D02*
X12767801Y-13407793D01*
X12767801Y-13407793D02*
X12758277Y-13445888D01*
X12758277Y-13445888D02*
X12748753Y-13464936D01*
X12748753Y-13464936D02*
X12739229Y-13474460D01*
X12739229Y-13474460D02*
X12720182Y-13483984D01*
X12720182Y-13483984D02*
X12701134Y-13483984D01*
X12701134Y-13483984D02*
X12682086Y-13474460D01*
X12682086Y-13474460D02*
X12672563Y-13464936D01*
X12672563Y-13464936D02*
X12663039Y-13445888D01*
X12663039Y-13445888D02*
X12653515Y-13407793D01*
X12653515Y-13407793D02*
X12653515Y-13360174D01*
X12653515Y-13360174D02*
X12663039Y-13322079D01*
X12663039Y-13322079D02*
X12672563Y-13303031D01*
X12672563Y-13303031D02*
X12682086Y-13293508D01*
X12682086Y-13293508D02*
X12701134Y-13283984D01*
X12853515Y-13464936D02*
X12863039Y-13474460D01*
X12863039Y-13474460D02*
X12853515Y-13483984D01*
X12853515Y-13483984D02*
X12843991Y-13474460D01*
X12843991Y-13474460D02*
X12853515Y-13464936D01*
X12853515Y-13464936D02*
X12853515Y-13483984D01*
X12986848Y-13283984D02*
X13005896Y-13283984D01*
X13005896Y-13283984D02*
X13024944Y-13293508D01*
X13024944Y-13293508D02*
X13034467Y-13303031D01*
X13034467Y-13303031D02*
X13043991Y-13322079D01*
X13043991Y-13322079D02*
X13053515Y-13360174D01*
X13053515Y-13360174D02*
X13053515Y-13407793D01*
X13053515Y-13407793D02*
X13043991Y-13445888D01*
X13043991Y-13445888D02*
X13034467Y-13464936D01*
X13034467Y-13464936D02*
X13024944Y-13474460D01*
X13024944Y-13474460D02*
X13005896Y-13483984D01*
X13005896Y-13483984D02*
X12986848Y-13483984D01*
X12986848Y-13483984D02*
X12967801Y-13474460D01*
X12967801Y-13474460D02*
X12958277Y-13464936D01*
X12958277Y-13464936D02*
X12948753Y-13445888D01*
X12948753Y-13445888D02*
X12939229Y-13407793D01*
X12939229Y-13407793D02*
X12939229Y-13360174D01*
X12939229Y-13360174D02*
X12948753Y-13322079D01*
X12948753Y-13322079D02*
X12958277Y-13303031D01*
X12958277Y-13303031D02*
X12967801Y-13293508D01*
X12967801Y-13293508D02*
X12986848Y-13283984D01*
X13243991Y-13483984D02*
X13129706Y-13483984D01*
X13186848Y-13483984D02*
X13186848Y-13283984D01*
X13186848Y-13283984D02*
X13167801Y-13312555D01*
X13167801Y-13312555D02*
X13148753Y-13331603D01*
X13148753Y-13331603D02*
X13129706Y-13341127D01*
X13434467Y-13483984D02*
X13320182Y-13483984D01*
X13377325Y-13483984D02*
X13377325Y-13283984D01*
X13377325Y-13283984D02*
X13358277Y-13312555D01*
X13358277Y-13312555D02*
X13339229Y-13331603D01*
X13339229Y-13331603D02*
X13320182Y-13341127D01*
X13548753Y-13369698D02*
X13529706Y-13360174D01*
X13529706Y-13360174D02*
X13520182Y-13350650D01*
X13520182Y-13350650D02*
X13510658Y-13331603D01*
X13510658Y-13331603D02*
X13510658Y-13322079D01*
X13510658Y-13322079D02*
X13520182Y-13303031D01*
X13520182Y-13303031D02*
X13529706Y-13293508D01*
X13529706Y-13293508D02*
X13548753Y-13283984D01*
X13548753Y-13283984D02*
X13586848Y-13283984D01*
X13586848Y-13283984D02*
X13605896Y-13293508D01*
X13605896Y-13293508D02*
X13615420Y-13303031D01*
X13615420Y-13303031D02*
X13624944Y-13322079D01*
X13624944Y-13322079D02*
X13624944Y-13331603D01*
X13624944Y-13331603D02*
X13615420Y-13350650D01*
X13615420Y-13350650D02*
X13605896Y-13360174D01*
X13605896Y-13360174D02*
X13586848Y-13369698D01*
X13586848Y-13369698D02*
X13548753Y-13369698D01*
X13548753Y-13369698D02*
X13529706Y-13379222D01*
X13529706Y-13379222D02*
X13520182Y-13388746D01*
X13520182Y-13388746D02*
X13510658Y-13407793D01*
X13510658Y-13407793D02*
X13510658Y-13445888D01*
X13510658Y-13445888D02*
X13520182Y-13464936D01*
X13520182Y-13464936D02*
X13529706Y-13474460D01*
X13529706Y-13474460D02*
X13548753Y-13483984D01*
X13548753Y-13483984D02*
X13586848Y-13483984D01*
X13586848Y-13483984D02*
X13605896Y-13474460D01*
X13605896Y-13474460D02*
X13615420Y-13464936D01*
X13615420Y-13464936D02*
X13624944Y-13445888D01*
X13624944Y-13445888D02*
X13624944Y-13407793D01*
X13624944Y-13407793D02*
X13615420Y-13388746D01*
X13615420Y-13388746D02*
X13605896Y-13379222D01*
X13605896Y-13379222D02*
X13586848Y-13369698D01*
X13701134Y-13283984D02*
X13701134Y-13322079D01*
X13777325Y-13283984D02*
X13777325Y-13322079D01*
X14072563Y-13560174D02*
X14063039Y-13550650D01*
X14063039Y-13550650D02*
X14043991Y-13522079D01*
X14043991Y-13522079D02*
X14034468Y-13503031D01*
X14034468Y-13503031D02*
X14024944Y-13474460D01*
X14024944Y-13474460D02*
X14015420Y-13426841D01*
X14015420Y-13426841D02*
X14015420Y-13388746D01*
X14015420Y-13388746D02*
X14024944Y-13341127D01*
X14024944Y-13341127D02*
X14034468Y-13312555D01*
X14034468Y-13312555D02*
X14043991Y-13293508D01*
X14043991Y-13293508D02*
X14063039Y-13264936D01*
X14063039Y-13264936D02*
X14072563Y-13255412D01*
X14139229Y-13303031D02*
X14148753Y-13293508D01*
X14148753Y-13293508D02*
X14167801Y-13283984D01*
X14167801Y-13283984D02*
X14215420Y-13283984D01*
X14215420Y-13283984D02*
X14234468Y-13293508D01*
X14234468Y-13293508D02*
X14243991Y-13303031D01*
X14243991Y-13303031D02*
X14253515Y-13322079D01*
X14253515Y-13322079D02*
X14253515Y-13341127D01*
X14253515Y-13341127D02*
X14243991Y-13369698D01*
X14243991Y-13369698D02*
X14129706Y-13483984D01*
X14129706Y-13483984D02*
X14253515Y-13483984D01*
X14377325Y-13283984D02*
X14396372Y-13283984D01*
X14396372Y-13283984D02*
X14415420Y-13293508D01*
X14415420Y-13293508D02*
X14424944Y-13303031D01*
X14424944Y-13303031D02*
X14434468Y-13322079D01*
X14434468Y-13322079D02*
X14443991Y-13360174D01*
X14443991Y-13360174D02*
X14443991Y-13407793D01*
X14443991Y-13407793D02*
X14434468Y-13445888D01*
X14434468Y-13445888D02*
X14424944Y-13464936D01*
X14424944Y-13464936D02*
X14415420Y-13474460D01*
X14415420Y-13474460D02*
X14396372Y-13483984D01*
X14396372Y-13483984D02*
X14377325Y-13483984D01*
X14377325Y-13483984D02*
X14358277Y-13474460D01*
X14358277Y-13474460D02*
X14348753Y-13464936D01*
X14348753Y-13464936D02*
X14339229Y-13445888D01*
X14339229Y-13445888D02*
X14329706Y-13407793D01*
X14329706Y-13407793D02*
X14329706Y-13360174D01*
X14329706Y-13360174D02*
X14339229Y-13322079D01*
X14339229Y-13322079D02*
X14348753Y-13303031D01*
X14348753Y-13303031D02*
X14358277Y-13293508D01*
X14358277Y-13293508D02*
X14377325Y-13283984D01*
X14682087Y-13483984D02*
X14682087Y-13283984D01*
X14767801Y-13483984D02*
X14767801Y-13379222D01*
X14767801Y-13379222D02*
X14758277Y-13360174D01*
X14758277Y-13360174D02*
X14739230Y-13350650D01*
X14739230Y-13350650D02*
X14710658Y-13350650D01*
X14710658Y-13350650D02*
X14691610Y-13360174D01*
X14691610Y-13360174D02*
X14682087Y-13369698D01*
X14891610Y-13483984D02*
X14872563Y-13474460D01*
X14872563Y-13474460D02*
X14863039Y-13464936D01*
X14863039Y-13464936D02*
X14853515Y-13445888D01*
X14853515Y-13445888D02*
X14853515Y-13388746D01*
X14853515Y-13388746D02*
X14863039Y-13369698D01*
X14863039Y-13369698D02*
X14872563Y-13360174D01*
X14872563Y-13360174D02*
X14891610Y-13350650D01*
X14891610Y-13350650D02*
X14920182Y-13350650D01*
X14920182Y-13350650D02*
X14939230Y-13360174D01*
X14939230Y-13360174D02*
X14948753Y-13369698D01*
X14948753Y-13369698D02*
X14958277Y-13388746D01*
X14958277Y-13388746D02*
X14958277Y-13445888D01*
X14958277Y-13445888D02*
X14948753Y-13464936D01*
X14948753Y-13464936D02*
X14939230Y-13474460D01*
X14939230Y-13474460D02*
X14920182Y-13483984D01*
X14920182Y-13483984D02*
X14891610Y-13483984D01*
X15072563Y-13483984D02*
X15053515Y-13474460D01*
X15053515Y-13474460D02*
X15043991Y-13455412D01*
X15043991Y-13455412D02*
X15043991Y-13283984D01*
X15224944Y-13474460D02*
X15205896Y-13483984D01*
X15205896Y-13483984D02*
X15167801Y-13483984D01*
X15167801Y-13483984D02*
X15148753Y-13474460D01*
X15148753Y-13474460D02*
X15139230Y-13455412D01*
X15139230Y-13455412D02*
X15139230Y-13379222D01*
X15139230Y-13379222D02*
X15148753Y-13360174D01*
X15148753Y-13360174D02*
X15167801Y-13350650D01*
X15167801Y-13350650D02*
X15205896Y-13350650D01*
X15205896Y-13350650D02*
X15224944Y-13360174D01*
X15224944Y-13360174D02*
X15234468Y-13379222D01*
X15234468Y-13379222D02*
X15234468Y-13398269D01*
X15234468Y-13398269D02*
X15139230Y-13417317D01*
X15310658Y-13474460D02*
X15329706Y-13483984D01*
X15329706Y-13483984D02*
X15367801Y-13483984D01*
X15367801Y-13483984D02*
X15386849Y-13474460D01*
X15386849Y-13474460D02*
X15396372Y-13455412D01*
X15396372Y-13455412D02*
X15396372Y-13445888D01*
X15396372Y-13445888D02*
X15386849Y-13426841D01*
X15386849Y-13426841D02*
X15367801Y-13417317D01*
X15367801Y-13417317D02*
X15339230Y-13417317D01*
X15339230Y-13417317D02*
X15320182Y-13407793D01*
X15320182Y-13407793D02*
X15310658Y-13388746D01*
X15310658Y-13388746D02*
X15310658Y-13379222D01*
X15310658Y-13379222D02*
X15320182Y-13360174D01*
X15320182Y-13360174D02*
X15339230Y-13350650D01*
X15339230Y-13350650D02*
X15367801Y-13350650D01*
X15367801Y-13350650D02*
X15386849Y-13360174D01*
X15463039Y-13560174D02*
X15472563Y-13550650D01*
X15472563Y-13550650D02*
X15491611Y-13522079D01*
X15491611Y-13522079D02*
X15501134Y-13503031D01*
X15501134Y-13503031D02*
X15510658Y-13474460D01*
X15510658Y-13474460D02*
X15520182Y-13426841D01*
X15520182Y-13426841D02*
X15520182Y-13388746D01*
X15520182Y-13388746D02*
X15510658Y-13341127D01*
X15510658Y-13341127D02*
X15501134Y-13312555D01*
X15501134Y-13312555D02*
X15491611Y-13293508D01*
X15491611Y-13293508D02*
X15472563Y-13264936D01*
X15472563Y-13264936D02*
X15463039Y-13255412D01*
M02*
