M48
; DRILL file {KiCad 8.0.8} date 2025-07-15T17:28:00-0700
; FORMAT={-:-/ absolute / inch / decimal}
; #@! TF.CreationDate,2025-07-15T17:28:00-07:00
; #@! TF.GenerationSoftware,Kicad,Pcbnew,8.0.8
; #@! TF.FileFunction,Plated,1,2,PTH
FMAT,2
INCH
; #@! TA.AperFunction,Plated,PTH,ViaDrill
T1C0.0118
%
G90
G05
T1
X4.252Y-3.6024
X4.9803Y-3.7205
X5.1969Y-3.0512
X5.1969Y-3.1693
X5.7087Y-3.7795
X5.748Y-4.6063
X5.7894Y-3.7799
X5.8071Y-3.878
X5.8858Y-4.6063
X5.8878Y-3.8783
X6.1811Y-4.1535
X6.2402Y-3.1693
X6.2402Y-3.4646
X6.2618Y-4.1539
X6.4961Y-4.6063
X6.6339Y-4.6063
X6.6535Y-3.1693
X6.6535Y-3.4646
X6.6535Y-3.7598
X6.6732Y-4.0551
M30
